<svg width="102" height="87" viewBox="0 0 102 87" fill="none" xmlns="http://www.w3.org/2000/svg">
<path d="M0.887038 0.079925L100.972 0C101.462 0 101.859 0.742097 101.859 1.65543L102 63.3397C102 64.2645 101.604 65.0065 101.113 65.0065L62.9351 65.075C62.6999 65.075 62.4715 65.2463 62.3102 65.566L51.7258 85.5452C51.3831 86.1959 50.8186 86.1959 50.4691 85.5452L39.8108 65.4975C39.6428 65.1892 39.421 65.0065 39.1858 65.0065H0.967678C0.477099 65.0065 0.0806398 64.2645 0.0806398 63.3512L0 1.73536C0 0.810606 0.396459 0.0684972 0.887038 0.0684972V0.079925Z" fill="white"/>
<path d="M29.5015 31.7183C30.5415 32.4067 31.0615 33.1538 31.0615 33.9595C31.0615 34.5894 30.915 34.9482 30.6221 35.0361L30.4683 35.0801C29.0913 34.1572 27.0845 33.6958 24.4478 33.6958L23.7227 39.5405V41.3643C23.7227 43.7666 23.9424 45.3047 24.3818 45.9785C24.7627 46.6084 25.1069 47.0479 25.4146 47.2969C25.7222 47.5459 26.0444 47.7729 26.3813 47.978C26.1616 48.4321 25.7954 48.7324 25.2827 48.8789C24.7847 49.0254 24.2939 49.0986 23.8105 49.0986C23.3418 49.0986 22.8071 48.8862 22.2065 48.4614C21.606 48.0513 21.1592 47.6338 20.8662 47.209L20.4487 46.5938C19.8335 47.6045 18.9766 48.3516 17.8779 48.835C17.4385 49.0107 17.0283 49.0986 16.6475 49.0986C16.2812 49.0986 15.9663 49.0547 15.7026 48.9668C15.439 48.8936 15.2266 48.8057 15.0654 48.7031C14.6846 48.4541 14.4209 48.2124 14.2744 47.978C14.9922 47.5386 15.4683 47.1504 15.7026 46.8135C15.9517 46.4619 16.1348 46.1909 16.252 46.0005C16.3838 45.8101 16.4937 45.5171 16.5815 45.1216C16.6694 44.7114 16.7354 44.3818 16.7793 44.1328C16.8232 43.8691 16.8525 43.437 16.8672 42.8364C16.8965 42.2358 16.9111 41.7451 16.9111 41.3643V39.5405C16.9111 35.6001 16.1934 33.0146 14.7578 31.7842C14.5967 31.6377 14.5161 31.4985 14.5161 31.3667C14.5161 31.2202 14.5967 31.0737 14.7578 30.9272C14.9189 30.7808 15.1167 30.5684 15.3511 30.29C15.6001 30.0117 15.8418 29.6235 16.0762 29.1255C16.6328 27.939 16.9111 26.0859 16.9111 23.5664C16.9111 21.0322 16.7134 19.2085 16.3179 18.0952C15.937 16.9673 15.2485 15.9272 14.2524 14.9751C14.2524 14.4478 14.6553 14.0596 15.4609 13.8105C15.7832 13.7227 16.1714 13.6787 16.6255 13.6787C17.0796 13.6787 17.5483 13.7593 18.0317 13.9204C18.5298 14.0815 18.9473 14.272 19.2842 14.4917C19.9727 14.9604 20.522 15.4585 20.9321 15.9858C22.0894 14.4478 23.3931 13.6787 24.8433 13.6787C25.6489 13.6787 26.4692 13.8618 27.3042 14.228C28.1538 14.5796 28.835 15.0996 29.3477 15.7881C29.4209 15.6562 29.5967 15.4438 29.875 15.1509C30.1533 14.8433 30.417 14.6016 30.666 14.4258C31.3545 13.9277 31.9624 13.6787 32.4897 13.6787C33.0171 13.6787 33.3979 13.7153 33.6323 13.7886C33.8667 13.8472 34.0425 13.9277 34.1597 14.0303C34.3794 14.2061 34.5186 14.4111 34.5771 14.6455C33.8301 15.2021 33.3027 15.8394 32.9951 16.5571C32.7021 17.2749 32.5557 18.1465 32.5557 19.1719C32.5557 20.9736 33.1562 22.3286 34.3574 23.2368C34.2988 23.4712 34.1304 23.6763 33.8521 23.8521C33.5737 24.0132 33.2222 24.0938 32.7974 24.0938C31.8306 24.0938 30.9443 23.6763 30.1387 22.8413C29.8604 23.1636 29.4722 23.4565 28.9741 23.7202C28.4761 23.9692 28 24.0938 27.5459 24.0938C27.0918 24.0938 26.7329 24.0205 26.4692 23.874C26.2202 23.7275 26.0518 23.5151 25.9639 23.2368C26.9893 22.2993 27.502 21.2812 27.502 20.1826C27.502 19.5674 27.3555 19.0327 27.0625 18.5786C26.7695 18.1099 26.2935 17.8755 25.6343 17.8755C24.3599 17.8755 23.7227 18.4248 23.7227 19.5234C23.7227 19.582 23.7227 19.6479 23.7227 19.7212L24.4478 29.6968C27.1577 29.6968 29.1646 29.25 30.4683 28.3564C30.6147 28.3564 30.7466 28.4663 30.8638 28.686C30.9956 28.8911 31.0615 29.1768 31.0615 29.543C31.0615 29.8945 30.9297 30.2607 30.666 30.6416C30.4023 31.0225 30.1387 31.3008 29.875 31.4766L29.5015 31.7183ZM56.0005 46.7915C55.2241 48.3296 54.0449 49.0986 52.4629 49.0986C51.6279 49.0986 51.0566 48.9961 50.749 48.791C50.2803 48.4395 49.98 48.1099 49.8481 47.8022C50.771 46.689 51.2324 45.2754 51.2324 43.5615C51.2324 42.082 51.1299 40.998 50.9248 40.3096C50.7344 39.6211 50.5146 38.8594 50.2656 38.0244C50.0312 37.1895 49.8115 36.3765 49.6064 35.5854H49.4526L44.4209 35.6074C44.333 35.9736 44.1792 36.5815 43.9595 37.4312C43.7397 38.2808 43.5859 38.9253 43.498 39.3647C43.2051 40.6538 43.0586 41.9209 43.0586 43.166C43.0586 45.0557 43.5933 46.6011 44.6626 47.8022C44.6479 47.8315 44.6333 47.8755 44.6187 47.9341C44.604 47.9927 44.5454 48.0952 44.4429 48.2417C44.355 48.4028 44.2524 48.542 44.1353 48.6592C43.813 48.9521 43.4175 49.0986 42.9487 49.0986C42.4946 49.0986 42.0918 49.0181 41.7402 48.8569C41.4033 48.6958 41.1396 48.5054 40.9492 48.2856C40.5098 47.8169 40.2095 47.3188 40.0483 46.7915C39.4478 47.3921 38.7153 47.9268 37.8511 48.3955C36.9868 48.8643 36.2397 49.0986 35.6099 49.0986C34.5845 49.0986 34.0718 48.7178 34.0718 47.9561V47.8022C35.2729 46.8501 36.1885 45.8394 36.8184 44.77C37.4482 43.686 38.0562 42.0967 38.6421 40.002L39.7847 35.981C38.8911 36.2007 38.0928 36.5815 37.3896 37.1235C37.2432 37.1235 37.104 37.0137 36.9722 36.7939C36.855 36.5742 36.7964 36.3105 36.7964 36.0029C36.7964 35.3145 37.3091 34.7065 38.3345 34.1792C38.0708 34.0913 37.8071 33.9082 37.5435 33.6299C37.0454 33.1465 36.7964 32.751 36.7964 32.4434C36.7964 32.1211 36.8184 31.8867 36.8623 31.7402C36.9062 31.5791 36.9502 31.4619 36.9941 31.3887C37.1113 31.2422 37.2432 31.1543 37.3896 31.125C38.2979 31.8281 39.4258 32.2749 40.7734 32.4653L43.3223 23.4565C43.8936 21.4351 44.1792 19.8237 44.1792 18.6226C44.1792 17.4214 43.791 16.2129 43.0146 14.9971V14.9092C43.0146 14.0889 43.8423 13.6787 45.4976 13.6787C46.3472 13.6787 47.27 14.2207 48.2661 15.3047C48.4858 15.5537 48.7129 15.854 48.9473 16.2056C49.3721 15.1655 50.207 14.4111 51.4521 13.9424C51.9648 13.7666 52.4702 13.6787 52.9683 13.6787C53.4663 13.6787 53.8472 13.7886 54.1108 14.0083C54.3745 14.228 54.5649 14.5576 54.6821 14.9971C54.2573 16.2275 54.0449 17.6338 54.0449 19.2158C54.0449 20.7832 54.1768 22.1821 54.4404 23.4126C54.7041 24.6431 55.0337 25.8003 55.4292 26.8843C55.8394 27.9536 56.2202 28.7373 56.5718 29.2354C56.938 29.7334 57.2749 30.1289 57.5825 30.4219C57.8901 30.7002 58.1318 30.9126 58.3076 31.0591C58.498 31.1909 58.5933 31.3228 58.5933 31.4546C58.5933 31.5864 58.5347 31.7329 58.4175 31.894C58.3003 32.0405 58.1685 32.1943 58.022 32.3555C57.6411 32.7949 57.4507 33.6738 57.4507 34.9922C57.4507 37.4678 57.9561 39.936 58.9668 42.397C59.9922 44.8433 61.1934 46.645 62.5703 47.8022V47.8901C62.5703 48.6958 61.8379 49.0986 60.373 49.0986C58.9229 49.0986 57.4653 48.3296 56.0005 46.7915ZM48.9033 32.6631C47.7168 27.8584 47.0869 25.251 47.0137 24.8408C46.3984 27.3311 45.7686 29.9385 45.124 32.6631C45.8711 32.6631 46.6768 32.6631 47.541 32.6631H48.9033ZM73.0732 38.332C73.0732 38.332 73.0732 38.8813 73.0732 39.98C73.0732 41.8843 73.1465 42.9976 73.293 43.3198C73.4541 43.6421 73.5859 43.9131 73.6885 44.1328C73.791 44.3525 73.9082 44.5137 74.04 44.6162C74.1865 44.7041 74.3477 44.8066 74.5234 44.9238C75.0508 45.2314 75.7832 45.2974 76.7207 45.1216C77.4385 44.9897 77.9292 44.6382 78.1929 44.0669C78.5591 43.2905 78.7568 42.4482 78.7861 41.54C78.8154 40.6318 78.8301 40.0312 78.8301 39.7383V38.5078C78.8301 35.0947 78.2734 32.8682 77.1602 31.8281C77.0283 31.6963 76.9624 31.5938 76.9624 31.5205C76.9624 31.4473 77.0576 31.3008 77.248 31.0811C77.4531 30.8613 77.6655 30.5757 77.8853 30.2241C78.1196 29.8579 78.332 29.1401 78.5225 28.0708C78.7275 27.0015 78.8301 25.8882 78.8301 24.731C78.8301 23.5737 78.8228 22.8047 78.8081 22.4238C78.8081 22.043 78.7935 21.5889 78.7642 21.0615C78.7495 20.5342 78.7129 20.1387 78.6543 19.875C78.6104 19.6113 78.5371 19.311 78.4346 18.9741C78.3467 18.6372 78.2295 18.3955 78.083 18.249C77.9512 18.1025 77.79 17.9561 77.5996 17.8096C77.2627 17.5459 76.7793 17.4141 76.1494 17.4141C75.5342 17.4141 75.0581 17.4653 74.7212 17.5679C74.3989 17.6558 74.1279 17.8389 73.9082 18.1172C73.7031 18.3955 73.542 18.6738 73.4248 18.9521C73.3076 19.2158 73.2197 19.6553 73.1611 20.2705C73.0879 21.0322 73.0513 22.1821 73.0513 23.7202C73.0513 25.2583 73.1099 26.5034 73.2271 27.4556C73.3589 28.4077 73.5127 29.1108 73.6885 29.5649C73.8789 30.019 74.062 30.3779 74.2378 30.6416C74.4282 30.9053 74.582 31.103 74.6992 31.2349C74.8311 31.3521 74.897 31.4546 74.897 31.5425C74.897 31.6157 74.8311 31.7256 74.6992 31.8721C74.582 32.0186 74.4355 32.2456 74.2598 32.5532C74.084 32.8608 73.9082 33.249 73.7324 33.7178C73.293 34.8311 73.0732 36.3691 73.0732 38.332ZM79.3135 51.9551C79.4014 51.7061 79.5991 51.4424 79.9067 51.1641C80.2144 50.8857 80.6538 50.7466 81.2251 50.7466C81.811 50.7466 82.5874 50.959 83.5542 51.3838C83.5542 50.7979 83.7153 50.1753 84.0376 49.5161C84.6528 48.2271 85.5244 47.5825 86.6523 47.5825C86.916 47.5825 87.1504 47.6338 87.3555 47.7363C87.0039 48.2344 86.8281 48.7983 86.8281 49.4282L87.1797 52.1528C87.1797 53.9985 86.5205 55.4561 85.2021 56.5254C83.8984 57.6094 82.353 58.1514 80.5659 58.1514C78.9253 58.1514 77.4824 57.5361 76.2373 56.3057C74.9189 54.9727 74.2598 53.0464 74.2598 50.5269C74.2598 50.3657 74.2671 50.1753 74.2817 49.9556C69.9604 49.5894 67.2871 47.4946 66.2617 43.6714C65.8955 42.2944 65.7124 40.8369 65.7124 39.2988C65.7124 37.7607 65.6172 36.5376 65.4268 35.6294C65.2363 34.7212 65.0093 34.0327 64.7456 33.564C64.4819 33.0952 64.2183 32.7217 63.9546 32.4434C63.6909 32.1504 63.4639 31.938 63.2734 31.8062C63.083 31.6743 62.9878 31.5791 62.9878 31.5205C62.9878 31.4619 63.083 31.374 63.2734 31.2568C63.4639 31.125 63.6909 30.9272 63.9546 30.6636C64.2183 30.3853 64.4819 30.019 64.7456 29.5649C65.3901 28.4517 65.7124 26.9136 65.7124 24.9507C65.7124 22.9878 65.8076 21.4204 65.998 20.2485C66.2031 19.062 66.5107 18.0659 66.9209 17.2603C67.3311 16.4399 67.8071 15.7588 68.3491 15.2168C68.9058 14.6748 69.5869 14.2573 70.3926 13.9644C71.1982 13.6567 72.0332 13.4443 72.8975 13.3271C73.7764 13.21 74.7944 13.1514 75.9517 13.1514C77.1089 13.1514 78.1196 13.21 78.9839 13.3271C79.8481 13.4443 80.6831 13.6567 81.4888 13.9644C82.2944 14.2573 82.9683 14.6748 83.5103 15.2168C84.0522 15.7588 84.5283 16.4326 84.9385 17.2383C85.7441 18.8496 86.147 21.2153 86.147 24.3354C86.147 27.7485 86.8721 30.0557 88.3223 31.2568C88.4834 31.3887 88.564 31.4839 88.564 31.5425C88.564 31.5864 88.4614 31.689 88.2563 31.8501C88.0659 31.9966 87.8755 32.1797 87.6851 32.3994C87.5093 32.6045 87.2822 32.9561 87.0039 33.4541C86.4326 34.4941 86.147 36.2593 86.147 38.7495C86.147 43.6567 84.8359 46.9307 82.2139 48.5713C80.8223 49.4355 79.0059 49.9116 76.7646 49.9995C76.7061 50.3804 76.6768 50.7539 76.6768 51.1201C76.6768 52.4531 76.9917 53.4712 77.6216 54.1743C78.2661 54.8774 78.918 55.229 79.5771 55.229C80.2363 55.229 80.7124 55.0972 81.0054 54.8335C81.313 54.5698 81.4668 54.2622 81.4668 53.9106C81.4668 53.5737 81.3203 53.2881 81.0273 53.0537C80.749 52.8193 80.4414 52.7021 80.1045 52.7021C79.7822 52.7021 79.4893 52.7168 79.2256 52.7461C79.2109 52.7461 79.2036 52.6729 79.2036 52.5264C79.2036 52.3945 79.2402 52.2041 79.3135 51.9551Z" fill="#E22301"/>
</svg>
