<svg width="213" height="86" viewBox="0 0 213 86" fill="none" xmlns="http://www.w3.org/2000/svg">
<path d="M1.85234 0.0798768L210.853 0C211.877 0 212.705 0.741794 212.705 1.65478L213 63.3153C213 64.2396 212.172 64.9814 211.148 64.9814L131.423 65.0499C130.932 65.0499 130.455 65.2211 130.118 65.5407L108.016 85.5121C107.3 86.1626 106.121 86.1626 105.391 85.5121L83.1343 65.4722C82.7835 65.164 82.3203 64.9814 81.8291 64.9814H2.02074C0.996295 64.9814 0.168395 64.2397 0.168395 63.3267L0 1.73467C0 0.810276 0.8279 0.0684708 1.85234 0.0684708V0.0798768Z" fill="white"/>
<path d="M25.7217 40.2983C25.7217 38.3794 25.2456 36.8047 24.2935 35.5742C23.3413 34.3291 22.0742 33.7065 20.4922 33.7065C20.0674 33.7065 19.5913 33.7725 19.064 33.9043C18.5366 34.0361 18.2363 34.1021 18.1631 34.1021L17.9873 34.0581C17.8408 33.9849 17.709 33.7725 17.5918 33.4209C17.2549 32.2783 16.6543 31.3628 15.79 30.6743C12.9775 28.4038 11.5713 25.3862 11.5713 21.6216C11.5713 18.5894 12.5601 16.2529 14.5376 14.6123C16.5298 12.9717 19.2837 12.1514 22.7993 12.1514C24.3374 12.1514 25.6851 12.4443 26.8423 13.0303C28.0142 13.6162 28.915 14.1875 29.5449 14.7441C30.9658 16.0186 31.6763 17.6738 31.6763 19.71C31.6763 20.3838 31.5005 21.2847 31.1489 22.4126C30.7974 23.5405 30.6216 24.2217 30.6216 24.4561C30.6216 25.335 30.9878 26.1772 31.7202 26.9829C31.4565 26.895 31.083 26.8511 30.5996 26.8511C30.1162 26.8511 29.6548 26.7266 29.2153 26.4775C28.7905 26.2285 28.4536 25.9209 28.2046 25.5547C27.7212 24.8662 27.3623 24.0825 27.1279 23.2036C27.0254 23.3647 26.6519 23.5332 26.0073 23.709C25.3628 23.8701 24.8135 23.9507 24.3594 23.9507C23.9199 23.9507 23.5317 23.8921 23.1948 23.7749C22.8579 23.6431 22.6089 23.5112 22.4478 23.3794C22.3013 23.2329 22.1914 23.0498 22.1182 22.8301C22.0156 22.5811 21.9644 22.3613 21.9644 22.1709C22.8726 22.127 23.6636 21.8926 24.3374 21.4678C25.0259 21.043 25.3701 20.3618 25.3701 19.4243C25.3701 18.4722 25.0845 17.7324 24.5132 17.2051C23.9565 16.6777 23.3267 16.4141 22.6235 16.4141C20.3237 16.4141 19.1738 17.791 19.1738 20.5449C19.1738 22.874 19.7671 24.6099 20.9536 25.7524C21.5688 26.353 22.1987 26.6533 22.8433 26.6533C23.4878 26.6533 24.1616 26.5581 24.8647 26.3677C25.5679 26.1626 25.9707 26.0601 26.0732 26.0601C26.1904 26.0601 26.3149 26.2505 26.4468 26.6313C26.9009 27.9351 27.4648 28.814 28.1387 29.2681C29.7354 30.3228 31.0024 31.6777 31.9399 33.333C32.8774 34.9883 33.3462 36.7534 33.3462 38.6284C33.3462 40.5034 33.0166 42.0928 32.3574 43.3965C31.6982 44.7002 30.8267 45.7549 29.7427 46.5605C27.5161 48.2158 24.938 49.0435 22.0083 49.0435C19.2983 49.0435 16.9766 48.3257 15.043 46.8901C14.1055 46.187 13.3511 45.2788 12.7798 44.1655C12.2231 43.0376 11.9448 41.9683 11.9448 40.9575C11.9448 39.9468 12.1353 38.8921 12.5161 37.7935C12.9116 36.6802 13.1094 35.8232 13.1094 35.2227C13.1094 34.6074 12.8604 33.9629 12.3623 33.2891C12.5674 33.1426 12.8384 33.0693 13.1753 33.0693C14.0835 33.0693 14.8818 33.5234 15.5703 34.4316C16.2734 35.3252 16.6323 36.2407 16.647 37.1782C17.6138 36.6655 18.4561 36.4092 19.1738 36.4092C19.8916 36.4092 20.4263 36.4824 20.7778 36.6289C21.1294 36.7607 21.3784 36.9365 21.5249 37.1562C21.7739 37.5078 21.8984 37.8301 21.8984 38.123V38.2988C21.0488 38.4014 20.3018 38.7603 19.6572 39.3755C19.0273 39.9761 18.7124 40.7451 18.7124 41.6826C18.7124 42.6201 19.0127 43.3159 19.6133 43.77C20.2139 44.2241 20.9683 44.4512 21.8765 44.4512C22.7993 44.4512 23.6709 44.0923 24.4912 43.3745C25.3115 42.6421 25.7217 41.6167 25.7217 40.2983ZM44.1567 46.9561C44.479 50.1494 45.3726 52.8887 46.8374 55.1738C46.8374 55.6865 46.4272 56.0674 45.6069 56.3164C45.2993 56.4189 44.8672 56.4702 44.3105 56.4702C43.7686 56.4702 43.1973 56.2725 42.5967 55.877C41.9961 55.4961 41.5566 55.1152 41.2783 54.7344L40.8828 54.1631C40.8096 54.3096 40.6265 54.5439 40.3335 54.8662C40.0552 55.2031 39.7842 55.4668 39.5205 55.6572C38.8027 56.1992 38.1436 56.4702 37.543 56.4702C36.9424 56.4702 36.481 56.4263 36.1587 56.3384C35.8511 56.2505 35.624 56.1406 35.4775 56.0088C35.1846 55.7598 35.0088 55.4814 34.9502 55.1738C35.9463 53.958 36.6348 52.6104 37.0156 51.1309C37.4111 49.666 37.6089 47.6006 37.6089 44.9346V39.3535C37.6089 37.7129 37.4551 36.5776 37.1475 35.9478C36.8545 35.3032 36.5981 34.8491 36.3784 34.5854C36.1587 34.3071 35.9609 34.1094 35.7852 33.9922C35.3604 33.7139 35.1479 33.5454 35.1479 33.4868C35.1479 33.4282 35.2285 33.3477 35.3896 33.2451C35.5508 33.1426 35.7485 32.9814 35.9829 32.7617C36.2173 32.542 36.4517 32.249 36.686 31.8828C37.2427 31.0332 37.5503 29.7222 37.6089 27.9497C37.5942 25.7964 37.3892 24.1191 36.9937 22.918C36.6128 21.7021 35.9316 20.5815 34.9502 19.5562C34.9502 19.0288 35.3604 18.6406 36.1807 18.3916C36.4883 18.2891 36.8472 18.2378 37.2573 18.2378C38.7808 18.2378 40.187 19.3438 41.4761 21.5557C42.4282 20.4717 43.5195 19.644 44.75 19.0728C45.9805 18.4868 47.1816 18.1938 48.3535 18.1938C49.5254 18.1938 50.5874 18.3916 51.5396 18.7871C52.5063 19.168 53.3779 19.7319 54.1543 20.479C55.8096 22.0903 56.6372 24.4561 56.6372 27.5762C56.6372 30.1689 57.106 31.9121 58.0435 32.8057C58.1753 32.9229 58.3291 33.0547 58.5049 33.2012C58.6953 33.3477 58.8052 33.4355 58.8345 33.4648C58.8345 33.5234 58.7539 33.6113 58.5928 33.7285C58.4463 33.8311 58.2632 33.9995 58.0435 34.2339C57.8384 34.4536 57.626 34.7539 57.4062 35.1348C56.8936 36.043 56.6372 37.354 56.6372 39.0679C56.6372 40.7671 56.4175 42.2173 55.978 43.4185C55.5532 44.6196 54.9746 45.5791 54.2422 46.2969C52.7334 47.791 51.0195 48.5381 49.1006 48.5381C47.1816 48.5381 45.5337 48.0107 44.1567 46.9561ZM44.3105 27.5762C44.3105 30.2861 44.8672 32.1611 45.9805 33.2012C46.1123 33.333 46.1782 33.4282 46.1782 33.4868C46.1782 33.5454 46.0757 33.6699 45.8706 33.8604C45.6802 34.0361 45.4678 34.2705 45.2334 34.5635C44.999 34.8418 44.7793 35.3984 44.5742 36.2334C44.3838 37.0684 44.2886 38.1084 44.2886 39.3535C44.2886 42.8252 45.2334 44.561 47.123 44.561C49.0273 44.561 49.9795 42.8252 49.9795 39.3535C49.9795 36.4971 49.4082 34.6221 48.2656 33.7285C48.1338 33.626 48.0679 33.5527 48.0679 33.5088C48.0825 33.4502 48.1851 33.3403 48.3755 33.1792C48.5806 33.0034 48.7563 32.813 48.9028 32.6079C49.0493 32.3882 49.2178 32.0879 49.4082 31.707C49.7891 30.8721 49.9795 29.5684 49.9795 27.7959C49.9795 24.0312 49.0127 22.1489 47.0791 22.1489C45.2334 22.1489 44.3105 23.958 44.3105 27.5762ZM78.0605 38.189C78.0605 37.9253 78.1924 37.7202 78.4561 37.5737C78.7344 37.4272 79.0933 37.354 79.5327 37.354C79.9868 37.354 80.397 37.4346 80.7632 37.5957C81.144 37.7568 81.3345 37.9766 81.3345 38.2549C81.3345 42.9863 79.9502 46.1064 77.1816 47.6152C76.2734 48.1133 75.4312 48.3916 74.6548 48.4502C73.8931 48.5088 73.2925 48.5381 72.853 48.5381C70.0991 48.5381 67.8872 47.6958 66.2173 46.0112C64.5474 44.312 63.5586 41.7485 63.251 38.3208C63.0752 36.1821 62.3135 34.688 60.9658 33.8384C60.7021 33.6772 60.5557 33.582 60.5264 33.5527C60.5264 33.5088 60.6216 33.4429 60.812 33.355C61.0024 33.2524 61.2295 33.106 61.4932 32.9155C61.7568 32.7104 62.0205 32.4468 62.2842 32.1245C62.9287 31.3335 63.251 30.1689 63.251 28.6309C63.251 21.6582 66.3052 18.1719 72.4136 18.1719C75.314 18.1719 77.5112 19.1094 79.0054 20.9844C80.2944 22.5957 80.939 24.9321 80.939 27.9937C80.939 29.8979 80.9976 31.0991 81.1147 31.5972C81.2466 32.0952 81.415 32.52 81.6201 32.8716C81.8398 33.2231 81.979 33.4575 82.0376 33.5747C81.4663 34.2339 80.8438 34.5635 80.1699 34.5635C79.9355 34.5635 79.7158 34.5195 79.5107 34.4316C78.3389 33.8164 76.7642 33.5088 74.7866 33.5088C72.8091 33.5088 71.4468 33.6479 70.6997 33.9263C70.0991 34.7026 69.7988 36.1089 69.7988 38.145C69.7988 40.1812 70.165 41.7632 70.8975 42.8911C71.6445 44.0044 72.7212 44.561 74.1274 44.561C75.5337 44.561 76.5371 44.0337 77.1377 42.979C77.7529 41.9243 78.0605 40.3276 78.0605 38.189ZM74.8965 29.8394L74.9404 27.0269C74.9404 23.7749 74.2153 22.1489 72.7651 22.1489C71.769 22.1489 71.0366 22.4199 70.5679 22.9619C70.2163 23.3721 70.0259 23.9727 69.9966 24.7637C69.9673 25.54 69.9526 26.6313 69.9526 28.0376C69.9526 29.4292 70.1064 30.5059 70.4141 31.2676C71.5713 31.2236 72.604 31.0698 73.5122 30.8062C74.4351 30.5278 74.8965 30.2056 74.8965 29.8394ZM98.9346 44.6489C98.5244 46.1284 97.7261 47.1611 96.5396 47.7471C95.9829 48.0254 95.4189 48.2231 94.8477 48.3403C94.2764 48.4722 93.5366 48.5381 92.6284 48.5381C91.7202 48.5381 90.7681 48.3477 89.772 47.9668C89.1567 47.7324 88.6074 47.4248 88.124 47.0439C87.6553 46.6631 87.2231 46.1357 86.8276 45.4619C86.4321 44.7734 86.1538 43.9971 85.9927 43.1328C85.8315 42.2539 85.3408 41.3164 84.5205 40.3203C84.2568 40.0127 84.125 39.8223 84.125 39.749C84.125 39.6758 84.3813 39.3462 84.894 38.7603C85.4214 38.1597 85.751 37.5518 85.8828 36.9365C86.3076 34.959 87.2744 33.5674 88.7832 32.7617C89.4424 32.3955 90.1528 32.0879 90.9146 31.8389C91.6763 31.5898 92.4087 31.3628 93.1118 31.1577C93.8296 30.9526 94.4814 30.7109 95.0674 30.4326C95.6533 30.1396 96.1221 29.7222 96.4736 29.1802C96.8252 28.6235 97.001 27.8179 97.001 26.7632C97.001 25.6938 96.9644 24.7051 96.8911 23.7969C96.8472 23.2402 96.7666 22.8154 96.6494 22.5225C96.5469 22.2295 96.4077 21.9438 96.2319 21.6655C96.0562 21.3872 95.8291 21.1968 95.5508 21.0942C95.2725 20.9771 94.8843 20.9185 94.3862 20.9185C93.8882 20.9185 93.4561 21.1309 93.0898 21.5557C92.7236 21.9805 92.5405 22.5151 92.5405 23.1597C92.5405 23.8042 92.7603 24.5879 93.1997 25.5107C93.6538 26.4189 94.269 26.9683 95.0454 27.1587C94.6499 28.0962 93.9907 28.5649 93.0679 28.5649C92.1597 28.5649 91.3174 28.2646 90.541 27.6641C90.6143 27.7373 90.4531 28.0962 90.0576 28.7407C89.8818 29.0337 89.6694 29.3267 89.4204 29.6196C89.1714 29.9126 88.8491 30.1616 88.4536 30.3667C88.0581 30.5718 87.6553 30.6743 87.2451 30.6743C86.835 30.6743 86.542 30.5645 86.3662 30.3447C87.1279 29.583 87.5088 28.8652 87.5088 28.1914C87.5088 27.9424 87.4062 27.415 87.2012 26.6094C86.9961 25.7891 86.8936 25.1812 86.8936 24.7856C86.8936 22.9985 87.5747 21.5557 88.937 20.457C89.5376 19.959 90.3726 19.4536 91.4419 18.9409C92.5112 18.4282 93.7417 18.1719 95.1333 18.1719C100.978 18.1719 103.9 21.3652 103.9 27.752C103.9 29.29 104.193 30.667 104.779 31.8828C105.058 32.4395 105.673 32.9961 106.625 33.5527C106.625 33.6113 106.537 33.6992 106.361 33.8164C106.2 33.9336 105.995 34.124 105.746 34.3877C105.497 34.6367 105.248 34.959 104.999 35.3545C104.75 35.75 104.538 36.3213 104.362 37.0684C104.201 37.8154 104.12 38.9141 104.12 40.3643C104.12 41.8145 104.311 43.0889 104.691 44.1875C105.072 45.2715 105.629 46.2017 106.361 46.978C106.229 47.2271 105.951 47.4688 105.526 47.7031C105.321 47.8057 105.028 47.8936 104.647 47.9668C104.281 48.0547 103.849 48.0986 103.351 48.0986C102.868 48.0986 102.377 47.9741 101.879 47.7251C100.634 47.1099 99.6523 46.0845 98.9346 44.6489ZM92.189 40.1006C92.189 43.3965 92.8848 45.0444 94.2764 45.0444C94.8623 45.0444 95.3018 44.9346 95.5947 44.7148C95.7705 44.5977 95.9243 44.4805 96.0562 44.3633C96.188 44.2461 96.2979 44.063 96.3857 43.814C96.4883 43.5649 96.6128 43.25 96.7593 42.8691C96.9204 42.4883 97.001 41.2505 97.001 39.1558C97.001 39.1558 97.001 37.8887 97.001 35.3545C97.001 33.1133 97.0083 31.9927 97.0229 31.9927C96.6421 32.3882 96.0342 32.9009 95.1992 33.5308C94.3643 34.1606 93.6978 34.7979 93.1997 35.4424C92.5259 36.3066 92.189 37.6982 92.189 39.6172V40.1006ZM114.931 12.5029C116.117 10.9209 117.355 10.1299 118.644 10.1299C119.948 10.1299 120.702 10.5327 120.907 11.3384C119.765 12.9204 118.974 14.5171 118.534 16.1284C118.109 17.7397 117.897 20.0615 117.897 23.0938C117.897 26.1113 117.956 28.8652 118.073 31.3555C118.424 31.4434 118.842 31.4873 119.325 31.4873C120.248 31.4873 121.215 31.4214 122.226 31.2896L122.731 31.2236C122.848 30.6084 122.987 29.6709 123.148 28.4111C123.324 27.1514 123.471 26.126 123.588 25.335C123.925 23.2549 124.584 21.3506 125.565 19.6221C125.756 19.0361 126.093 18.6113 126.576 18.3477C126.767 18.2451 127.023 18.1938 127.345 18.1938C127.682 18.1938 128.034 18.3696 128.4 18.7212C128.781 19.0728 129.052 19.4243 129.213 19.7759L129.433 20.3032C129.887 19.7612 130.429 19.2778 131.059 18.853C131.703 18.4136 132.318 18.1938 132.904 18.1938C133.49 18.1938 133.996 18.2744 134.42 18.4355C134.845 18.582 135.102 18.7285 135.189 18.875C135.292 19.0215 135.351 19.1753 135.365 19.3364C133.256 20.2886 131.74 22.0977 130.817 24.7637C130.597 25.3936 130.436 26.1699 130.333 27.0928C130.231 28.0156 129.997 28.9312 129.63 29.8394C129.264 30.7476 128.876 31.3921 128.466 31.7729C128.056 32.1392 127.653 32.4175 127.257 32.6079C126.876 32.7983 126.554 32.9448 126.291 33.0474C126.042 33.1353 125.917 33.2524 125.917 33.3989C125.917 33.5308 126.005 33.6553 126.181 33.7725C126.356 33.875 126.576 33.9775 126.84 34.0801C127.118 34.168 127.426 34.3584 127.763 34.6514C128.114 34.9297 128.451 35.2812 128.773 35.7061C129.535 36.6729 130.077 38.3062 130.399 40.606C130.634 42.0854 131.366 43.5576 132.597 45.0225C133.329 45.916 134.179 46.5679 135.146 46.978C135.043 47.7397 134.164 48.1206 132.509 48.1206C132.04 48.1206 131.527 47.9448 130.971 47.5933C130.429 47.2417 130.004 46.8901 129.696 46.5386L129.213 46.0112C129.008 46.8022 128.524 47.4248 127.763 47.8789C127.514 48.04 127.221 48.1206 126.884 48.1206C126.547 48.1206 126.247 48.0107 125.983 47.791C125.719 47.5713 125.521 47.2417 125.39 46.8022C125.067 46.2456 124.562 44.5464 123.874 41.7046C123.185 38.8628 122.812 36.7681 122.753 35.4204C122.255 35.2153 121.442 35.1128 120.314 35.1128C119.201 35.1128 118.468 35.0835 118.117 35.0249L117.897 39.771C117.897 41.6167 118.109 43.0449 118.534 44.0557C118.974 45.0664 119.765 46.0259 120.907 46.9341C120.512 47.7251 119.684 48.1206 118.424 48.1206C117.165 48.1206 116 47.3369 114.931 45.7695C113.759 47.3369 112.55 48.1206 111.305 48.1206C110.412 48.1206 109.833 47.9961 109.569 47.7471C109.218 47.4102 109.013 47.1392 108.954 46.9341C109.994 46.0112 110.712 45.0518 111.107 44.0557C111.503 43.0449 111.701 41.8291 111.701 40.4082C111.701 38.9873 111.613 37.896 111.437 37.1343C111.276 36.3579 111.071 35.772 110.822 35.3765C110.587 34.981 110.346 34.6587 110.097 34.4097C109.862 34.1606 109.657 33.9775 109.481 33.8604C109.32 33.7285 109.24 33.5894 109.24 33.4429C109.24 33.2964 109.32 33.1206 109.481 32.9155C109.657 32.7104 109.862 32.4321 110.097 32.0806C110.346 31.7144 110.595 31.2236 110.844 30.6084C111.415 29.1582 111.701 26.7852 111.701 23.4893C111.701 20.1934 111.503 17.7031 111.107 16.0186C110.712 14.3193 109.987 12.7666 108.932 11.3604C109.342 10.54 110.133 10.1299 111.305 10.1299C112.111 10.1299 112.748 10.3276 113.217 10.7231C114.008 11.3823 114.579 11.9756 114.931 12.5029ZM153.427 38.189C153.427 37.9253 153.559 37.7202 153.822 37.5737C154.101 37.4272 154.459 37.354 154.899 37.354C155.353 37.354 155.763 37.4346 156.129 37.5957C156.51 37.7568 156.701 37.9766 156.701 38.2549C156.701 42.9863 155.316 46.1064 152.548 47.6152C151.64 48.1133 150.797 48.3916 150.021 48.4502C149.259 48.5088 148.659 48.5381 148.219 48.5381C145.465 48.5381 143.253 47.6958 141.583 46.0112C139.914 44.312 138.925 41.7485 138.617 38.3208C138.441 36.1821 137.68 34.688 136.332 33.8384C136.068 33.6772 135.922 33.582 135.893 33.5527C135.893 33.5088 135.988 33.4429 136.178 33.355C136.369 33.2524 136.596 33.106 136.859 32.9155C137.123 32.7104 137.387 32.4468 137.65 32.1245C138.295 31.3335 138.617 30.1689 138.617 28.6309C138.617 21.6582 141.671 18.1719 147.78 18.1719C150.68 18.1719 152.877 19.1094 154.372 20.9844C155.661 22.5957 156.305 24.9321 156.305 27.9937C156.305 29.8979 156.364 31.0991 156.481 31.5972C156.613 32.0952 156.781 32.52 156.986 32.8716C157.206 33.2231 157.345 33.4575 157.404 33.5747C156.833 34.2339 156.21 34.5635 155.536 34.5635C155.302 34.5635 155.082 34.5195 154.877 34.4316C153.705 33.8164 152.13 33.5088 150.153 33.5088C148.175 33.5088 146.813 33.6479 146.066 33.9263C145.465 34.7026 145.165 36.1089 145.165 38.145C145.165 40.1812 145.531 41.7632 146.264 42.8911C147.011 44.0044 148.087 44.561 149.494 44.561C150.9 44.561 151.903 44.0337 152.504 42.979C153.119 41.9243 153.427 40.3276 153.427 38.189ZM150.263 29.8394L150.307 27.0269C150.307 23.7749 149.582 22.1489 148.131 22.1489C147.135 22.1489 146.403 22.4199 145.934 22.9619C145.583 23.3721 145.392 23.9727 145.363 24.7637C145.333 25.54 145.319 26.6313 145.319 28.0376C145.319 29.4292 145.473 30.5059 145.78 31.2676C146.938 31.2236 147.97 31.0698 148.878 30.8062C149.801 30.5278 150.263 30.2056 150.263 29.8394ZM177.992 30.5205L177.399 30.7183C176.198 30.7183 175.333 30.0811 174.806 28.8066C174.586 28.2939 174.477 27.9277 174.477 27.708V27.686C173.92 27.9937 173.385 28.1475 172.873 28.1475C172.375 28.1475 171.964 28.0815 171.642 27.9497C171.334 27.8179 171.107 27.6641 170.961 27.4883C170.653 27.0928 170.463 26.6826 170.39 26.2578C170.463 26.2725 170.58 26.2798 170.741 26.2798C171.576 26.2798 172.265 25.9648 172.807 25.335C173.363 24.7051 173.642 24.1265 173.642 23.5991C173.642 23.0571 173.583 22.6396 173.466 22.3467C173.363 22.0537 173.217 21.8047 173.026 21.5996C172.631 21.1602 172.213 20.9404 171.774 20.9404C171.334 20.9404 170.961 21.043 170.653 21.248C170.346 21.4531 170.053 21.7607 169.774 22.1709C169.188 23.0938 168.896 24.5366 168.896 26.4995C168.896 28.0522 169.071 29.3047 169.423 30.2568C169.789 31.1943 170.089 31.8828 170.324 32.3223C170.778 33.2012 171.093 33.6406 171.269 33.6406L170.829 34.0361C170.551 34.2998 170.287 34.6001 170.038 34.937C169.789 35.2593 169.547 35.8306 169.313 36.6509C169.093 37.4565 168.983 38.6064 168.983 40.1006C168.983 41.5947 169.181 42.8691 169.577 43.9238C169.972 44.9785 170.69 45.9819 171.73 46.9341C171.627 47.2271 171.371 47.498 170.961 47.7471C170.565 47.9961 170.119 48.1206 169.621 48.1206C168.156 48.1206 166.779 47.3369 165.49 45.7695C164.318 47.3369 163.117 48.1206 161.886 48.1206C161.3 48.1206 160.817 48.0327 160.436 47.8569C159.938 47.6226 159.63 47.3149 159.513 46.9341C160.539 45.9819 161.256 44.9712 161.667 43.9019C162.077 42.8325 162.282 41.6021 162.282 40.2104C162.282 38.8042 162.223 37.7642 162.106 37.0903C162.003 36.4019 161.842 35.8525 161.623 35.4424C161.417 35.0322 161.234 34.7246 161.073 34.5195C160.927 34.2998 160.729 34.0947 160.48 33.9043C160.231 33.7139 160.099 33.6113 160.084 33.5967C160.084 33.5527 160.158 33.4795 160.304 33.377C160.465 33.2598 160.648 33.084 160.854 32.8496C161.073 32.6152 161.293 32.3076 161.513 31.9268C162.025 31.0186 162.282 29.605 162.282 27.686C162.282 25.7671 162.062 24.2363 161.623 23.0938C161.183 21.9512 160.392 20.8599 159.25 19.8198C159.63 19.0581 160.561 18.6772 162.04 18.6772C163.534 18.6772 164.948 19.8052 166.281 22.061C168.229 19.4976 170.463 18.2158 172.982 18.2158C176.029 18.2158 177.897 19.3438 178.585 21.5996C178.776 22.2148 178.871 22.896 178.871 23.6431C178.871 25.2837 178.336 26.9609 177.267 28.6748C177.223 28.7627 177.201 28.8579 177.201 28.9604C177.201 29.063 177.216 29.1582 177.245 29.2461C177.274 29.334 177.318 29.4365 177.377 29.5537C177.436 29.6562 177.487 29.7515 177.531 29.8394C177.589 29.9126 177.67 30.0298 177.772 30.1909C177.875 30.3374 177.948 30.4473 177.992 30.5205ZM180.189 41.1113L180.431 38.5186C180.431 37.5957 180.124 36.79 179.508 36.1016C179.728 35.8965 179.977 35.7939 180.255 35.7939C180.534 35.7939 180.819 35.8379 181.112 35.9258C181.42 35.999 181.75 36.1675 182.101 36.4312C182.453 36.6948 182.731 36.9658 182.936 37.2441C183.141 37.5225 183.31 37.8081 183.441 38.1011C183.69 38.6138 183.815 38.958 183.815 39.1338C184.679 38.4453 185.419 38.1011 186.034 38.1011C186.664 38.1011 187.125 38.1597 187.418 38.2769C187.711 38.394 187.917 38.5479 188.034 38.7383C188.239 39.0459 188.341 39.2949 188.341 39.4854V39.5513C187.711 39.6831 187.169 39.9614 186.715 40.3862C186.261 40.7964 186.034 41.397 186.034 42.188C186.034 42.9644 186.312 43.5723 186.869 44.0117C187.44 44.4365 188.1 44.6489 188.847 44.6489C189.594 44.6489 190.194 44.5464 190.648 44.3413C191.117 44.1216 191.469 43.8433 191.703 43.5063C192.157 42.8472 192.384 42.2026 192.384 41.5728C192.384 40.0054 191.959 38.7603 191.11 37.8374C190.275 36.8999 189.308 36.4312 188.209 36.4312C187.829 36.4312 187.396 36.4897 186.913 36.6069C186.43 36.7241 186.159 36.7827 186.1 36.7827C186.056 36.7827 185.983 36.7607 185.88 36.7168C185.792 36.6582 185.697 36.4678 185.595 36.1455C185.272 35.1201 184.723 34.2925 183.947 33.6626C181.471 31.9048 180.233 29.6343 180.233 26.8511C180.233 24.0532 181.061 21.9146 182.716 20.4351C184.386 18.9409 186.642 18.1938 189.484 18.1938C190.919 18.1938 192.179 18.4282 193.263 18.897C194.347 19.3511 195.197 19.8271 195.812 20.3252C197.218 21.4678 197.921 23.0278 197.921 25.0054L197.416 27.8398C197.416 28.6309 197.731 29.3486 198.361 29.9932C198.156 30.1836 197.848 30.2788 197.438 30.2788C197.028 30.2788 196.632 30.1763 196.251 29.9712C195.871 29.7515 195.556 29.4951 195.307 29.2021C195.058 28.9092 194.838 28.6016 194.647 28.2793C194.296 27.708 194.12 27.3345 194.12 27.1587C193.197 27.7739 192.45 28.0815 191.879 28.0815C191.308 28.0815 190.883 28.0303 190.604 27.9277C190.341 27.8105 190.15 27.6641 190.033 27.4883C189.857 27.1953 189.77 26.9316 189.77 26.6973C190.604 26.5947 191.3 26.3384 191.857 25.9282C192.428 25.5181 192.714 24.9614 192.714 24.2583C192.714 23.5552 192.443 23.0352 191.901 22.6982C191.374 22.3613 190.707 22.1929 189.901 22.1929C187.953 22.1929 186.979 23.2988 186.979 25.5107C186.979 27.7227 187.807 29.1948 189.462 29.9272C189.623 30.0005 189.865 30.0371 190.187 30.0371C190.524 30.0371 191.007 29.9785 191.637 29.8613C192.267 29.7441 192.626 29.6855 192.714 29.6855C192.816 29.6855 192.919 29.8613 193.021 30.2129C193.402 31.3555 193.908 32.1099 194.538 32.4761C195.915 33.4868 196.962 34.6807 197.68 36.0576C198.412 37.4346 198.778 38.7603 198.778 40.0347C198.778 41.2944 198.566 42.415 198.141 43.3965C197.731 44.3779 197.123 45.2568 196.317 46.0332C194.589 47.7031 192.113 48.5381 188.891 48.5381C186.928 48.5381 185.023 47.9082 183.178 46.6484C182.313 46.0625 181.596 45.2861 181.024 44.3193C180.468 43.3379 180.189 42.2686 180.189 41.1113Z" fill="#E22301"/>
</svg>
