<svg width="166" height="87" viewBox="0 0 166 87" fill="none" xmlns="http://www.w3.org/2000/svg">
<path d="M1.43753 0.079925L163.619 0C164.414 0 165.057 0.742097 165.057 1.65543L165.285 63.3397C165.285 64.2644 164.643 65.0065 163.848 65.0065L101.983 65.075C101.602 65.075 101.231 65.2463 100.97 65.5659L83.8186 85.5451C83.2632 86.1958 82.3485 86.1958 81.7822 85.5451L64.5111 65.4974C64.2388 65.1892 63.8795 65.0065 63.4984 65.0065H1.5682C0.773244 65.0065 0.130672 64.2644 0.130672 63.3511L0 1.73532C0 0.810571 0.642572 0.0684972 1.43753 0.0684972V0.079925Z" fill="white"/>
<path d="M16.0547 21.1055C15.4688 20.959 15.1758 20.4756 15.1758 19.6553C15.1758 18.835 15.5859 18.0806 16.4062 17.3921C16.0547 17.1431 15.7617 16.8208 15.5273 16.4253C15.293 16.0151 15.1758 15.605 15.1758 15.1948C15.1758 14.7847 15.249 14.4551 15.3955 14.2061C15.542 13.9424 15.7617 13.7666 16.0547 13.6787C17.1973 14.3818 18.3472 14.7334 19.5044 14.7334C19.9585 14.7334 20.5664 14.5576 21.3281 14.2061C22.1045 13.8545 22.6831 13.6787 23.064 13.6787C24.0015 13.6787 24.8218 14.2793 25.5249 15.4805C26.2134 14.2793 27.019 13.6787 27.9419 13.6787C28.3228 13.6787 28.894 13.8545 29.6558 14.2061C30.4321 14.5576 31.0474 14.7334 31.5015 14.7334C32.6147 14.7334 33.7646 14.3818 34.9512 13.6787C35.3174 13.6787 35.5737 13.957 35.7202 14.5137C35.7788 14.7187 35.8081 14.9897 35.8081 15.3267C35.8081 15.6489 35.6982 15.9932 35.4785 16.3594C35.127 16.9453 34.8193 17.2896 34.5557 17.3921C34.8926 17.5972 35.1855 17.9121 35.4346 18.3369C35.6836 18.7617 35.8081 19.1353 35.8081 19.4575C35.8081 19.7798 35.7788 20.0508 35.7202 20.2705C35.6616 20.4756 35.5957 20.6294 35.5225 20.7319C35.3613 20.9224 35.1709 21.0469 34.9512 21.1055C34.0576 20.0801 32.8271 19.5674 31.2598 19.5674L28.9966 19.6553C28.8208 19.8311 28.7329 20.7979 28.7329 22.5557C28.7329 24.3135 28.8135 25.7197 28.9746 26.7744C29.1357 27.8291 29.3335 28.6128 29.5679 29.1255C29.8169 29.6235 30.0586 30.019 30.293 30.312C30.5273 30.605 30.7251 30.8247 30.8862 30.9712C31.0474 31.1177 31.1279 31.2568 31.1279 31.3887C31.1279 31.5059 31.0693 31.6304 30.9521 31.7622C30.835 31.894 30.6885 32.0259 30.5127 32.1577C30.3369 32.2896 30.1392 32.5386 29.9194 32.9048C29.7144 33.2563 29.5239 33.6885 29.3481 34.2012C28.938 35.4023 28.7329 37.1528 28.7329 39.4526C28.7329 41.7378 28.9233 43.459 29.3042 44.6162C29.6997 45.7734 30.3955 46.8281 31.3916 47.7803C31.3916 48.3076 30.9814 48.7031 30.1611 48.9668C29.8535 49.0547 29.4214 49.0986 28.8647 49.0986C28.3228 49.0986 27.7588 48.8862 27.1729 48.4614C26.5869 48.0366 26.1621 47.6191 25.8984 47.209L25.5249 46.5718C25.1001 47.6265 24.3457 48.3809 23.2617 48.835C22.8223 49.0107 22.3755 49.0986 21.9214 49.0986C21.4819 49.0986 21.1011 49.0547 20.7788 48.9668C20.4712 48.8789 20.2441 48.769 20.0977 48.6372C19.7754 48.3442 19.5923 48.0586 19.5483 47.7803C20.5444 46.8281 21.2329 45.7734 21.6138 44.6162C22.0093 43.4443 22.207 41.9722 22.207 40.1997C22.207 38.4126 22.1265 36.9844 21.9653 35.915C21.8042 34.8311 21.6064 34.0474 21.3721 33.564C21.1377 33.0806 20.896 32.707 20.647 32.4434C20.4126 32.165 20.2148 31.9526 20.0537 31.8062C19.8926 31.6597 19.812 31.5205 19.812 31.3887C19.812 31.2568 19.8926 31.1177 20.0537 30.9712C20.2148 30.8247 20.4126 30.605 20.647 30.312C20.896 30.019 21.1377 29.6162 21.3721 29.1035C21.9287 27.917 22.207 26.1519 22.207 23.8081C22.207 21.4497 22.1191 20.0654 21.9434 19.6553C21.9434 19.5967 21.2988 19.5674 20.0098 19.5674C18.7207 19.5674 17.8418 19.6919 17.373 19.9409C16.9043 20.1753 16.4648 20.5635 16.0547 21.1055ZM55.6055 31.5205L55.0122 31.7183C53.811 31.7183 52.9468 31.0811 52.4194 29.8066C52.1997 29.2939 52.0898 28.9277 52.0898 28.708V28.686C51.5332 28.9937 50.9985 29.1475 50.4858 29.1475C49.9878 29.1475 49.5776 29.0815 49.2554 28.9497C48.9478 28.8179 48.7207 28.6641 48.5742 28.4883C48.2666 28.0928 48.0762 27.6826 48.0029 27.2578C48.0762 27.2725 48.1934 27.2798 48.3545 27.2798C49.1895 27.2798 49.8779 26.9648 50.4199 26.335C50.9766 25.7051 51.2549 25.1265 51.2549 24.5991C51.2549 24.0571 51.1963 23.6396 51.0791 23.3467C50.9766 23.0537 50.8301 22.8047 50.6396 22.5996C50.2441 22.1602 49.8267 21.9404 49.3872 21.9404C48.9478 21.9404 48.5742 22.043 48.2666 22.248C47.959 22.4531 47.666 22.7607 47.3877 23.1709C46.8018 24.0938 46.5088 25.5366 46.5088 27.4995C46.5088 29.0522 46.6846 30.3047 47.0361 31.2568C47.4023 32.1943 47.7026 32.8828 47.937 33.3223C48.3911 34.2012 48.7061 34.6406 48.8818 34.6406L48.4424 35.0361C48.1641 35.2998 47.9004 35.6001 47.6514 35.937C47.4023 36.2593 47.1606 36.8306 46.9263 37.6509C46.7065 38.4565 46.5967 39.6064 46.5967 41.1006C46.5967 42.5947 46.7944 43.8691 47.1899 44.9238C47.5854 45.9785 48.3032 46.9819 49.3433 47.9341C49.2407 48.2271 48.9844 48.498 48.5742 48.7471C48.1787 48.9961 47.7319 49.1206 47.2339 49.1206C45.769 49.1206 44.3921 48.3369 43.103 46.7695C41.9312 48.3369 40.73 49.1206 39.4995 49.1206C38.9136 49.1206 38.4302 49.0327 38.0493 48.8569C37.5513 48.6226 37.2437 48.3149 37.1265 47.9341C38.1519 46.9819 38.8696 45.9712 39.2798 44.9019C39.6899 43.8325 39.895 42.6021 39.895 41.2104C39.895 39.8042 39.8364 38.7642 39.7192 38.0903C39.6167 37.4019 39.4556 36.8525 39.2358 36.4424C39.0308 36.0322 38.8477 35.7246 38.6865 35.5195C38.54 35.2998 38.3423 35.0947 38.0933 34.9043C37.8442 34.7139 37.7124 34.6113 37.6978 34.5967C37.6978 34.5527 37.771 34.4795 37.9175 34.377C38.0786 34.2598 38.2617 34.084 38.4668 33.8496C38.6865 33.6152 38.9062 33.3076 39.126 32.9268C39.6387 32.0186 39.895 30.605 39.895 28.686C39.895 26.7671 39.6753 25.2363 39.2358 24.0938C38.7964 22.9512 38.0054 21.8599 36.8628 20.8198C37.2437 20.0581 38.1738 19.6772 39.6533 19.6772C41.1475 19.6772 42.561 20.8052 43.894 23.061C45.8423 20.4976 48.0762 19.2158 50.5957 19.2158C53.6426 19.2158 55.5103 20.3438 56.1987 22.5996C56.3892 23.2148 56.4844 23.896 56.4844 24.6431C56.4844 26.2837 55.9497 27.9609 54.8804 29.6748C54.8364 29.7627 54.8145 29.8579 54.8145 29.9604C54.8145 30.063 54.8291 30.1582 54.8584 30.2461C54.8877 30.334 54.9316 30.4365 54.9902 30.5537C55.0488 30.6562 55.1001 30.7515 55.144 30.8394C55.2026 30.9126 55.2832 31.0298 55.3857 31.1909C55.4883 31.3374 55.5615 31.4473 55.6055 31.5205ZM72.041 45.6489C71.6309 47.1284 70.8325 48.1611 69.646 48.7471C69.0894 49.0254 68.5254 49.2231 67.9541 49.3403C67.3828 49.4722 66.6431 49.5381 65.7349 49.5381C64.8267 49.5381 63.8745 49.3477 62.8784 48.9668C62.2632 48.7324 61.7139 48.4248 61.2305 48.0439C60.7617 47.6631 60.3296 47.1357 59.9341 46.4619C59.5386 45.7734 59.2603 44.9971 59.0991 44.1328C58.938 43.2539 58.4473 42.3164 57.627 41.3203C57.3633 41.0127 57.2314 40.8223 57.2314 40.749C57.2314 40.6758 57.4878 40.3462 58.0005 39.7603C58.5278 39.1597 58.8574 38.5518 58.9893 37.9365C59.4141 35.959 60.3809 34.5674 61.8896 33.7617C62.5488 33.3955 63.2593 33.0879 64.021 32.8389C64.7827 32.5898 65.5151 32.3628 66.2183 32.1577C66.936 31.9526 67.5879 31.7109 68.1738 31.4326C68.7598 31.1396 69.2285 30.7222 69.5801 30.1802C69.9316 29.6235 70.1074 28.8179 70.1074 27.7632C70.1074 26.6938 70.0708 25.7051 69.9976 24.7969C69.9536 24.2402 69.873 23.8154 69.7559 23.5225C69.6533 23.2295 69.5142 22.9438 69.3384 22.6655C69.1626 22.3872 68.9355 22.1968 68.6572 22.0942C68.3789 21.9771 67.9907 21.9185 67.4927 21.9185C66.9946 21.9185 66.5625 22.1309 66.1963 22.5557C65.8301 22.9805 65.647 23.5151 65.647 24.1597C65.647 24.8042 65.8667 25.5879 66.3062 26.5107C66.7603 27.4189 67.3755 27.9683 68.1519 28.1587C67.7563 29.0962 67.0972 29.5649 66.1743 29.5649C65.2661 29.5649 64.4238 29.2646 63.6475 28.6641C63.7207 28.7373 63.5596 29.0962 63.1641 29.7407C62.9883 30.0337 62.7759 30.3267 62.5269 30.6196C62.2778 30.9126 61.9556 31.1616 61.5601 31.3667C61.1646 31.5718 60.7617 31.6743 60.3516 31.6743C59.9414 31.6743 59.6484 31.5645 59.4727 31.3447C60.2344 30.583 60.6152 29.8652 60.6152 29.1914C60.6152 28.9424 60.5127 28.415 60.3076 27.6094C60.1025 26.7891 60 26.1812 60 25.7856C60 23.9985 60.6812 22.5557 62.0435 21.457C62.644 20.959 63.479 20.4536 64.5483 19.9409C65.6177 19.4282 66.8481 19.1719 68.2397 19.1719C74.0845 19.1719 77.0068 22.3652 77.0068 28.752C77.0068 30.29 77.2998 31.667 77.8857 32.8828C78.1641 33.4395 78.7793 33.9961 79.7314 34.5527C79.7314 34.6113 79.6436 34.6992 79.4678 34.8164C79.3066 34.9336 79.1016 35.124 78.8525 35.3877C78.6035 35.6367 78.3545 35.959 78.1055 36.3545C77.8564 36.75 77.644 37.3213 77.4683 38.0684C77.3071 38.8154 77.2266 39.9141 77.2266 41.3643C77.2266 42.8145 77.417 44.0889 77.7979 45.1875C78.1787 46.2715 78.7354 47.2017 79.4678 47.978C79.3359 48.2271 79.0576 48.4688 78.6328 48.7031C78.4277 48.8057 78.1348 48.8936 77.7539 48.9668C77.3877 49.0547 76.9556 49.0986 76.4575 49.0986C75.9741 49.0986 75.4834 48.9741 74.9854 48.7251C73.7402 48.1099 72.7588 47.0845 72.041 45.6489ZM65.2954 41.1006C65.2954 44.3965 65.9912 46.0444 67.3828 46.0444C67.9688 46.0444 68.4082 45.9346 68.7012 45.7148C68.877 45.5977 69.0308 45.4805 69.1626 45.3633C69.2944 45.2461 69.4043 45.063 69.4922 44.814C69.5947 44.5649 69.7192 44.25 69.8657 43.8691C70.0269 43.4883 70.1074 42.2505 70.1074 40.1558C70.1074 40.1558 70.1074 38.8887 70.1074 36.3545C70.1074 34.1133 70.1147 32.9927 70.1294 32.9927C69.7485 33.3882 69.1406 33.9009 68.3057 34.5308C67.4707 35.1606 66.8042 35.7979 66.3062 36.4424C65.6323 37.3066 65.2954 38.6982 65.2954 40.6172V41.1006ZM101.726 32.5532C101.594 32.9048 101.243 33.0806 100.671 33.0806C100.1 33.0806 99.5215 32.8901 98.9355 32.5093C98.3496 32.1138 97.9102 31.7256 97.6172 31.3447L97.1777 30.7734C96.6064 31.1396 96.0205 31.3228 95.4199 31.3228C94.8193 31.3228 94.3652 31.2861 94.0576 31.2129C93.75 31.125 93.5156 31.0225 93.3545 30.9053C93.1934 30.7881 93.0615 30.6562 92.959 30.5098C92.7979 30.3047 92.7173 30.1216 92.7173 29.9604L92.7393 29.8506C93.5156 29.8506 94.2188 29.3892 94.8486 28.4663C95.4932 27.5288 95.8154 26.6279 95.8154 25.7637C95.8154 24.0205 94.9658 23.1489 93.2666 23.1489C92.3584 23.1489 91.7651 23.332 91.4868 23.6982C91.2231 24.0498 91.0327 24.3501 90.9155 24.5991C90.813 24.8335 90.7324 25.207 90.6738 25.7197C90.6152 26.3936 90.5859 27.3164 90.5859 28.4883C90.5859 29.6602 90.6592 30.6196 90.8057 31.3667C90.9521 32.0991 91.1353 32.6411 91.355 32.9927C91.5747 33.3442 91.7871 33.6226 91.9922 33.8276C92.2119 34.0327 92.395 34.1865 92.5415 34.2891C92.688 34.3916 92.7612 34.4795 92.7612 34.5527C92.7612 34.626 92.688 34.7139 92.5415 34.8164C92.395 34.9043 92.2119 35.0435 91.9922 35.2339C91.7871 35.4243 91.5747 35.688 91.355 36.0249C90.8423 36.8159 90.5859 38.1343 90.5859 39.98C90.5859 41.8257 90.9302 43.2173 91.6187 44.1548C92.3218 45.0776 93.3105 45.5391 94.585 45.5391C95.9766 45.5391 96.9727 45.0264 97.5732 44.001C98.1885 42.9463 98.4961 41.3569 98.4961 39.2329C98.4961 38.9692 98.6499 38.7642 98.9575 38.6177C99.2798 38.4712 99.6753 38.3979 100.144 38.3979C100.627 38.3979 101.052 38.4785 101.418 38.6396C101.799 38.8008 101.99 39.0205 101.99 39.2988C101.99 42.8584 101.162 45.5171 99.5068 47.2749C98.0859 48.7837 96.2329 49.5381 93.9478 49.5381C88.1177 49.5381 84.8071 46.4546 84.0161 40.2876C83.7817 38.3687 83.4888 37.1162 83.1372 36.5303C82.8003 35.9297 82.5439 35.5269 82.3682 35.3218C82.1924 35.1021 82.0459 34.9409 81.9287 34.8384C81.8115 34.7358 81.7529 34.6479 81.7529 34.5747V34.5308C81.7529 34.4575 81.8262 34.3696 81.9727 34.2671C82.1191 34.1646 82.3022 34.0107 82.522 33.8057C82.7417 33.5859 82.9541 33.293 83.1592 32.9268C83.6719 32.0771 83.9282 30.6929 83.9282 28.7739C84.0015 25.7563 84.873 23.4053 86.543 21.7207C88.2129 20.0361 90.4395 19.1938 93.2227 19.1938C94.9805 19.1938 96.7676 19.7358 98.584 20.8198C99.4775 21.3472 100.21 22.0796 100.781 23.0171C101.367 23.9399 101.66 24.8335 101.66 25.6978C101.66 26.562 101.558 27.4995 101.353 28.5103C101.147 29.521 101.045 30.2754 101.045 30.7734C101.045 31.2568 101.272 31.8501 101.726 32.5532ZM110.186 13.5029C111.372 11.9209 112.61 11.1299 113.899 11.1299C115.203 11.1299 115.957 11.5327 116.162 12.3384C115.02 13.9204 114.229 15.5171 113.789 17.1284C113.364 18.7397 113.152 21.0615 113.152 24.0938C113.152 27.1113 113.21 29.8652 113.328 32.3555C113.679 32.4434 114.097 32.4873 114.58 32.4873C115.503 32.4873 116.47 32.4214 117.48 32.2896L117.986 32.2236C118.103 31.6084 118.242 30.6709 118.403 29.4111C118.579 28.1514 118.726 27.126 118.843 26.335C119.18 24.2549 119.839 22.3506 120.82 20.6221C121.011 20.0361 121.348 19.6113 121.831 19.3477C122.021 19.2451 122.278 19.1938 122.6 19.1938C122.937 19.1938 123.289 19.3696 123.655 19.7212C124.036 20.0728 124.307 20.4243 124.468 20.7759L124.688 21.3032C125.142 20.7612 125.684 20.2778 126.313 19.853C126.958 19.4136 127.573 19.1938 128.159 19.1938C128.745 19.1938 129.25 19.2744 129.675 19.4355C130.1 19.582 130.356 19.7285 130.444 19.875C130.547 20.0215 130.605 20.1753 130.62 20.3364C128.511 21.2886 126.995 23.0977 126.072 25.7637C125.852 26.3936 125.691 27.1699 125.588 28.0928C125.486 29.0156 125.251 29.9312 124.885 30.8394C124.519 31.7476 124.131 32.3921 123.721 32.7729C123.311 33.1392 122.908 33.4175 122.512 33.6079C122.131 33.7983 121.809 33.9448 121.545 34.0474C121.296 34.1353 121.172 34.2524 121.172 34.3989C121.172 34.5308 121.26 34.6553 121.436 34.7725C121.611 34.875 121.831 34.9775 122.095 35.0801C122.373 35.168 122.681 35.3584 123.018 35.6514C123.369 35.9297 123.706 36.2812 124.028 36.7061C124.79 37.6729 125.332 39.3062 125.654 41.606C125.889 43.0854 126.621 44.5576 127.852 46.0225C128.584 46.916 129.434 47.5679 130.4 47.978C130.298 48.7397 129.419 49.1206 127.764 49.1206C127.295 49.1206 126.782 48.9448 126.226 48.5933C125.684 48.2417 125.259 47.8901 124.951 47.5386L124.468 47.0112C124.263 47.8022 123.779 48.4248 123.018 48.8789C122.769 49.04 122.476 49.1206 122.139 49.1206C121.802 49.1206 121.501 49.0107 121.238 48.791C120.974 48.5713 120.776 48.2417 120.645 47.8022C120.322 47.2456 119.817 45.5464 119.128 42.7046C118.44 39.8628 118.066 37.7681 118.008 36.4204C117.51 36.2153 116.697 36.1128 115.569 36.1128C114.456 36.1128 113.723 36.0835 113.372 36.0249L113.152 40.771C113.152 42.6167 113.364 44.0449 113.789 45.0557C114.229 46.0664 115.02 47.0259 116.162 47.9341C115.767 48.7251 114.939 49.1206 113.679 49.1206C112.419 49.1206 111.255 48.3369 110.186 46.7695C109.014 48.3369 107.805 49.1206 106.56 49.1206C105.667 49.1206 105.088 48.9961 104.824 48.7471C104.473 48.4102 104.268 48.1392 104.209 47.9341C105.249 47.0112 105.967 46.0518 106.362 45.0557C106.758 44.0449 106.956 42.8291 106.956 41.4082C106.956 39.9873 106.868 38.896 106.692 38.1343C106.531 37.3579 106.326 36.772 106.077 36.3765C105.842 35.981 105.601 35.6587 105.352 35.4097C105.117 35.1606 104.912 34.9775 104.736 34.8604C104.575 34.7285 104.495 34.5894 104.495 34.4429C104.495 34.2964 104.575 34.1206 104.736 33.9155C104.912 33.7104 105.117 33.4321 105.352 33.0806C105.601 32.7144 105.85 32.2236 106.099 31.6084C106.67 30.1582 106.956 27.7852 106.956 24.4893C106.956 21.1934 106.758 18.7031 106.362 17.0186C105.967 15.3193 105.242 13.7666 104.187 12.3604C104.597 11.54 105.388 11.1299 106.56 11.1299C107.366 11.1299 108.003 11.3276 108.472 11.7231C109.263 12.3823 109.834 12.9756 110.186 13.5029ZM132.158 42.1113L132.4 39.5186C132.4 38.5957 132.092 37.79 131.477 37.1016C131.697 36.8965 131.946 36.7939 132.224 36.7939C132.502 36.7939 132.788 36.8379 133.081 36.9258C133.389 36.999 133.718 37.1675 134.07 37.4312C134.421 37.6948 134.7 37.9658 134.905 38.2441C135.11 38.5225 135.278 38.8081 135.41 39.1011C135.659 39.6138 135.784 39.958 135.784 40.1338C136.648 39.4453 137.388 39.1011 138.003 39.1011C138.633 39.1011 139.094 39.1597 139.387 39.2769C139.68 39.394 139.885 39.5479 140.002 39.7383C140.208 40.0459 140.31 40.2949 140.31 40.4854V40.5513C139.68 40.6831 139.138 40.9614 138.684 41.3862C138.23 41.7964 138.003 42.397 138.003 43.188C138.003 43.9644 138.281 44.5723 138.838 45.0117C139.409 45.4365 140.068 45.6489 140.815 45.6489C141.562 45.6489 142.163 45.5464 142.617 45.3413C143.086 45.1216 143.438 44.8433 143.672 44.5063C144.126 43.8472 144.353 43.2026 144.353 42.5728C144.353 41.0054 143.928 39.7603 143.079 38.8374C142.244 37.8999 141.277 37.4312 140.178 37.4312C139.797 37.4312 139.365 37.4897 138.882 37.6069C138.398 37.7241 138.127 37.7827 138.069 37.7827C138.025 37.7827 137.952 37.7607 137.849 37.7168C137.761 37.6582 137.666 37.4678 137.563 37.1455C137.241 36.1201 136.692 35.2925 135.916 34.6626C133.44 32.9048 132.202 30.6343 132.202 27.8511C132.202 25.0532 133.03 22.9146 134.685 21.4351C136.355 19.9409 138.611 19.1938 141.453 19.1938C142.888 19.1938 144.148 19.4282 145.232 19.897C146.316 20.3511 147.166 20.8271 147.781 21.3252C149.187 22.4678 149.89 24.0278 149.89 26.0054L149.385 28.8398C149.385 29.6309 149.7 30.3486 150.33 30.9932C150.125 31.1836 149.817 31.2788 149.407 31.2788C148.997 31.2788 148.601 31.1763 148.22 30.9712C147.839 30.7515 147.524 30.4951 147.275 30.2021C147.026 29.9092 146.807 29.6016 146.616 29.2793C146.265 28.708 146.089 28.3345 146.089 28.1587C145.166 28.7739 144.419 29.0815 143.848 29.0815C143.276 29.0815 142.852 29.0303 142.573 28.9277C142.31 28.8105 142.119 28.6641 142.002 28.4883C141.826 28.1953 141.738 27.9316 141.738 27.6973C142.573 27.5947 143.269 27.3384 143.826 26.9282C144.397 26.5181 144.683 25.9614 144.683 25.2583C144.683 24.5552 144.412 24.0352 143.87 23.6982C143.342 23.3613 142.676 23.1929 141.87 23.1929C139.922 23.1929 138.948 24.2988 138.948 26.5107C138.948 28.7227 139.775 30.1948 141.431 30.9272C141.592 31.0005 141.833 31.0371 142.156 31.0371C142.493 31.0371 142.976 30.9785 143.606 30.8613C144.236 30.7441 144.595 30.6855 144.683 30.6855C144.785 30.6855 144.888 30.8613 144.99 31.2129C145.371 32.3555 145.876 33.1099 146.506 33.4761C147.883 34.4868 148.931 35.6807 149.648 37.0576C150.381 38.4346 150.747 39.7603 150.747 41.0347C150.747 42.2944 150.535 43.415 150.11 44.3965C149.7 45.3779 149.092 46.2568 148.286 47.0332C146.558 48.7031 144.082 49.5381 140.859 49.5381C138.896 49.5381 136.992 48.9082 135.146 47.6484C134.282 47.0625 133.564 46.2861 132.993 45.3193C132.437 44.3379 132.158 43.2686 132.158 42.1113Z" fill="#E22301"/>
</svg>
