<svg width="156" height="152" viewBox="0 0 156 152" fill="none" xmlns="http://www.w3.org/2000/svg">
<path d="M12.3362 50.0981C25.0184 50.0931 37.6956 50.0882 50.3777 50.0832C50.7913 50.0832 51.1252 49.7488 51.1252 49.3346C51.1451 34.5485 51.1601 19.7573 51.18 4.9712C51.18 4.557 51.5139 4.22266 51.9275 4.22266C70.0014 4.22266 88.0803 4.22765 106.154 4.23264C106.568 4.23264 106.902 4.56698 106.902 4.98118L106.892 49.7338C106.892 49.9534 106.797 50.163 106.628 50.3077C88.2099 65.8724 69.7971 81.432 51.3793 96.9966C51.2448 97.1114 51.0754 97.1713 50.896 97.1713L12.3512 97.1862C11.9376 97.1862 11.6037 96.8519 11.6037 96.4377C11.6037 81.2424 11.5938 66.042 11.5938 50.8467C11.5938 50.4325 11.9276 50.0981 12.3412 50.0981H12.3362Z" fill="#FFC01D"/>
<path d="M51.8987 135.541C69.9826 135.536 88.0665 135.531 106.15 135.526C106.564 135.526 106.898 135.192 106.898 134.778C106.898 122.497 106.903 110.216 106.908 97.9347C106.908 97.5205 107.242 97.1862 107.655 97.1862C119.929 97.1862 132.202 97.1862 144.476 97.1912C144.89 97.1912 145.223 96.8568 145.223 96.4426C145.218 81.2423 145.213 66.042 145.208 50.8366C145.208 50.4225 144.875 50.0881 144.461 50.0881L107.167 50.0781C106.993 50.0781 106.818 50.143 106.684 50.2528C88.2659 65.8174 69.8531 81.377 51.4353 96.9417C51.2659 97.0814 51.1712 97.291 51.1712 97.5156C51.1662 109.941 51.1612 122.367 51.1562 134.793C51.1562 135.207 51.4901 135.541 51.9037 135.541H51.8987Z" fill="#DC2302"/>
</svg>
