<svg width="216" height="87" viewBox="0 0 216 87" fill="none" xmlns="http://www.w3.org/2000/svg">
<path d="M1.87852 0.079925L213.823 0C214.861 0 215.701 0.742097 215.701 1.65543L216 63.3397C216 64.2645 215.16 65.0065 214.121 65.0065L133.274 65.075C132.776 65.075 132.293 65.2463 131.951 65.5659L109.537 85.5451C108.811 86.1958 107.616 86.1958 106.876 85.5451L84.3052 65.4974C83.9494 65.1892 83.4798 65.0065 82.9817 65.0065H2.04928C1.01041 65.0065 0.17081 64.2644 0.17081 63.3511L0 1.73536C0 0.810606 0.839647 0.0684972 1.87852 0.0684972V0.079925Z" fill="white"/>
<path d="M30.7217 41.2983C30.7217 39.3794 30.2456 37.8047 29.2935 36.5742C28.3413 35.3291 27.0742 34.7065 25.4922 34.7065C25.0674 34.7065 24.5913 34.7725 24.064 34.9043C23.5366 35.0361 23.2363 35.1021 23.1631 35.1021L22.9873 35.0581C22.8408 34.9849 22.709 34.7725 22.5918 34.4209C22.2549 33.2783 21.6543 32.3628 20.79 31.6743C17.9775 29.4038 16.5713 26.3862 16.5713 22.6216C16.5713 19.5894 17.5601 17.2529 19.5376 15.6123C21.5298 13.9717 24.2837 13.1514 27.7993 13.1514C29.3374 13.1514 30.6851 13.4443 31.8423 14.0303C33.0142 14.6162 33.915 15.1875 34.5449 15.7441C35.9658 17.0186 36.6763 18.6738 36.6763 20.71C36.6763 21.3838 36.5005 22.2847 36.1489 23.4126C35.7974 24.5405 35.6216 25.2217 35.6216 25.4561C35.6216 26.335 35.9878 27.1772 36.7202 27.9829C36.4565 27.895 36.083 27.8511 35.5996 27.8511C35.1162 27.8511 34.6548 27.7266 34.2153 27.4775C33.7905 27.2285 33.4536 26.9209 33.2046 26.5547C32.7212 25.8662 32.3623 25.0825 32.1279 24.2036C32.0254 24.3647 31.6519 24.5332 31.0073 24.709C30.3628 24.8701 29.8135 24.9507 29.3594 24.9507C28.9199 24.9507 28.5317 24.8921 28.1948 24.7749C27.8579 24.6431 27.6089 24.5112 27.4478 24.3794C27.3013 24.2329 27.1914 24.0498 27.1182 23.8301C27.0156 23.5811 26.9644 23.3613 26.9644 23.1709C27.8726 23.127 28.6636 22.8926 29.3374 22.4678C30.0259 22.043 30.3701 21.3618 30.3701 20.4243C30.3701 19.4722 30.0845 18.7324 29.5132 18.2051C28.9565 17.6777 28.3267 17.4141 27.6235 17.4141C25.3237 17.4141 24.1738 18.791 24.1738 21.5449C24.1738 23.874 24.7671 25.6099 25.9536 26.7524C26.5688 27.353 27.1987 27.6533 27.8433 27.6533C28.4878 27.6533 29.1616 27.5581 29.8647 27.3677C30.5679 27.1626 30.9707 27.0601 31.0732 27.0601C31.1904 27.0601 31.3149 27.2505 31.4468 27.6313C31.9009 28.9351 32.4648 29.814 33.1387 30.2681C34.7354 31.3228 36.0024 32.6777 36.9399 34.333C37.8774 35.9883 38.3462 37.7534 38.3462 39.6284C38.3462 41.5034 38.0166 43.0928 37.3574 44.3965C36.6982 45.7002 35.8267 46.7549 34.7427 47.5605C32.5161 49.2158 29.938 50.0435 27.0083 50.0435C24.2983 50.0435 21.9766 49.3257 20.043 47.8901C19.1055 47.187 18.3511 46.2788 17.7798 45.1655C17.2231 44.0376 16.9448 42.9683 16.9448 41.9575C16.9448 40.9468 17.1353 39.8921 17.5161 38.7935C17.9116 37.6802 18.1094 36.8232 18.1094 36.2227C18.1094 35.6074 17.8604 34.9629 17.3623 34.2891C17.5674 34.1426 17.8384 34.0693 18.1753 34.0693C19.0835 34.0693 19.8818 34.5234 20.5703 35.4316C21.2734 36.3252 21.6323 37.2407 21.647 38.1782C22.6138 37.6655 23.4561 37.4092 24.1738 37.4092C24.8916 37.4092 25.4263 37.4824 25.7778 37.6289C26.1294 37.7607 26.3784 37.9365 26.5249 38.1562C26.7739 38.5078 26.8984 38.8301 26.8984 39.123V39.2988C26.0488 39.4014 25.3018 39.7603 24.6572 40.3755C24.0273 40.9761 23.7124 41.7451 23.7124 42.6826C23.7124 43.6201 24.0127 44.3159 24.6133 44.77C25.2139 45.2241 25.9683 45.4512 26.8765 45.4512C27.7993 45.4512 28.6709 45.0923 29.4912 44.3745C30.3115 43.6421 30.7217 42.6167 30.7217 41.2983ZM59.7915 32.5532C59.6597 32.9048 59.3081 33.0806 58.7368 33.0806C58.1655 33.0806 57.5869 32.8901 57.001 32.5093C56.415 32.1138 55.9756 31.7256 55.6826 31.3447L55.2432 30.7734C54.6719 31.1396 54.0859 31.3228 53.4854 31.3228C52.8848 31.3228 52.4307 31.2861 52.123 31.2129C51.8154 31.125 51.5811 31.0225 51.4199 30.9053C51.2588 30.7881 51.127 30.6562 51.0244 30.5098C50.8633 30.3047 50.7827 30.1216 50.7827 29.9604L50.8047 29.8506C51.5811 29.8506 52.2842 29.3892 52.9141 28.4663C53.5586 27.5288 53.8809 26.6279 53.8809 25.7637C53.8809 24.0205 53.0312 23.1489 51.332 23.1489C50.4238 23.1489 49.8306 23.332 49.5522 23.6982C49.2886 24.0498 49.0981 24.3501 48.981 24.5991C48.8784 24.8335 48.7979 25.207 48.7393 25.7197C48.6807 26.3936 48.6514 27.3164 48.6514 28.4883C48.6514 29.6602 48.7246 30.6196 48.8711 31.3667C49.0176 32.0991 49.2007 32.6411 49.4204 32.9927C49.6401 33.3442 49.8525 33.6226 50.0576 33.8276C50.2773 34.0327 50.4604 34.1865 50.6069 34.2891C50.7534 34.3916 50.8267 34.4795 50.8267 34.5527C50.8267 34.626 50.7534 34.7139 50.6069 34.8164C50.4604 34.9043 50.2773 35.0435 50.0576 35.2339C49.8525 35.4243 49.6401 35.688 49.4204 36.0249C48.9077 36.8159 48.6514 38.1343 48.6514 39.98C48.6514 41.8257 48.9956 43.2173 49.6841 44.1548C50.3872 45.0776 51.376 45.5391 52.6504 45.5391C54.042 45.5391 55.0381 45.0264 55.6387 44.001C56.2539 42.9463 56.5615 41.3569 56.5615 39.2329C56.5615 38.9692 56.7153 38.7642 57.0229 38.6177C57.3452 38.4712 57.7407 38.3979 58.2095 38.3979C58.6929 38.3979 59.1177 38.4785 59.4839 38.6396C59.8647 38.8008 60.0552 39.0205 60.0552 39.2988C60.0552 42.8584 59.2275 45.5171 57.5723 47.2749C56.1514 48.7837 54.2983 49.5381 52.0132 49.5381C46.1831 49.5381 42.8726 46.4546 42.0815 40.2876C41.8472 38.3687 41.5542 37.1162 41.2026 36.5303C40.8657 35.9297 40.6094 35.5269 40.4336 35.3218C40.2578 35.1021 40.1113 34.9409 39.9941 34.8384C39.877 34.7358 39.8184 34.6479 39.8184 34.5747V34.5308C39.8184 34.4575 39.8916 34.3696 40.0381 34.2671C40.1846 34.1646 40.3677 34.0107 40.5874 33.8057C40.8071 33.5859 41.0195 33.293 41.2246 32.9268C41.7373 32.0771 41.9937 30.6929 41.9937 28.7739C42.0669 25.7563 42.9385 23.4053 44.6084 21.7207C46.2783 20.0361 48.5049 19.1938 51.2881 19.1938C53.0459 19.1938 54.833 19.7358 56.6494 20.8198C57.543 21.3472 58.2754 22.0796 58.8467 23.0171C59.4326 23.9399 59.7256 24.8335 59.7256 25.6978C59.7256 26.562 59.623 27.4995 59.418 28.5103C59.2129 29.521 59.1104 30.2754 59.1104 30.7734C59.1104 31.2568 59.3374 31.8501 59.7915 32.5532ZM71.7227 21.7427C73.4658 20.0581 75.5166 19.2158 77.875 19.2158C79.7354 19.2158 81.2881 19.9482 82.5332 21.4131C83.793 22.8633 84.4229 24.9946 84.4229 27.8071C84.4229 30.7222 85.082 32.8682 86.4004 34.2451C86.5469 34.4062 86.6201 34.5161 86.6201 34.5747C86.6201 34.6187 86.5469 34.6992 86.4004 34.8164C86.2686 34.9189 86.1001 35.0947 85.895 35.3438C85.7046 35.5928 85.5142 35.915 85.3237 36.3105C84.855 37.2627 84.6206 38.6763 84.6206 40.5513C84.6206 42.4116 84.8184 43.8691 85.2139 44.9238C85.6094 45.9785 86.3271 46.9819 87.3672 47.9341C86.9717 48.7251 86.1074 49.1206 84.7744 49.1206C83.4414 49.1206 82.167 48.3369 80.9512 46.7695C79.7793 48.3369 78.5854 49.1206 77.3696 49.1206C76.1538 49.1206 75.4507 48.7251 75.2603 47.9341C76.271 46.9673 76.9814 45.9199 77.3916 44.792C77.8018 43.6641 78.0068 42.397 78.0068 40.9907C78.0068 39.5845 77.9336 38.5298 77.7871 37.8267C77.6406 37.1235 77.4575 36.5889 77.2378 36.2227C77.0327 35.8418 76.8203 35.5342 76.6006 35.2998C76.3955 35.0654 76.2197 34.897 76.0732 34.7944C75.9268 34.6772 75.8535 34.5967 75.8535 34.5527C75.8535 34.4941 75.9194 34.4136 76.0513 34.311C76.1831 34.2085 76.3442 34.0547 76.5347 33.8496C76.7251 33.6299 76.9082 33.3369 77.084 32.9707C77.5381 32.1064 77.7651 30.6636 77.7651 28.6421C77.7651 26.606 77.5747 25.1265 77.1938 24.2036C76.813 23.2661 76.1685 22.7974 75.2603 22.7974C73.5757 22.7974 72.4624 23.9253 71.9204 26.1812C71.73 26.9722 71.6348 27.9536 71.6348 29.1255C71.6348 30.2974 71.73 31.2642 71.9204 32.0259C72.1255 32.7876 72.3452 33.3003 72.5796 33.564C72.814 33.8276 73.0264 34.0474 73.2168 34.2231C73.4219 34.3843 73.5244 34.4941 73.5244 34.5527C73.5244 34.6113 73.4585 34.6992 73.3267 34.8164C73.1948 34.9336 73.041 35.124 72.8652 35.3877C72.6895 35.6367 72.5137 35.959 72.3379 36.3545C71.8838 37.292 71.6567 38.6909 71.6567 40.5513C71.6567 42.397 71.8545 43.8545 72.25 44.9238C72.6455 45.9785 73.3633 46.9819 74.4033 47.9341C74.3008 48.2271 74.0444 48.498 73.6343 48.7471C73.2388 48.9961 72.792 49.1206 72.2939 49.1206C70.8291 49.1206 69.4521 48.3369 68.1631 46.7695C66.9912 48.3369 65.7534 49.1206 64.4497 49.1206C63.146 49.1206 62.3916 48.7251 62.1865 47.9341C63.2119 46.9819 63.9297 45.9712 64.3398 44.9019C64.75 43.8325 64.9551 42.6167 64.9551 41.2544C64.9551 39.8921 64.8745 38.8667 64.7134 38.1782C64.5669 37.4751 64.3838 36.9185 64.1641 36.5083C63.959 36.0981 63.7466 35.7539 63.5269 35.4756C63.3218 35.1973 63.1387 34.9849 62.9775 34.8384C62.8311 34.6919 62.7578 34.604 62.7578 34.5747C62.7578 34.5454 62.8311 34.4868 62.9775 34.3989C63.1387 34.2964 63.3218 34.1353 63.5269 33.9155C63.7466 33.6812 63.959 33.3809 64.1641 33.0146C64.6914 32.0918 64.9551 30.6489 64.9551 28.686V23.105C64.9551 20.3218 64.7573 18.1685 64.3618 16.645C63.981 15.1216 63.2925 13.7153 62.2964 12.4263C62.2964 11.8989 62.6992 11.5107 63.5049 11.2617C63.8271 11.1738 64.1934 11.1299 64.6035 11.1299C66.1123 11.1299 67.394 11.8989 68.4487 13.437C68.9321 12.4702 69.5767 11.7891 70.3823 11.3936C70.7192 11.2178 71.1221 11.1299 71.5908 11.1299C72.0596 11.1299 72.4697 11.2397 72.8213 11.4595C73.1729 11.6792 73.3779 11.8916 73.4365 12.0967L73.5244 12.4263C72.5576 15.0483 71.957 18.1538 71.7227 21.7427ZM106.923 39.189C106.923 38.9253 107.055 38.7202 107.318 38.5737C107.597 38.4272 107.956 38.354 108.395 38.354C108.849 38.354 109.259 38.4346 109.625 38.5957C110.006 38.7568 110.197 38.9766 110.197 39.2549C110.197 43.9863 108.812 47.1064 106.044 48.6152C105.136 49.1133 104.293 49.3916 103.517 49.4502C102.755 49.5088 102.155 49.5381 101.715 49.5381C98.9614 49.5381 96.7495 48.6958 95.0796 47.0112C93.4097 45.312 92.4209 42.7485 92.1133 39.3208C91.9375 37.1821 91.1758 35.688 89.8281 34.8384C89.5645 34.6772 89.418 34.582 89.3887 34.5527C89.3887 34.5088 89.4839 34.4429 89.6743 34.355C89.8647 34.2524 90.0918 34.106 90.3555 33.9155C90.6191 33.7104 90.8828 33.4468 91.1465 33.1245C91.791 32.3335 92.1133 31.1689 92.1133 29.6309C92.1133 22.6582 95.1675 19.1719 101.276 19.1719C104.176 19.1719 106.374 20.1094 107.868 21.9844C109.157 23.5957 109.801 25.9321 109.801 28.9937C109.801 30.8979 109.86 32.0991 109.977 32.5972C110.109 33.0952 110.277 33.52 110.482 33.8716C110.702 34.2231 110.841 34.4575 110.9 34.5747C110.329 35.2339 109.706 35.5635 109.032 35.5635C108.798 35.5635 108.578 35.5195 108.373 35.4316C107.201 34.8164 105.626 34.5088 103.649 34.5088C101.671 34.5088 100.309 34.6479 99.562 34.9263C98.9614 35.7026 98.6611 37.1089 98.6611 39.145C98.6611 41.1812 99.0273 42.7632 99.7598 43.8911C100.507 45.0044 101.583 45.561 102.99 45.561C104.396 45.561 105.399 45.0337 106 43.979C106.615 42.9243 106.923 41.3276 106.923 39.189ZM103.759 30.8394L103.803 28.0269C103.803 24.7749 103.078 23.1489 101.627 23.1489C100.631 23.1489 99.8989 23.4199 99.4302 23.9619C99.0786 24.3721 98.8882 24.9727 98.8589 25.7637C98.8296 26.54 98.8149 27.6313 98.8149 29.0376C98.8149 30.4292 98.9688 31.5059 99.2764 32.2676C100.434 32.2236 101.466 32.0698 102.375 31.8062C103.297 31.5278 103.759 31.2056 103.759 30.8394ZM127.072 41.606V40.1777C127.072 38.5664 126.911 37.4312 126.588 36.772C126.281 36.0981 126.039 35.6367 125.863 35.3877C125.688 35.1387 125.534 34.9556 125.402 34.8384C125.27 34.7065 125.204 34.6113 125.204 34.5527C125.204 34.4795 125.299 34.355 125.49 34.1792C125.695 33.9888 125.915 33.7471 126.149 33.4541C126.383 33.1611 126.596 32.5825 126.786 31.7183C126.991 30.8394 127.094 29.7554 127.094 28.4663C127.094 24.6577 126.142 22.7534 124.237 22.7534C122.348 22.7534 121.403 24.6577 121.403 28.4663C121.403 31.4106 121.974 33.3516 123.117 34.2891C123.249 34.4062 123.307 34.4941 123.292 34.5527C123.292 34.5967 123.19 34.7065 122.985 34.8823C122.794 35.0435 122.626 35.2339 122.479 35.4536C122.333 35.6733 122.172 35.9736 121.996 36.3545C121.601 37.1895 121.403 38.2295 121.403 39.4746C121.403 40.7051 121.403 41.5034 121.403 41.8696C121.417 42.2358 121.439 42.6899 121.469 43.2319C121.513 43.7593 121.564 44.1548 121.623 44.4185C121.696 44.6675 121.798 44.9531 121.93 45.2754C122.077 45.5977 122.252 45.832 122.458 45.9785C122.97 46.3154 123.468 46.4839 123.952 46.4839C124.435 46.4839 124.787 46.4692 125.006 46.4399C125.241 46.396 125.446 46.3301 125.622 46.2422C125.812 46.1396 125.973 46.0444 126.105 45.9565C126.237 45.8687 126.354 45.7222 126.457 45.5171C126.559 45.2974 126.647 45.1216 126.72 44.9897C126.793 44.8433 126.852 44.6162 126.896 44.3086C126.94 43.9863 126.977 43.73 127.006 43.5396C127.05 43.1001 127.072 42.4556 127.072 41.606ZM129.467 46.4839C127.987 48.52 125.937 49.5381 123.314 49.5381C121.117 49.5381 119.169 48.7471 117.47 47.165C116.649 46.4033 115.99 45.4438 115.492 44.2866C114.994 43.1147 114.745 41.9941 114.745 40.9248C114.745 39.8555 114.701 39.0132 114.613 38.3979C114.525 37.7681 114.416 37.27 114.284 36.9038C114.167 36.5376 114.013 36.2007 113.822 35.8931C113.632 35.5854 113.471 35.373 113.339 35.2559C113.207 35.124 113.046 34.9849 112.855 34.8384C112.68 34.6919 112.577 34.604 112.548 34.5747C112.548 34.5161 112.621 34.4282 112.768 34.311C112.929 34.1938 113.112 34.0181 113.317 33.7837C113.537 33.5493 113.749 33.2417 113.954 32.8608C114.481 31.9233 114.745 30.4585 114.745 28.4663C114.745 25.522 115.426 23.2441 116.789 21.6328C118.166 20.0068 119.923 19.1938 122.062 19.1938C124.201 19.1938 125.849 19.9702 127.006 21.5229C126.713 18.0366 125.893 15.0044 124.545 12.4263C124.545 11.9136 124.955 11.5254 125.775 11.2617C126.083 11.1738 126.449 11.1299 126.874 11.1299C128.31 11.1299 129.518 11.8989 130.5 13.437C130.573 13.2905 130.749 13.0562 131.027 12.7339C131.32 12.397 131.598 12.126 131.862 11.9209C132.58 11.3936 133.297 11.1299 134.015 11.1299C134.748 11.1299 135.304 11.2397 135.685 11.4595C136.066 11.6792 136.286 11.8916 136.344 12.0967L136.432 12.4263C135.436 13.7007 134.74 15.085 134.345 16.5791C133.964 18.0586 133.773 20.1606 133.773 22.8853V28.4663C133.773 31.4692 134.506 33.4175 135.971 34.311C136.146 34.4136 136.234 34.4941 136.234 34.5527C136.234 34.6113 136.154 34.6919 135.993 34.7944C135.832 34.897 135.634 35.0581 135.399 35.2778C135.165 35.4976 134.931 35.7832 134.696 36.1348C134.14 36.999 133.832 38.3174 133.773 40.0898C133.788 42.0674 133.986 43.6128 134.367 44.7261C134.762 45.8394 135.451 46.8647 136.432 47.8022C136.432 48.3296 136.022 48.7178 135.202 48.9668C134.894 49.0693 134.535 49.1206 134.125 49.1206C132.44 49.1206 130.888 48.2417 129.467 46.4839ZM153.834 19.1938C155.167 19.1938 156.369 19.9775 157.438 21.5449C157.907 20.6074 158.617 19.9043 159.569 19.4355C159.921 19.2744 160.28 19.1938 160.646 19.1938C161.027 19.1938 161.364 19.2305 161.657 19.3037C161.964 19.377 162.191 19.4648 162.338 19.5674C162.499 19.6553 162.631 19.7578 162.733 19.875C162.909 20.0801 162.997 20.2559 162.997 20.4023C161.957 21.3984 161.225 22.5117 160.8 23.7422C160.375 24.958 160.163 26.3276 160.163 27.8511C160.163 29.3599 160.229 30.4878 160.36 31.2349C160.492 31.9673 160.646 32.5239 160.822 32.9048C161.012 33.2856 161.195 33.5933 161.371 33.8276C161.562 34.062 161.723 34.2378 161.854 34.355C161.986 34.4575 162.052 34.5381 162.052 34.5967C162.052 34.6553 161.95 34.7798 161.745 34.9702C161.554 35.146 161.342 35.3804 161.107 35.6733C160.888 35.9663 160.675 36.5303 160.47 37.3652C160.28 38.1855 160.185 39.4014 160.185 41.0127C160.185 42.624 160.368 43.957 160.734 45.0117C161.1 46.0518 161.796 47.0479 162.821 48C162.44 48.7471 161.452 49.1206 159.855 49.1206C159.035 49.1206 158.251 48.8276 157.504 48.2417C156.771 47.6704 156.237 47.0991 155.9 46.5278L155.395 45.6709C153.871 48.249 151.82 49.5381 149.242 49.5381C146.269 49.5381 144.013 48.2344 142.475 45.627C141.713 44.3232 141.332 42.895 141.332 41.3423C141.332 39.7896 141.229 38.5518 141.024 37.6289C140.819 36.7061 140.6 36.0908 140.365 35.7832C140.131 35.4609 139.911 35.1973 139.706 34.9922C139.501 34.7871 139.398 34.6553 139.398 34.5967C139.398 34.5381 139.464 34.4575 139.596 34.355C139.728 34.2378 139.889 34.062 140.08 33.8276C140.27 33.5786 140.46 33.2563 140.651 32.8608C141.105 31.9233 141.332 30.4365 141.332 28.4004C141.332 26.3643 141.149 24.7749 140.783 23.6323C140.417 22.4751 139.75 21.3984 138.783 20.4023C139.193 19.5967 139.984 19.1938 141.156 19.1938C141.933 19.1938 142.562 19.3916 143.046 19.7871C143.822 20.417 144.394 21.0029 144.76 21.5449C145.932 19.9775 147.133 19.1938 148.363 19.1938C149.506 19.1938 150.143 19.5967 150.275 20.4023C149.337 21.3691 148.678 22.4751 148.297 23.7202C147.917 24.9653 147.726 26.3423 147.726 27.8511C147.726 29.3599 147.792 30.4878 147.924 31.2349C148.056 31.9673 148.209 32.5239 148.385 32.9048C148.576 33.2856 148.759 33.5933 148.935 33.8276C149.125 34.062 149.286 34.2378 149.418 34.355C149.55 34.4575 149.616 34.5381 149.616 34.5967C149.616 34.6553 149.513 34.7798 149.308 34.9702C149.118 35.1606 148.905 35.4097 148.671 35.7173C148.437 36.0103 148.217 36.6035 148.012 37.4971C147.821 38.376 147.726 39.5552 147.726 41.0347C147.726 42.4995 148.019 43.6787 148.605 44.5723C149.206 45.4512 149.938 45.8906 150.802 45.8906C151.681 45.8906 152.45 45.4292 153.109 44.5063C153.769 43.5688 154.098 42.3896 154.098 40.9688C154.098 39.5332 154.01 38.376 153.834 37.4971C153.659 36.6035 153.461 36.0103 153.241 35.7173C153.021 35.4097 152.824 35.1606 152.648 34.9702C152.472 34.7798 152.384 34.6553 152.384 34.5967C152.384 34.5234 152.443 34.4282 152.56 34.311C152.677 34.1938 152.816 34.0107 152.978 33.7617C153.139 33.498 153.3 33.1611 153.461 32.751C153.856 31.7695 154.054 30.2974 154.054 28.3345C154.054 26.3569 153.9 24.7896 153.593 23.6323C153.285 22.4751 152.736 21.3984 151.945 20.4023C151.959 20.373 151.974 20.3291 151.989 20.2705C152.003 20.2119 152.055 20.1167 152.143 19.9849C152.245 19.8384 152.362 19.7139 152.494 19.6113C152.831 19.333 153.278 19.1938 153.834 19.1938ZM174.071 49.1206C172.665 49.1206 171.574 48.6299 170.797 47.6484C170.387 48.2637 169.691 48.7031 168.71 48.9668C168.329 49.0693 167.941 49.1206 167.545 49.1206C167.15 49.1206 166.813 49.0767 166.535 48.9888C166.256 48.9155 166.044 48.8203 165.897 48.7031C165.619 48.4688 165.458 48.2124 165.414 47.9341C166.469 47.3628 167.113 46.7109 167.348 45.9785C167.611 45.1875 167.75 44.3525 167.765 43.4736C167.794 42.5801 167.809 41.6646 167.809 40.7271C167.809 39.7896 167.736 38.9253 167.589 38.1343C167.443 37.3286 167.26 36.728 167.04 36.3325C166.835 35.937 166.623 35.6221 166.403 35.3877C166.183 35.1533 166 34.9849 165.854 34.8823C165.707 34.7651 165.634 34.6406 165.634 34.5088C165.634 34.3623 165.707 34.2085 165.854 34.0474C166 33.8716 166.183 33.6152 166.403 33.2783C166.623 32.9414 166.835 32.458 167.04 31.8281C167.553 30.3486 167.809 27.895 167.809 24.4673C167.809 21.0396 167.633 18.4907 167.282 16.8208C166.93 15.1362 166.3 13.6348 165.392 12.3164C165.392 11.8477 165.766 11.4961 166.513 11.2617C166.791 11.1738 167.121 11.1299 167.501 11.1299C169.01 11.1299 170.116 11.6938 170.819 12.8218C171.273 12.1479 171.991 11.6426 172.973 11.3057C173.339 11.1885 173.712 11.1299 174.093 11.1299C174.474 11.1299 174.804 11.1738 175.082 11.2617C175.36 11.335 175.565 11.4302 175.697 11.5474C175.99 11.7817 176.159 12.0381 176.203 12.3164C175.294 13.6348 174.665 15.1362 174.313 16.8208C173.961 18.4907 173.786 20.5562 173.786 23.0171C173.786 25.478 173.859 27.4116 174.005 28.8179C174.152 30.2095 174.335 31.2202 174.555 31.8501C174.774 32.4653 174.987 32.9414 175.192 33.2783C175.412 33.6152 175.595 33.8716 175.741 34.0474C175.888 34.2085 175.961 34.3623 175.961 34.5088C175.961 34.6406 175.888 34.7651 175.741 34.8823C175.595 34.9849 175.412 35.1533 175.192 35.3877C174.987 35.6221 174.774 35.937 174.555 36.3325C174.042 37.2554 173.786 38.7935 173.786 40.9468C173.786 43.2905 173.83 44.6309 173.917 44.9678C174.02 45.3047 174.123 45.6416 174.225 45.9785C174.342 46.3008 174.489 46.5498 174.665 46.7256C175.163 47.2529 175.668 47.6558 176.181 47.9341C176.181 48.4028 175.814 48.7544 175.082 48.9888C174.789 49.0767 174.452 49.1206 174.071 49.1206ZM195.912 39.189C195.912 38.9253 196.044 38.7202 196.308 38.5737C196.586 38.4272 196.945 38.354 197.384 38.354C197.838 38.354 198.249 38.4346 198.615 38.5957C198.996 38.7568 199.186 38.9766 199.186 39.2549C199.186 43.9863 197.802 47.1064 195.033 48.6152C194.125 49.1133 193.283 49.3916 192.506 49.4502C191.745 49.5088 191.144 49.5381 190.705 49.5381C187.951 49.5381 185.739 48.6958 184.069 47.0112C182.399 45.312 181.41 42.7485 181.103 39.3208C180.927 37.1821 180.165 35.688 178.817 34.8384C178.554 34.6772 178.407 34.582 178.378 34.5527C178.378 34.5088 178.473 34.4429 178.664 34.355C178.854 34.2524 179.081 34.106 179.345 33.9155C179.608 33.7104 179.872 33.4468 180.136 33.1245C180.78 32.3335 181.103 31.1689 181.103 29.6309C181.103 22.6582 184.157 19.1719 190.265 19.1719C193.166 19.1719 195.363 20.1094 196.857 21.9844C198.146 23.5957 198.791 25.9321 198.791 28.9937C198.791 30.8979 198.849 32.0991 198.966 32.5972C199.098 33.0952 199.267 33.52 199.472 33.8716C199.691 34.2231 199.831 34.4575 199.889 34.5747C199.318 35.2339 198.695 35.5635 198.021 35.5635C197.787 35.5635 197.567 35.5195 197.362 35.4316C196.19 34.8164 194.616 34.5088 192.638 34.5088C190.661 34.5088 189.298 34.6479 188.551 34.9263C187.951 35.7026 187.65 37.1089 187.65 39.145C187.65 41.1812 188.017 42.7632 188.749 43.8911C189.496 45.0044 190.573 45.561 191.979 45.561C193.385 45.561 194.389 45.0337 194.989 43.979C195.604 42.9243 195.912 41.3276 195.912 39.189ZM192.748 30.8394L192.792 28.0269C192.792 24.7749 192.067 23.1489 190.617 23.1489C189.621 23.1489 188.888 23.4199 188.419 23.9619C188.068 24.3721 187.877 24.9727 187.848 25.7637C187.819 26.54 187.804 27.6313 187.804 29.0376C187.804 30.4292 187.958 31.5059 188.266 32.2676C189.423 32.2236 190.456 32.0698 191.364 31.8062C192.287 31.5278 192.748 31.2056 192.748 30.8394Z" fill="#E22301"/>
</svg>
