<svg width="174" height="87" viewBox="0 0 174 87" fill="none" xmlns="http://www.w3.org/2000/svg">
<path d="M1.50681 0.079925L171.515 0C172.348 0 173.022 0.742063 173.022 1.6554L173.261 63.3397C173.261 64.2644 172.588 65.0065 171.755 65.0065L106.904 65.075C106.505 65.075 106.117 65.2463 105.843 65.5659L87.8635 85.5451C87.2814 86.1958 86.3225 86.1958 85.7289 85.5451L67.6242 65.4974C67.3389 65.1892 66.9621 65.0065 66.5626 65.0065H1.64381C0.810489 65.0065 0.136978 64.2644 0.136978 63.3511L0 1.73532C0 0.810571 0.673494 0.0684972 1.50681 0.0684972V0.079925Z" fill="white"/>
<path d="M45.2173 47.8618C44.4409 49.3999 43.2617 50.1689 41.6797 50.1689C40.8447 50.1689 40.2734 50.0664 39.9658 49.8613C39.4971 49.5098 39.1968 49.1802 39.0649 48.8726C39.9878 47.7593 40.4492 46.3457 40.4492 44.6318C40.4492 43.1523 40.3467 42.0684 40.1416 41.3799C39.9512 40.6914 39.7314 39.9297 39.4824 39.0947C39.248 38.2598 39.0283 37.4468 38.8232 36.6558H38.6694L33.6377 36.6777C33.5498 37.0439 33.396 37.6519 33.1763 38.5015C32.9565 39.3511 32.8027 39.9956 32.7148 40.4351C32.4219 41.7241 32.2754 42.9912 32.2754 44.2363C32.2754 46.126 32.8101 47.6714 33.8794 48.8726C33.8647 48.9019 33.8501 48.9458 33.8354 49.0044C33.8208 49.063 33.7622 49.1655 33.6597 49.312C33.5718 49.4731 33.4692 49.6123 33.3521 49.7295C33.0298 50.0225 32.6343 50.1689 32.1655 50.1689C31.7114 50.1689 31.3086 50.0884 30.957 49.9272C30.6201 49.7661 30.3564 49.5757 30.166 49.356C29.7266 48.8872 29.4263 48.3892 29.2651 47.8618C28.6646 48.4624 27.9321 48.9971 27.0679 49.4658C26.2036 49.9346 25.4565 50.1689 24.8267 50.1689C23.8013 50.1689 23.2886 49.7881 23.2886 49.0264V48.8726C24.4897 47.9204 25.4053 46.9097 26.0352 45.8403C26.665 44.7563 27.2729 43.167 27.8589 41.0723L29.0015 37.0513C28.1079 37.271 27.3096 37.6519 26.6064 38.1938C26.46 38.1938 26.3208 38.084 26.189 37.8643C26.0718 37.6445 26.0132 37.3809 26.0132 37.0732C26.0132 36.3848 26.5259 35.7769 27.5513 35.2495C27.2876 35.1616 27.0239 34.9785 26.7603 34.7002C26.2622 34.2168 26.0132 33.8213 26.0132 33.5137C26.0132 33.1914 26.0352 32.957 26.0791 32.8105C26.123 32.6494 26.167 32.5322 26.2109 32.459C26.3281 32.3125 26.46 32.2246 26.6064 32.1953C27.5146 32.8984 28.6426 33.3452 29.9902 33.5356L32.5391 24.5269C33.1104 22.5054 33.396 20.894 33.396 19.6929C33.396 18.4917 33.0078 17.2832 32.2314 16.0674V15.9795C32.2314 15.1592 33.0591 14.749 34.7144 14.749C35.564 14.749 36.4868 15.291 37.4829 16.375C37.7026 16.624 37.9297 16.9243 38.1641 17.2759C38.5889 16.2358 39.4238 15.4814 40.6689 15.0127C41.1816 14.8369 41.687 14.749 42.1851 14.749C42.6831 14.749 43.064 14.8589 43.3276 15.0786C43.5913 15.2983 43.7817 15.6279 43.8989 16.0674C43.4741 17.2979 43.2617 18.7041 43.2617 20.2861C43.2617 21.8535 43.3936 23.2524 43.6572 24.4829C43.9209 25.7134 44.2505 26.8706 44.646 27.9546C45.0562 29.0239 45.437 29.8076 45.7886 30.3057C46.1548 30.8037 46.4917 31.1992 46.7993 31.4922C47.1069 31.7705 47.3486 31.9829 47.5244 32.1294C47.7148 32.2612 47.8101 32.3931 47.8101 32.5249C47.8101 32.6567 47.7515 32.8032 47.6343 32.9644C47.5171 33.1108 47.3853 33.2646 47.2388 33.4258C46.8579 33.8652 46.6675 34.7441 46.6675 36.0625C46.6675 38.5381 47.1729 41.0063 48.1836 43.4673C49.209 45.9136 50.4102 47.7153 51.7871 48.8726V48.9604C51.7871 49.7661 51.0547 50.1689 49.5898 50.1689C48.1396 50.1689 46.6821 49.3999 45.2173 47.8618ZM38.1201 33.7334C36.9336 28.9287 36.3037 26.3213 36.2305 25.9111C35.6152 28.4014 34.9854 31.0088 34.3408 33.7334C35.0879 33.7334 35.8936 33.7334 36.7578 33.7334H38.1201ZM54.9292 12.2002C56.3647 12.2002 57.5732 12.9692 58.5547 14.5073C58.5986 14.4487 58.6499 14.3682 58.7085 14.2656C58.7817 14.1631 58.9355 13.98 59.1699 13.7163C59.4189 13.438 59.668 13.1963 59.917 12.9912C60.6201 12.4639 61.3379 12.2002 62.0703 12.2002C62.8027 12.2002 63.3594 12.3101 63.7402 12.5298C64.1357 12.7495 64.3628 12.9619 64.4214 13.167L64.5093 13.4966C63.1616 16.0747 62.3413 19.1069 62.0483 22.5933C63.9526 21.0405 65.8423 20.2642 67.7173 20.2642C69.6069 20.2642 71.1743 21.0771 72.4194 22.7031C73.6792 24.3145 74.3091 26.5923 74.3091 29.5366C74.3091 32.437 74.9609 34.3853 76.2646 35.3813C76.4258 35.4985 76.5063 35.5864 76.5063 35.645C76.4771 35.6743 76.3672 35.7622 76.1768 35.9087C76.001 36.0552 75.8472 36.1943 75.7153 36.3262C75.5835 36.4434 75.4224 36.6558 75.2319 36.9634C75.0415 37.271 74.8877 37.6079 74.7705 37.9741C74.4629 38.853 74.3091 40.0103 74.3091 41.4458C74.3091 42.8813 74.0601 44.1851 73.562 45.3569C73.064 46.5142 72.4121 47.4736 71.6064 48.2354C69.8926 49.8174 67.8271 50.6084 65.4102 50.6084C63.0078 50.6084 61.0669 49.5903 59.5874 47.5542C58.1665 49.312 56.6138 50.1909 54.9292 50.1909C54.1089 50.1909 53.5742 50.0811 53.3252 49.8613C52.9004 49.5098 52.666 49.1875 52.6221 48.8945C53.6035 47.9424 54.2847 46.917 54.6655 45.8184C55.061 44.7051 55.2661 43.1523 55.2808 41.1602C55.1929 38.5234 54.4531 36.7583 53.0615 35.8647C52.9004 35.7622 52.8198 35.6816 52.8198 35.623C52.8198 35.5645 52.9004 35.4839 53.0615 35.3813C53.2373 35.2788 53.4424 35.1177 53.6768 34.8979C53.9258 34.6636 54.1748 34.356 54.4238 33.9751C54.9951 33.0669 55.2808 31.5874 55.2808 29.5366V23.9556C55.2808 21.231 55.083 19.1289 54.6875 17.6494C54.3066 16.1553 53.6182 14.771 52.6221 13.4966C52.6221 12.9692 53.0322 12.5811 53.8525 12.332C54.1602 12.2441 54.519 12.2002 54.9292 12.2002ZM61.9824 41.248V42.6982C61.9824 44.4707 62.1436 45.5767 62.4658 46.0161C62.8027 46.4849 63.0737 46.7632 63.2788 46.8511C64.0405 47.144 64.707 47.2393 65.2783 47.1367C65.8496 47.0195 66.2305 46.8877 66.4209 46.7412C66.626 46.5801 66.7944 46.4263 66.9263 46.2798C67.0728 46.1333 67.1899 45.9136 67.2778 45.6206C67.3657 45.313 67.4316 45.0493 67.4756 44.8296C67.5342 44.5952 67.5781 44.251 67.6074 43.7969C67.6367 43.0352 67.6514 42.2148 67.6514 41.3359C67.6514 40.457 67.6001 39.688 67.4976 39.0288C67.395 38.355 67.2485 37.8276 67.0581 37.4468C66.8823 37.0513 66.7212 36.7437 66.5747 36.5239C66.4282 36.3042 66.2524 36.1138 66.0474 35.9526C65.8569 35.7769 65.7544 35.667 65.7397 35.623C65.7397 35.5645 65.8057 35.4839 65.9375 35.3813C66.0693 35.2642 66.2231 35.0957 66.3989 34.876C66.5894 34.6562 66.7798 34.3633 66.9702 33.9971C67.4243 33.1035 67.6514 31.6167 67.6514 29.5366C67.6514 26.021 66.6992 24.2632 64.7949 24.2632C62.9053 24.2632 61.9604 26.021 61.9604 29.5366C61.9604 30.8257 62.0557 31.9097 62.2461 32.7886C62.4512 33.6528 62.6709 34.2314 62.9053 34.5244C63.1396 34.8174 63.3521 35.0591 63.5425 35.2495C63.7476 35.4253 63.8501 35.5498 63.8501 35.623C63.8501 35.6816 63.7842 35.7769 63.6523 35.9087C63.5205 36.0259 63.3667 36.209 63.1909 36.458C63.0151 36.707 62.832 37.0293 62.6416 37.4248C62.2021 38.3623 61.9824 39.6367 61.9824 41.248ZM87.3608 41.0503C87.3608 44.7563 88.2764 46.6094 90.1074 46.6094C92.0557 46.6094 93.0298 44.6831 93.0298 40.8306C93.0298 39.7466 92.9419 38.8384 92.7661 38.106C92.5903 37.3735 92.4072 36.8901 92.2168 36.6558C92.0264 36.4067 91.7993 36.187 91.5356 35.9966C91.2866 35.7915 91.1475 35.667 91.1182 35.623C91.1182 35.5352 91.2134 35.4033 91.4038 35.2275C91.6089 35.0371 91.8286 34.7954 92.063 34.5024C92.312 34.1948 92.5317 33.6089 92.7222 32.7446C92.9272 31.8657 93.0298 30.7817 93.0298 29.4927C93.0298 25.9771 92.0776 24.2192 90.1733 24.2192C88.2837 24.2192 87.3389 25.9771 87.3389 29.4927C87.3389 30.7817 87.4341 31.8657 87.6245 32.7446C87.8296 33.6089 88.0493 34.1948 88.2837 34.5024C88.5181 34.7954 88.7305 35.0371 88.9209 35.2275C89.126 35.4033 89.2285 35.5278 89.2285 35.6011C89.2285 35.6597 89.1626 35.7329 89.0308 35.8208C88.8989 35.9087 88.7451 36.0552 88.5693 36.2603C88.3936 36.4653 88.2178 36.7363 88.042 37.0732C87.5879 37.9229 87.3608 39.2485 87.3608 41.0503ZM100.325 37.4028C100.12 37.7983 99.9585 38.3257 99.8413 38.9849C99.7388 39.644 99.6875 40.5669 99.6875 41.7534C99.6875 42.9253 99.4165 44.1191 98.8745 45.335C98.3325 46.5361 97.6074 47.5103 96.6992 48.2573C95.791 49.0044 94.7803 49.5757 93.667 49.9712C92.5537 50.3667 91.3892 50.5645 90.1733 50.5645C88.9575 50.5645 87.7856 50.3667 86.6577 49.9712C85.5444 49.5757 84.5337 49.0044 83.6255 48.2573C82.7319 47.5103 82.0142 46.5361 81.4722 45.335C80.9302 44.1191 80.6592 42.9106 80.6592 41.7095C80.6592 40.4937 80.5713 39.5342 80.3955 38.8311C80.2344 38.1133 80.0293 37.5713 79.7803 37.2051C79.5459 36.8389 79.3042 36.5459 79.0552 36.3262C78.8208 36.0918 78.6157 35.9233 78.4399 35.8208C78.2788 35.7183 78.1982 35.645 78.1982 35.6011C78.1982 35.5571 78.2788 35.4839 78.4399 35.3813C78.6157 35.2642 78.8208 35.0957 79.0552 34.876C79.3042 34.6562 79.5459 34.3633 79.7803 33.9971C80.3662 33.1182 80.6592 31.8071 80.6592 30.064C80.6592 28.3208 80.9302 26.834 81.4722 25.6035C82.0142 24.373 82.7319 23.377 83.6255 22.6152C84.5337 21.8535 85.5444 21.2749 86.6577 20.8794C87.7856 20.4692 88.9575 20.2642 90.1733 20.2642C91.3892 20.2642 92.5537 20.4692 93.667 20.8794C94.7803 21.2749 95.791 21.8535 96.6992 22.6152C97.6074 23.377 98.3325 24.373 98.8745 25.6035C99.4165 26.834 99.6875 28.0718 99.6875 29.3169C99.6875 30.562 99.7607 31.5581 99.9072 32.3052C100.068 33.0376 100.251 33.5942 100.457 33.9751C100.676 34.3413 100.889 34.6416 101.094 34.876C101.313 35.0957 101.497 35.2642 101.643 35.3813C101.804 35.4839 101.885 35.5645 101.885 35.623C101.87 35.6377 101.738 35.7402 101.489 35.9307C101.255 36.1064 101.057 36.2969 100.896 36.502C100.735 36.707 100.544 37.0073 100.325 37.4028ZM118.782 20.2642C120.115 20.2642 121.316 21.0479 122.385 22.6152C122.854 21.6777 123.564 20.9746 124.517 20.5059C124.868 20.3447 125.227 20.2642 125.593 20.2642C125.974 20.2642 126.311 20.3008 126.604 20.374C126.912 20.4473 127.139 20.5352 127.285 20.6377C127.446 20.7256 127.578 20.8281 127.681 20.9453C127.856 21.1504 127.944 21.3262 127.944 21.4727C126.904 22.4688 126.172 23.582 125.747 24.8125C125.322 26.0283 125.11 27.3979 125.11 28.9214C125.11 30.4302 125.176 31.5581 125.308 32.3052C125.439 33.0376 125.593 33.5942 125.769 33.9751C125.959 34.356 126.143 34.6636 126.318 34.8979C126.509 35.1323 126.67 35.3081 126.802 35.4253C126.934 35.5278 127 35.6084 127 35.667C127 35.7256 126.897 35.8501 126.692 36.0405C126.501 36.2163 126.289 36.4507 126.055 36.7437C125.835 37.0366 125.623 37.6006 125.417 38.4355C125.227 39.2559 125.132 40.4717 125.132 42.083C125.132 43.6943 125.315 45.0273 125.681 46.082C126.047 47.1221 126.743 48.1182 127.769 49.0703C127.388 49.8174 126.399 50.1909 124.802 50.1909C123.982 50.1909 123.198 49.8979 122.451 49.312C121.719 48.7407 121.184 48.1694 120.847 47.5981L120.342 46.7412C118.818 49.3193 116.768 50.6084 114.189 50.6084C111.216 50.6084 108.96 49.3047 107.422 46.6973C106.66 45.3936 106.279 43.9653 106.279 42.4126C106.279 40.8599 106.177 39.6221 105.972 38.6992C105.767 37.7764 105.547 37.1611 105.312 36.8535C105.078 36.5312 104.858 36.2676 104.653 36.0625C104.448 35.8574 104.346 35.7256 104.346 35.667C104.346 35.6084 104.412 35.5278 104.543 35.4253C104.675 35.3081 104.836 35.1323 105.027 34.8979C105.217 34.6489 105.408 34.3267 105.598 33.9312C106.052 32.9937 106.279 31.5068 106.279 29.4707C106.279 27.4346 106.096 25.8452 105.73 24.7026C105.364 23.5454 104.697 22.4688 103.73 21.4727C104.141 20.667 104.932 20.2642 106.104 20.2642C106.88 20.2642 107.51 20.4619 107.993 20.8574C108.77 21.4873 109.341 22.0732 109.707 22.6152C110.879 21.0479 112.08 20.2642 113.311 20.2642C114.453 20.2642 115.09 20.667 115.222 21.4727C114.285 22.4395 113.625 23.5454 113.245 24.7905C112.864 26.0356 112.673 27.4126 112.673 28.9214C112.673 30.4302 112.739 31.5581 112.871 32.3052C113.003 33.0376 113.157 33.5942 113.333 33.9751C113.523 34.356 113.706 34.6636 113.882 34.8979C114.072 35.1323 114.233 35.3081 114.365 35.4253C114.497 35.5278 114.563 35.6084 114.563 35.667C114.563 35.7256 114.46 35.8501 114.255 36.0405C114.065 36.231 113.853 36.48 113.618 36.7876C113.384 37.0806 113.164 37.6738 112.959 38.5674C112.769 39.4463 112.673 40.6255 112.673 42.105C112.673 43.5698 112.966 44.749 113.552 45.6426C114.153 46.5215 114.885 46.9609 115.75 46.9609C116.628 46.9609 117.397 46.4995 118.057 45.5767C118.716 44.6392 119.045 43.46 119.045 42.0391C119.045 40.6035 118.958 39.4463 118.782 38.5674C118.606 37.6738 118.408 37.0806 118.188 36.7876C117.969 36.48 117.771 36.231 117.595 36.0405C117.419 35.8501 117.332 35.7256 117.332 35.667C117.332 35.5938 117.39 35.4985 117.507 35.3813C117.625 35.2642 117.764 35.0811 117.925 34.832C118.086 34.5684 118.247 34.2314 118.408 33.8213C118.804 32.8398 119.001 31.3677 119.001 29.4048C119.001 27.4272 118.848 25.8599 118.54 24.7026C118.232 23.5454 117.683 22.4688 116.892 21.4727C116.907 21.4434 116.921 21.3994 116.936 21.3408C116.951 21.2822 117.002 21.187 117.09 21.0552C117.192 20.9087 117.31 20.7842 117.441 20.6816C117.778 20.4033 118.225 20.2642 118.782 20.2642ZM133.613 24.373L131.46 24.7026C130.991 24.7026 130.625 24.5049 130.361 24.1094C130.112 23.6992 129.988 23.2012 129.988 22.6152C129.988 22.0146 130.186 21.6704 130.581 21.5825C131.65 21.3628 132.625 20.916 133.503 20.2422C134.382 19.5684 135.063 18.8359 135.547 18.0449C136.528 16.4189 137.144 14.998 137.393 13.7822L137.568 13.0132C137.671 12.7495 137.869 12.5371 138.162 12.376C138.469 12.2148 138.792 12.1343 139.128 12.1343C139.465 12.1343 139.751 12.2222 139.985 12.3979C140.22 12.5737 140.337 12.8301 140.337 13.167C140.337 13.167 140.278 15.0786 140.161 18.9019C140.161 19.854 140.227 20.7476 140.359 21.5825L143.962 21.0552C144.534 21.0552 145.002 21.2236 145.369 21.5605C145.735 21.8828 145.918 22.3589 145.918 22.9888C145.918 23.604 145.735 24.0801 145.369 24.417C145.002 24.7393 144.534 24.9004 143.962 24.9004L140.359 24.373C140.33 25.1201 140.315 26.27 140.315 27.8228C140.315 29.3755 140.381 30.6353 140.513 31.6021C140.645 32.5688 140.806 33.272 140.996 33.7114C141.201 34.1362 141.399 34.4658 141.589 34.7002C141.78 34.9346 141.941 35.1177 142.073 35.2495C142.205 35.3667 142.271 35.4839 142.271 35.6011C142.271 35.7183 142.168 35.8794 141.963 36.0845C141.758 36.2749 141.531 36.5239 141.282 36.8315C141.047 37.1392 140.828 37.7471 140.623 38.6553C140.417 39.5635 140.315 40.6841 140.315 42.0171C140.315 45.8257 141.296 47.73 143.259 47.73C145.427 47.73 146.511 44.9395 146.511 39.3584C146.511 39.0947 146.687 38.8896 147.039 38.7432C147.405 38.5967 147.808 38.5234 148.247 38.5234C148.687 38.5234 149.053 38.604 149.346 38.7651C149.639 38.9263 149.785 39.146 149.785 39.4243C149.785 45.6353 148.152 49.2534 144.885 50.2788C144.182 50.4985 143.428 50.6084 142.622 50.6084C140.161 50.6084 138.176 49.854 136.667 48.3452C135.847 49.5757 134.756 50.1909 133.394 50.1909C132.646 50.1909 132.156 50.0957 131.921 49.9053C131.541 49.583 131.328 49.2827 131.284 49.0044C132.134 48.5356 132.668 48.0889 132.888 47.6641C133.123 47.2246 133.284 46.8804 133.372 46.6313C133.474 46.3677 133.547 45.9502 133.591 45.3789C133.65 44.6025 133.679 43.5771 133.679 42.3027C133.679 41.0283 133.606 39.9956 133.459 39.2046C133.313 38.3989 133.13 37.7983 132.91 37.4028C132.705 37.0073 132.493 36.6924 132.273 36.458C132.053 36.2236 131.87 36.0552 131.724 35.9526C131.577 35.8354 131.504 35.7183 131.504 35.6011C131.504 35.4839 131.577 35.3667 131.724 35.2495C131.87 35.1177 132.053 34.9346 132.273 34.7002C132.493 34.4658 132.705 34.1289 132.91 33.6895C133.423 32.6641 133.679 31.1333 133.679 29.0972C133.679 27.061 133.657 25.4863 133.613 24.373Z" fill="#E22301"/>
</svg>
