<svg width="174" height="87" viewBox="0 0 174 87" fill="none" xmlns="http://www.w3.org/2000/svg">
<path d="M1.50683 0.079925L171.515 0C172.348 0 173.022 0.742097 173.022 1.65543L173.261 63.3397C173.261 64.2644 172.588 65.0065 171.755 65.0065L106.904 65.075C106.505 65.075 106.117 65.2463 105.843 65.566L87.8636 85.5451C87.2814 86.1958 86.3225 86.1958 85.7289 85.5451L67.6242 65.4974C67.3388 65.1892 66.9621 65.0065 66.5626 65.0065H1.64381C0.810489 65.0065 0.136978 64.2645 0.136978 63.3511L0 1.73536C0 0.810606 0.673511 0.0684972 1.50683 0.0684972V0.079925Z" fill="#E22301"/>
<path d="M43.8325 46.1924C43.0562 47.7305 41.877 48.4995 40.2949 48.4995C39.46 48.4995 38.8887 48.397 38.5811 48.1919C38.1123 47.8403 37.812 47.5107 37.6802 47.2031C38.603 46.0898 39.0645 44.6763 39.0645 42.9624C39.0645 41.4829 38.9619 40.3989 38.7568 39.7104C38.5664 39.022 38.3467 38.2603 38.0977 37.4253C37.8633 36.5903 37.6436 35.7773 37.4385 34.9863H37.2847L32.2529 35.0083C32.165 35.3745 32.0112 35.9824 31.7915 36.832C31.5718 37.6816 31.418 38.3262 31.3301 38.7656C31.0371 40.0547 30.8906 41.3218 30.8906 42.5669C30.8906 44.4565 31.4253 46.002 32.4946 47.2031C32.48 47.2324 32.4653 47.2764 32.4507 47.335C32.436 47.3936 32.3774 47.4961 32.2749 47.6426C32.187 47.8037 32.0845 47.9429 31.9673 48.0601C31.645 48.353 31.2495 48.4995 30.7808 48.4995C30.3267 48.4995 29.9238 48.4189 29.5723 48.2578C29.2354 48.0967 28.9717 47.9062 28.7812 47.6865C28.3418 47.2178 28.0415 46.7197 27.8804 46.1924C27.2798 46.793 26.5474 47.3276 25.6831 47.7964C24.8188 48.2651 24.0718 48.4995 23.4419 48.4995C22.4165 48.4995 21.9038 48.1187 21.9038 47.3569V47.2031C23.105 46.251 24.0205 45.2402 24.6504 44.1709C25.2803 43.0869 25.8882 41.4976 26.4741 39.4028L27.6167 35.3818C26.7231 35.6016 25.9248 35.9824 25.2217 36.5244C25.0752 36.5244 24.936 36.4146 24.8042 36.1948C24.687 35.9751 24.6284 35.7114 24.6284 35.4038C24.6284 34.7153 25.1411 34.1074 26.1665 33.5801C25.9028 33.4922 25.6392 33.3091 25.3755 33.0308C24.8774 32.5474 24.6284 32.1519 24.6284 31.8442C24.6284 31.522 24.6504 31.2876 24.6943 31.1411C24.7383 30.98 24.7822 30.8628 24.8262 30.7896C24.9434 30.6431 25.0752 30.5552 25.2217 30.5259C26.1299 31.229 27.2578 31.6758 28.6055 31.8662L31.1543 22.8574C31.7256 20.8359 32.0112 19.2246 32.0112 18.0234C32.0112 16.8223 31.623 15.6138 30.8467 14.3979V14.3101C30.8467 13.4897 31.6743 13.0796 33.3296 13.0796C34.1792 13.0796 35.1021 13.6216 36.0981 14.7056C36.3179 14.9546 36.5449 15.2549 36.7793 15.6064C37.2041 14.5664 38.0391 13.812 39.2842 13.3433C39.7969 13.1675 40.3022 13.0796 40.8003 13.0796C41.2983 13.0796 41.6792 13.1895 41.9429 13.4092C42.2065 13.6289 42.397 13.9585 42.5142 14.3979C42.0894 15.6284 41.877 17.0347 41.877 18.6167C41.877 20.1841 42.0088 21.583 42.2725 22.8135C42.5361 24.0439 42.8657 25.2012 43.2612 26.2852C43.6714 27.3545 44.0522 28.1382 44.4038 28.6362C44.77 29.1343 45.1069 29.5298 45.4146 29.8228C45.7222 30.1011 45.9639 30.3135 46.1396 30.46C46.3301 30.5918 46.4253 30.7236 46.4253 30.8555C46.4253 30.9873 46.3667 31.1338 46.2495 31.2949C46.1323 31.4414 46.0005 31.5952 45.854 31.7563C45.4731 32.1958 45.2827 33.0747 45.2827 34.3931C45.2827 36.8687 45.7881 39.3369 46.7988 41.7979C47.8242 44.2441 49.0254 46.0459 50.4023 47.2031V47.291C50.4023 48.0967 49.6699 48.4995 48.2051 48.4995C46.7549 48.4995 45.2974 47.7305 43.8325 46.1924ZM36.7354 32.064C35.5488 27.2593 34.9189 24.6519 34.8457 24.2417C34.2305 26.7319 33.6006 29.3394 32.9561 32.064C33.7031 32.064 34.5088 32.064 35.373 32.064H36.7354ZM60.2241 47.3569C60.5464 50.5503 61.4399 53.2896 62.9048 55.5747C62.9048 56.0874 62.4946 56.4683 61.6743 56.7173C61.3667 56.8198 60.9346 56.8711 60.3779 56.8711C59.8359 56.8711 59.2646 56.6733 58.6641 56.2778C58.0635 55.897 57.624 55.5161 57.3457 55.1353L56.9502 54.564C56.877 54.7104 56.6938 54.9448 56.4009 55.2671C56.1226 55.604 55.8516 55.8677 55.5879 56.0581C54.8701 56.6001 54.2109 56.8711 53.6104 56.8711C53.0098 56.8711 52.5483 56.8271 52.2261 56.7393C51.9185 56.6514 51.6914 56.5415 51.5449 56.4097C51.252 56.1606 51.0762 55.8823 51.0176 55.5747C52.0137 54.3589 52.7021 53.0112 53.083 51.5317C53.4785 50.0669 53.6763 48.0015 53.6763 45.3354V39.7544C53.6763 38.1138 53.5225 36.9785 53.2148 36.3486C52.9219 35.7041 52.6655 35.25 52.4458 34.9863C52.2261 34.708 52.0283 34.5103 51.8525 34.3931C51.4277 34.1147 51.2153 33.9463 51.2153 33.8877C51.2153 33.8291 51.2959 33.7485 51.457 33.646C51.6182 33.5435 51.8159 33.3823 52.0503 33.1626C52.2847 32.9429 52.519 32.6499 52.7534 32.2837C53.3101 31.4341 53.6177 30.123 53.6763 28.3506C53.6616 26.1973 53.4565 24.52 53.061 23.3188C52.6802 22.103 51.999 20.9824 51.0176 19.957C51.0176 19.4297 51.4277 19.0415 52.248 18.7925C52.5557 18.6899 52.9146 18.6387 53.3247 18.6387C54.8481 18.6387 56.2544 19.7446 57.5435 21.9565C58.4956 20.8726 59.5869 20.0449 60.8174 19.4736C62.0479 18.8877 63.249 18.5947 64.4209 18.5947C65.5928 18.5947 66.6548 18.7925 67.6069 19.188C68.5737 19.5688 69.4453 20.1328 70.2217 20.8799C71.877 22.4912 72.7046 24.8569 72.7046 27.9771C72.7046 30.5698 73.1733 32.313 74.1108 33.2065C74.2427 33.3237 74.3965 33.4556 74.5723 33.6021C74.7627 33.7485 74.8726 33.8364 74.9019 33.8657C74.9019 33.9243 74.8213 34.0122 74.6602 34.1294C74.5137 34.2319 74.3306 34.4004 74.1108 34.6348C73.9058 34.8545 73.6934 35.1548 73.4736 35.5356C72.9609 36.4438 72.7046 37.7549 72.7046 39.4688C72.7046 41.168 72.4849 42.6182 72.0454 43.8193C71.6206 45.0205 71.042 45.98 70.3096 46.6978C68.8008 48.1919 67.0869 48.939 65.168 48.939C63.249 48.939 61.6011 48.4116 60.2241 47.3569ZM60.3779 27.9771C60.3779 30.687 60.9346 32.562 62.0479 33.6021C62.1797 33.7339 62.2456 33.8291 62.2456 33.8877C62.2456 33.9463 62.1431 34.0708 61.938 34.2612C61.7476 34.437 61.5352 34.6714 61.3008 34.9644C61.0664 35.2427 60.8467 35.7993 60.6416 36.6343C60.4512 37.4692 60.356 38.5093 60.356 39.7544C60.356 43.2261 61.3008 44.9619 63.1904 44.9619C65.0947 44.9619 66.0469 43.2261 66.0469 39.7544C66.0469 36.8979 65.4756 35.0229 64.333 34.1294C64.2012 34.0269 64.1353 33.9536 64.1353 33.9097C64.1499 33.8511 64.2524 33.7412 64.4429 33.5801C64.6479 33.4043 64.8237 33.2139 64.9702 33.0088C65.1167 32.7891 65.2852 32.4888 65.4756 32.1079C65.8564 31.2729 66.0469 29.9692 66.0469 28.1968C66.0469 24.4321 65.0801 22.5498 63.1465 22.5498C61.3008 22.5498 60.3779 24.3589 60.3779 27.9771ZM85.9761 47.3569C86.2983 50.5503 87.1919 53.2896 88.6567 55.5747C88.6567 56.0874 88.2466 56.4683 87.4263 56.7173C87.1187 56.8198 86.6865 56.8711 86.1299 56.8711C85.5879 56.8711 85.0166 56.6733 84.416 56.2778C83.8154 55.897 83.376 55.5161 83.0977 55.1353L82.7021 54.564C82.6289 54.7104 82.4458 54.9448 82.1528 55.2671C81.8745 55.604 81.6035 55.8677 81.3398 56.0581C80.6221 56.6001 79.9629 56.8711 79.3623 56.8711C78.7617 56.8711 78.3003 56.8271 77.978 56.7393C77.6704 56.6514 77.4434 56.5415 77.2969 56.4097C77.0039 56.1606 76.8281 55.8823 76.7695 55.5747C77.7656 54.3589 78.4541 53.0112 78.835 51.5317C79.2305 50.0669 79.4282 48.0015 79.4282 45.3354V39.7544C79.4282 38.1138 79.2744 36.9785 78.9668 36.3486C78.6738 35.7041 78.4175 35.25 78.1978 34.9863C77.978 34.708 77.7803 34.5103 77.6045 34.3931C77.1797 34.1147 76.9673 33.9463 76.9673 33.8877C76.9673 33.8291 77.0479 33.7485 77.209 33.646C77.3701 33.5435 77.5679 33.3823 77.8022 33.1626C78.0366 32.9429 78.271 32.6499 78.5054 32.2837C79.062 31.4341 79.3696 30.123 79.4282 28.3506C79.4136 26.1973 79.2085 24.52 78.813 23.3188C78.4321 22.103 77.751 20.9824 76.7695 19.957C76.7695 19.4297 77.1797 19.0415 78 18.7925C78.3076 18.6899 78.6665 18.6387 79.0767 18.6387C80.6001 18.6387 82.0063 19.7446 83.2954 21.9565C84.2476 20.8726 85.3389 20.0449 86.5693 19.4736C87.7998 18.8877 89.001 18.5947 90.1729 18.5947C91.3447 18.5947 92.4067 18.7925 93.3589 19.188C94.3257 19.5688 95.1973 20.1328 95.9736 20.8799C97.6289 22.4912 98.4565 24.8569 98.4565 27.9771C98.4565 30.5698 98.9253 32.313 99.8628 33.2065C99.9946 33.3237 100.148 33.4556 100.324 33.6021C100.515 33.7485 100.625 33.8364 100.654 33.8657C100.654 33.9243 100.573 34.0122 100.412 34.1294C100.266 34.2319 100.083 34.4004 99.8628 34.6348C99.6577 34.8545 99.4453 35.1548 99.2256 35.5356C98.7129 36.4438 98.4565 37.7549 98.4565 39.4688C98.4565 41.168 98.2368 42.6182 97.7974 43.8193C97.3726 45.0205 96.7939 45.98 96.0615 46.6978C94.5527 48.1919 92.8389 48.939 90.9199 48.939C89.001 48.939 87.353 48.4116 85.9761 47.3569ZM86.1299 27.9771C86.1299 30.687 86.6865 32.562 87.7998 33.6021C87.9316 33.7339 87.9976 33.8291 87.9976 33.8877C87.9976 33.9463 87.895 34.0708 87.6899 34.2612C87.4995 34.437 87.2871 34.6714 87.0527 34.9644C86.8184 35.2427 86.5986 35.7993 86.3936 36.6343C86.2031 37.4692 86.1079 38.5093 86.1079 39.7544C86.1079 43.2261 87.0527 44.9619 88.9424 44.9619C90.8467 44.9619 91.7988 43.2261 91.7988 39.7544C91.7988 36.8979 91.2275 35.0229 90.085 34.1294C89.9531 34.0269 89.8872 33.9536 89.8872 33.9097C89.9019 33.8511 90.0044 33.7412 90.1948 33.5801C90.3999 33.4043 90.5757 33.2139 90.7222 33.0088C90.8687 32.7891 91.0371 32.4888 91.2275 32.1079C91.6084 31.2729 91.7988 29.9692 91.7988 28.1968C91.7988 24.4321 90.832 22.5498 88.8984 22.5498C87.0527 22.5498 86.1299 24.3589 86.1299 27.9771ZM111.398 48.5215C109.992 48.5215 108.901 48.0308 108.125 47.0493C107.714 47.6646 107.019 48.104 106.037 48.3677C105.656 48.4702 105.268 48.5215 104.873 48.5215C104.477 48.5215 104.14 48.4775 103.862 48.3896C103.583 48.3164 103.371 48.2212 103.225 48.104C102.946 47.8696 102.785 47.6133 102.741 47.335C103.796 46.7637 104.44 46.1118 104.675 45.3794C104.938 44.5884 105.078 43.7534 105.092 42.8745C105.122 41.981 105.136 41.0654 105.136 40.1279C105.136 39.1904 105.063 38.3262 104.917 37.5352C104.77 36.7295 104.587 36.1289 104.367 35.7334C104.162 35.3379 103.95 35.0229 103.73 34.7886C103.51 34.5542 103.327 34.3857 103.181 34.2832C103.034 34.166 102.961 34.0415 102.961 33.9097C102.961 33.7632 103.034 33.6094 103.181 33.4482C103.327 33.2725 103.51 33.0161 103.73 32.6792C103.95 32.3423 104.162 31.8589 104.367 31.229C104.88 29.7495 105.136 27.2959 105.136 23.8682C105.136 20.4404 104.96 17.8916 104.609 16.2217C104.257 14.5371 103.627 13.0356 102.719 11.7173C102.719 11.2485 103.093 10.897 103.84 10.6626C104.118 10.5747 104.448 10.5308 104.829 10.5308C106.337 10.5308 107.443 11.0947 108.146 12.2227C108.601 11.5488 109.318 11.0435 110.3 10.7065C110.666 10.5894 111.04 10.5308 111.42 10.5308C111.801 10.5308 112.131 10.5747 112.409 10.6626C112.688 10.7358 112.893 10.8311 113.024 10.9482C113.317 11.1826 113.486 11.439 113.53 11.7173C112.622 13.0356 111.992 14.5371 111.64 16.2217C111.289 17.8916 111.113 19.957 111.113 22.418C111.113 24.8789 111.186 26.8125 111.333 28.2188C111.479 29.6104 111.662 30.6211 111.882 31.251C112.102 31.8662 112.314 32.3423 112.519 32.6792C112.739 33.0161 112.922 33.2725 113.068 33.4482C113.215 33.6094 113.288 33.7632 113.288 33.9097C113.288 34.0415 113.215 34.166 113.068 34.2832C112.922 34.3857 112.739 34.5542 112.519 34.7886C112.314 35.0229 112.102 35.3379 111.882 35.7334C111.369 36.6562 111.113 38.1943 111.113 40.3477C111.113 42.6914 111.157 44.0317 111.245 44.3687C111.347 44.7056 111.45 45.0425 111.552 45.3794C111.669 45.7017 111.816 45.9507 111.992 46.1265C112.49 46.6538 112.995 47.0566 113.508 47.335C113.508 47.8037 113.142 48.1553 112.409 48.3896C112.116 48.4775 111.779 48.5215 111.398 48.5215ZM135.173 20.748C136.242 19.3271 137.341 18.6167 138.469 18.6167C139.245 18.6167 139.714 18.7266 139.875 18.9463C140.124 19.2539 140.249 19.5103 140.249 19.7153V19.8032C137.846 21.4878 136.242 23.8462 135.437 26.8784C135.056 28.2554 134.865 29.376 134.865 30.2402C134.865 31.0898 134.917 31.9028 135.019 32.6792C135.136 33.4556 135.195 33.873 135.195 33.9316C135.195 33.9902 135.166 34.0269 135.107 34.0415C134.287 34.4517 133.393 35.9092 132.426 38.4141C131.459 40.9189 130.698 44.3906 130.141 48.8291C129.804 51.5391 128.889 53.5752 127.395 54.9375C125.9 56.3145 124.062 57.0029 121.879 57.0029C119.697 57.0029 117.873 56.439 116.408 55.311C114.958 54.1831 114.233 52.6377 114.233 50.6748C114.233 49.8984 114.365 49.1587 114.628 48.4556C115.039 47.3569 115.244 46.5879 115.244 46.1484C115.244 45.709 115.148 45.2915 114.958 44.896C115.061 44.8667 115.295 44.8521 115.661 44.8521C116.042 44.8521 116.43 45.0205 116.826 45.3574C117.236 45.6797 117.521 46.0825 117.683 46.5659C118.005 47.4448 118.166 48.0381 118.166 48.3457V48.895C118.166 48.9536 118.159 49.0195 118.144 49.0928C118.745 48.9023 119.426 48.8071 120.188 48.8071C120.964 48.8071 121.579 49.0195 122.033 49.4443C122.502 49.8691 122.736 50.2061 122.736 50.4551C122.736 50.7188 122.714 50.8945 122.67 50.9824C122.29 50.9531 121.989 50.9385 121.77 50.9385C120.085 50.9385 119.243 51.4365 119.243 52.4326C119.243 53.2822 119.492 53.9414 119.99 54.4102C120.502 54.8936 121.125 55.1353 121.857 55.1353C122.59 55.1353 123.234 54.8496 123.791 54.2783C124.348 53.707 124.626 52.9014 124.626 51.8613L124.538 50.6748C124.392 48.9902 123.718 45.5918 122.517 40.4795C121.682 37.5498 120.642 35.6235 119.396 34.7007C119.104 34.481 118.876 34.3198 118.715 34.2173C118.554 34.1001 118.474 33.9902 118.474 33.8877C118.474 33.7705 118.562 33.646 118.737 33.5142C119.235 33.1187 119.484 32.4009 119.484 31.3608C119.484 30.3208 119.221 28.856 118.693 26.9663C118.181 25.062 117.609 23.6191 116.979 22.6377C116.364 21.6562 115.471 20.7114 114.299 19.8032C114.284 19.7739 114.277 19.7153 114.277 19.6274C114.277 19.5249 114.313 19.4077 114.387 19.2759C114.445 19.1294 114.614 18.9829 114.892 18.8364C115.185 18.6899 115.581 18.6167 116.079 18.6167C117.88 18.6167 119.711 19.4736 121.572 21.1875C121.674 20.6455 121.887 20.1768 122.209 19.7812C122.546 19.3711 122.868 19.0781 123.176 18.9023C123.498 18.7119 123.835 18.6167 124.187 18.6167C124.538 18.6167 124.853 18.6606 125.131 18.7485C125.41 18.8218 125.622 18.917 125.769 19.0342C126.076 19.2686 126.289 19.5249 126.406 19.8032C125.659 20.7993 125.285 21.8687 125.285 23.0112C125.285 23.436 125.38 24.0952 125.571 24.9888C125.761 25.8677 125.974 26.9517 126.208 28.2407C126.882 31.7563 127.541 35.0449 128.186 38.1064L128.515 39.6665C129.116 37.7476 129.416 36.4146 129.416 35.6675C129.416 34.9058 129.313 34.2905 129.108 33.8218C129.108 33.7632 129.167 33.6606 129.284 33.5142C129.416 33.3677 129.577 33.1479 129.768 32.855C129.973 32.5474 130.185 32.1592 130.405 31.6904C130.947 30.5186 131.328 29.0317 131.547 27.23C131.782 25.4282 131.899 23.9927 131.899 22.9233C131.899 21.8394 131.525 20.7993 130.778 19.8032C131.174 19.0122 131.914 18.6167 132.998 18.6167C133.496 18.6167 133.92 18.7925 134.272 19.144C134.638 19.4956 134.88 19.8472 134.997 20.1987L135.173 20.748ZM149.609 12.5303C149.99 12.5303 150.319 12.5742 150.598 12.6621C151.301 12.8672 151.674 13.2187 151.718 13.7168C151.118 14.5664 150.708 15.3135 150.488 15.958C150.327 16.4121 150.202 16.793 150.114 17.1006C150.041 17.4082 149.953 17.9355 149.851 18.6826C149.763 19.415 149.689 20.0376 149.631 20.5503C149.587 21.063 149.499 22.0371 149.367 23.4727C149.25 24.8936 149.067 26.5488 148.818 28.4385C147.895 35.2646 147.06 38.6777 146.313 38.6777C146.137 38.5752 145.852 38.0405 145.456 37.0737C144.943 35.3159 144.401 32.4229 143.83 28.3945C143.61 26.8857 143.464 25.7651 143.391 25.0327C143.317 24.2856 143.222 23.2603 143.105 21.9565C142.988 20.6528 142.871 19.5469 142.753 18.6387C142.519 16.749 141.904 15.1084 140.908 13.7168C140.908 13.6582 140.93 13.5776 140.974 13.4751C141.003 13.4165 141.047 13.3433 141.105 13.2554C141.164 13.1675 141.245 13.0869 141.347 13.0137C141.45 12.9258 141.574 12.8452 141.721 12.772C141.867 12.6987 142.05 12.6401 142.27 12.5962C142.49 12.5522 142.761 12.5303 143.083 12.5303C143.42 12.5303 143.779 12.5889 144.16 12.7061C145.083 13.0137 145.8 13.519 146.313 14.2222C147.207 13.0942 148.305 12.5303 149.609 12.5303ZM146.269 50.1255C146.137 50.1255 145.324 49.4443 143.83 48.082C142.351 46.7344 141.611 46.0166 141.611 45.9287C141.611 45.9287 142.38 45.2622 143.918 43.9292C145.471 42.5815 146.247 41.9077 146.247 41.9077L150.883 46.0825C150.883 46.0825 150.114 46.7563 148.576 48.104C147.038 49.4517 146.269 50.1255 146.269 50.1255Z" fill="white"/>
</svg>
