<svg width="135" height="128" viewBox="0 0 135 128" fill="none" xmlns="http://www.w3.org/2000/svg">
<path d="M4.68293 47.054C16.7147 47.0493 28.7418 47.0445 40.7736 47.0398C41.1659 47.0398 41.4827 46.7231 41.4827 46.3307C41.5016 32.3227 41.5158 18.3101 41.5347 4.30216C41.5347 3.90977 41.8515 3.59302 42.2438 3.59302C59.3909 3.59302 76.5427 3.59774 93.6898 3.60247C94.0822 3.60247 94.3989 3.91922 94.3989 4.31162L94.3895 46.7089C94.3895 46.9169 94.2996 47.1155 94.1389 47.2526C76.6656 61.998 59.1971 76.7387 41.7238 91.4841C41.5962 91.5929 41.4354 91.6496 41.2652 91.6496L4.69711 91.6638C4.30472 91.6638 3.98797 91.347 3.98797 90.9547C3.98797 76.5591 3.97852 62.1587 3.97852 47.7631C3.97852 47.3707 4.29527 47.054 4.68766 47.054H4.68293Z" fill="#FFC01D"/>
<path d="M42.2161 128C59.3727 127.995 76.5292 127.991 93.6857 127.986C94.0781 127.986 94.3948 127.669 94.3948 127.277C94.3948 115.642 94.3996 104.007 94.4043 92.3728C94.4043 91.9804 94.721 91.6636 95.1134 91.6636C106.758 91.6636 118.402 91.6636 130.046 91.6683C130.438 91.6683 130.755 91.3516 130.755 90.9592C130.75 76.5589 130.745 62.1586 130.741 47.7535C130.741 47.3611 130.424 47.0444 130.032 47.0444L94.6501 47.0349C94.4847 47.0349 94.3192 47.0964 94.1916 47.2004C76.7183 61.9458 59.2497 76.6865 41.7765 91.432C41.6157 91.5643 41.5259 91.7629 41.5259 91.9756C41.5212 103.747 41.5164 115.519 41.5117 127.291C41.5117 127.683 41.8285 128 42.2209 128H42.2161Z" fill="#DC2302"/>
<path d="M62.8711 8.80298L67.4853 19.8136C69.0028 16.1544 70.5204 12.4952 72.0379 8.83607" fill="#95D8FF"/>
<path d="M73.918 8.42938C76.0832 11.5449 78.2532 14.6604 80.4184 17.7711L82.1487 5.2146" fill="#A9DCB8"/>
<path d="M86.1389 9.5354C85.4581 13.9226 84.7726 18.3146 84.0918 22.7018C86.3374 21.0282 88.5878 19.3547 90.8334 17.6811" fill="#FFCBC4"/>
<path d="M91.7677 19.2415C90.4109 23.085 89.0541 26.9238 87.6973 30.7674C91.0113 29.5524 94.3301 28.3374 97.6442 27.1271" fill="#95D8FF"/>
<path d="M98.7014 28.4697L94.0684 38.965C97.6283 37.6129 101.188 36.2656 104.748 34.9135" fill="#A9DCB8"/>
<path d="M105.971 36.1377L102.832 46.6614C106.113 45.0729 109.394 43.4844 112.67 41.8959" fill="#FFCBC4"/>
<path d="M114.003 42.9458L112.174 53.7768C115.233 51.8006 118.296 49.8198 121.355 47.8436" fill="#95D8FF"/>
<path d="M122.725 48.6235L121.912 59.5774C124.777 57.3224 127.637 55.0673 130.502 52.8122" fill="#A9DCB8"/>
<path d="M48.7863 9.56396C49.4671 13.9512 50.1526 18.3431 50.8334 22.7304C48.5878 21.0568 46.3374 19.3832 44.0918 17.7096" fill="#A9DCB8"/>
<path d="M43.1557 19.2744C44.5125 23.118 45.8694 26.9568 47.2262 30.8003C43.9121 29.5853 40.5934 28.3703 37.2793 27.1601" fill="#95D8FF"/>
<path d="M36.2244 28.5027L40.8574 38.998C37.2975 37.6459 33.7376 36.2985 30.1777 34.9464" fill="#FFCBC4"/>
<path d="M28.9588 36.1709L32.0979 46.6946C28.817 45.1061 25.536 43.5176 22.2598 41.9291" fill="#A9DCB8"/>
<path d="M20.9237 42.9739L22.7533 53.8048C19.6945 51.8287 16.631 49.8478 13.5723 47.8717" fill="#95D8FF"/>
<path d="M12.1988 48.6565L13.012 59.6104C10.147 57.3553 7.28681 55.1002 4.42188 52.8452" fill="#FFCBC4"/>
<path d="M61.1195 8.50946C58.9542 11.625 56.7842 14.7405 54.619 17.8512L52.8887 5.29468" fill="#FFCBC4"/>
<path d="M130.873 52.8025C125.64 50.4435 119.773 47.2192 113.807 42.7705C96.5982 29.9445 87.8237 13.8753 83.5783 4.16955C80.5243 6.03696 75.8629 8.24948 69.9297 8.81679C67.6794 9.02954 65.9443 8.93971 65.169 8.88771C59.2359 8.47168 54.4515 6.18824 51.1895 4.09863" stroke="#666666" stroke-width="0.25" stroke-miterlimit="10"/>
<path d="M3.99219 52.8404C9.22566 50.4813 15.0926 47.2571 21.0589 42.8084C38.2674 29.9824 47.0419 13.9132 51.2873 4.20739C54.3413 6.0748 59.0027 8.28732 64.9359 8.85464C67.1862 9.06738 68.9213 8.97755 69.6966 8.92555C75.6298 8.50952 80.4141 6.22608 83.6762 4.13647" stroke="#666666" stroke-width="0.25" stroke-miterlimit="10"/>
<path d="M17.1279 47.9994L17.09 48.3587L16.5606 48.6282L16.6031 48.9686L16.2674 49.1907L16.3384 49.5595L16.4518 49.9992L16.1823 50.2356L16.2485 50.732L15.9932 50.9967L15.3597 50.8218L15.4165 51.46L14.7215 50.9967L14.5939 51.4269L14.2771 51.5262L14.0171 51.8193L13.6862 51.9186L13.2985 51.4742L12.9959 51.6018L12.6319 52.1266L12.3388 51.7011L11.9559 51.876L11.5587 51.9328L11.4925 51.2142L11.1285 51.2236L10.5801 51.4458L10.5659 50.8974L10.183 50.8076L9.90407 50.5949L9.58259 50.3868L9.90407 49.7864L9.78588 49.498L9.66769 49.2097L9.02946 49.0631L9.49749 48.6187L9.64405 48.2925L8.91127 47.9994L9.25166 47.6732L8.82617 47.2666L8.8829 46.8979L9.73387 46.8128L9.54477 46.392L9.78588 46.1462L10.1641 46.0185L10.4288 45.8483L10.1688 45.177L10.5801 45.1203L10.9536 45.0872L10.9867 44.5199L11.2798 44.3213L11.7337 44.5388L12.0977 44.6475L12.2726 43.9053L12.6555 44.1417L12.9959 44.3686L13.3174 44.2882L13.6814 44.0897L13.8989 44.6191L14.1731 44.7657L14.7499 44.2315L15.0761 44.3969L15.3786 44.5955L15.1659 45.4087L15.3739 45.6214L15.9318 45.5363L15.7569 46.0658L16.0831 46.2171L16.3289 46.444L16.2296 46.8222L16.5889 47.035L16.9246 47.3044L16.5606 47.6874L17.1279 47.9994Z" fill="url(#paint0_radial_497_138)"/>
<path d="M8.30169 52.7793L8.26387 53.1338L7.73438 53.408L7.77693 53.7437L7.44127 53.9706L7.51218 54.3394L7.62564 54.7743L7.35617 55.0107L7.42236 55.5118L7.16707 55.7766L6.53357 55.5969L6.5903 56.2352L5.89534 55.7766L5.76769 56.2068L5.45094 56.3061L5.19092 56.5944L4.85999 56.6985L4.47232 56.2541L4.16976 56.377L3.80573 56.9017L3.51262 56.481L3.12968 56.6559L2.73729 56.7126L2.66638 55.994L2.30708 56.0035L1.75395 56.2257L1.73976 55.6726L1.35683 55.5875L1.0779 55.37L0.756419 55.1667L1.0779 54.5616L0.959706 54.2732L0.841516 53.9895L0.203288 53.8383L0.671322 53.3939L0.817878 53.0724L0.0850971 52.7793L0.425485 52.4483L0 52.0418L0.0567314 51.6777L0.907702 51.5926L0.718598 51.1719L0.959706 50.926L1.33792 50.7937L1.60266 50.6235L1.34264 49.9521L1.75395 49.9001L2.12743 49.8623L2.16052 49.2997L2.45363 49.1012L2.90748 49.3139L3.27151 49.4274L3.44643 48.6804L3.82937 48.9215L4.16976 49.1485L4.49124 49.0634L4.85526 48.8695L5.07273 49.3943L5.34693 49.5456L5.9237 49.0114L6.24991 49.1768L6.55248 49.3754L6.33973 50.1885L6.54775 50.3965L7.10561 50.3114L6.93069 50.8409L7.25689 50.9922L7.50273 51.2239L7.40345 51.6021L7.76275 51.8148L8.09841 52.0843L7.73438 52.4672L8.30169 52.7793Z" fill="url(#paint1_radial_497_138)"/>
<path d="M33.7607 35.391L33.7229 35.7503L33.1934 36.0198L33.2359 36.3554L32.9003 36.5824L32.9759 36.9511L33.0894 37.3908L32.8152 37.6272L32.8813 38.1236L32.6261 38.3883L31.9925 38.2134L32.0493 38.8469L31.3543 38.3883L31.2267 38.8185L30.9099 38.9178L30.6499 39.2062L30.319 39.3102L29.9313 38.8658L29.6287 38.9887L29.2647 39.5182L28.9716 39.0927L28.5887 39.2676L28.1963 39.3244L28.1254 38.6058L27.7661 38.6152L27.2129 38.8374L27.1987 38.2843L26.8158 38.1992L26.5369 37.9817L26.2154 37.7784L26.5369 37.1733L26.4187 36.8849L26.3005 36.6013L25.6623 36.4547L26.1303 36.0056L26.2769 35.6841L25.5441 35.391L25.8845 35.0648L25.459 34.6535L25.5157 34.2895L26.3667 34.2044L26.1823 33.7836L26.4187 33.5378L26.7969 33.4101L27.0616 33.2399L26.8016 32.5686L27.2129 32.5119L27.5864 32.4741L27.6195 31.9115L27.9126 31.7129L28.3665 31.9256L28.7305 32.0391L28.9054 31.2969L29.2884 31.5333L29.6287 31.7602L29.9502 31.6798L30.319 31.4813L30.5317 32.0107L30.8059 32.1573L31.3827 31.6231L31.7089 31.7885L32.0115 31.9871L31.7987 32.8003L32.0067 33.0083L32.5646 32.9232L32.3897 33.4574L32.7159 33.6087L32.9664 33.8356L32.8624 34.2138L33.2265 34.4266L33.5621 34.696L33.1981 35.079L33.7607 35.391Z" fill="url(#paint2_radial_497_138)"/>
<path d="M40.9579 27.8076L40.9201 28.1622L40.3906 28.4364L40.4332 28.772L40.0975 28.9989L40.1684 29.3677L40.2819 29.8026L40.0124 30.039L40.0786 30.5401L39.8233 30.8049L39.1898 30.6252L39.2465 31.2635L38.5516 30.8049L38.4239 31.2351L38.1072 31.3344L37.8472 31.6228L37.5162 31.7268L37.1286 31.2824L36.826 31.4053L36.462 31.9301L36.1689 31.5093L35.7859 31.6842L35.3935 31.741L35.3226 31.0224L34.9633 31.0318L34.4102 31.254L34.396 30.7009L34.0131 30.6158L33.7341 30.3983L33.4127 30.195L33.7341 29.5899L33.616 29.3015L33.4978 29.0179L32.8595 28.8666L33.3276 28.4222L33.4741 28.1007L32.7413 27.8076L33.0817 27.4767L32.6562 27.0701L32.713 26.706L33.564 26.621L33.3748 26.2002L33.616 25.9544L33.9942 25.822L34.2589 25.6565L33.9989 24.9805L34.4102 24.9285L34.7837 24.8906L34.8168 24.3281L35.1099 24.1295L35.5637 24.3422L35.9278 24.4557L36.1027 23.7087L36.4856 23.9498L36.826 24.1768L37.1475 24.0917L37.5115 23.8978L37.729 24.4273L38.0032 24.5739L38.58 24.0397L38.9062 24.2051L39.2087 24.4037L38.996 25.2168L39.204 25.4249L39.7619 25.3398L39.5869 25.874L39.9131 26.0205L40.159 26.2522L40.0597 26.6304L40.419 26.8432L40.7594 27.1126L40.3906 27.4956L40.9579 27.8076Z" fill="url(#paint3_radial_497_138)"/>
<path d="M47.6767 18.4091L47.6341 18.7637L47.1094 19.0379L47.1472 19.3736L46.8163 19.6005L46.8872 19.9693L47.0006 20.4042L46.7312 20.6406L46.7974 21.1417L46.5373 21.4065L45.9086 21.2268L45.9606 21.865L45.2703 21.4017L45.138 21.8367L44.8259 21.9359L44.5659 22.2243L44.2303 22.3283L43.8473 21.8792L43.54 22.0069L43.1807 22.5316L42.8876 22.1109L42.5 22.2858L42.1076 22.3425L42.0414 21.6239L41.6774 21.6334L41.1289 21.8509L41.11 21.3024L40.7318 21.2174L40.4529 20.9999L40.1314 20.7966L40.4482 20.1915L40.33 19.9031L40.2165 19.6194L39.5783 19.4681L40.0463 19.0237L40.1929 18.7023L39.4554 18.4091L39.8005 18.0782L39.375 17.6716L39.4317 17.3076L40.278 17.2178L40.0936 16.8018L40.3347 16.5559L40.7082 16.4235L40.9777 16.2534L40.7176 15.582L41.1242 15.53L41.5024 15.4922L41.5308 14.9296L41.8239 14.7311L42.2825 14.9438L42.6418 15.0573L42.8167 14.3103L43.2044 14.5514L43.54 14.7783L43.8662 14.6932L44.2303 14.4994L44.4477 15.0242L44.7172 15.1755L45.2987 14.6412L45.6202 14.802L45.9227 15.0053L45.7147 15.8184L45.9227 16.0264L46.4806 15.9413L46.3057 16.4708L46.6319 16.6221L46.8777 16.849L46.7784 17.2272L47.1377 17.4447L47.4734 17.7142L47.1094 18.0924L47.6767 18.4091Z" fill="url(#paint4_radial_497_138)"/>
<path d="M55.3603 4.09412L55.3225 4.45341L54.793 4.72289L54.8355 5.06328L54.4999 5.28548L54.5708 5.65423L54.6842 6.0939L54.4148 6.33028L54.4809 6.82668L54.2257 7.09142L53.5922 6.9165L53.6489 7.55473L52.9539 7.09142L52.8263 7.52164L52.5095 7.62092L52.2495 7.91403L51.9186 8.01331L51.5309 7.56891L51.2236 7.69656L50.8643 8.22132L50.5712 7.79584L50.1883 7.97076L49.7912 8.03222L49.725 7.31362L49.3609 7.32308L48.8125 7.54055L48.7936 6.99214L48.4154 6.90705L48.1365 6.68958L47.815 6.48156L48.1365 5.88116L48.0183 5.59277L47.9001 5.30439L47.2619 5.15783L47.7299 4.71343L47.8765 4.38723L47.1437 4.09412L47.4841 3.76791L47.0586 3.36134L47.1153 2.99258L47.9663 2.90748L47.7772 2.48673L48.0183 2.24562L48.3965 2.11324L48.6613 1.94305L48.4012 1.27173L48.8125 1.215L49.186 1.1819L49.2191 0.61459L49.5122 0.41603L49.9661 0.633501L50.3301 0.746963L50.505 0L50.888 0.241108L51.2236 0.468034L51.5498 0.382937L51.9139 0.184377L52.1313 0.71387L52.4055 0.860426L52.9823 0.330933L53.3085 0.491672L53.6111 0.690232L53.3983 1.50811L53.6063 1.71612L54.1642 1.63103L53.9893 2.16052L54.3155 2.3118L54.5613 2.53873L54.462 2.91694L54.8213 3.12968L55.157 3.40388L54.793 3.78209L55.3603 4.09412Z" fill="url(#paint5_radial_497_138)"/>
<path d="M66.1435 8.24963L66.1057 8.60893L65.5762 8.87841L65.6187 9.21879L65.2831 9.44099L65.354 9.80975L65.4674 10.2494L65.198 10.4858L65.2642 10.9822L65.0041 11.2469L64.3754 11.072L64.4321 11.7102L63.7371 11.2469L63.6048 11.6772L63.2927 11.7764L63.0327 12.0695L62.7018 12.1688L62.3141 11.7244L62.0068 11.8521L61.6475 12.3768L61.3544 11.9514L60.9715 12.1263L60.5744 12.183L60.5082 11.4691L60.1441 11.4786L59.5957 11.6961L59.5768 11.1477L59.1986 11.0626L58.9197 10.8451L58.5982 10.6371L58.9197 10.0367L58.7968 9.74829L58.6833 9.4599L58.0451 9.31335L58.5131 8.86895L58.6597 8.54275L57.9269 8.24963L58.2673 7.92343L57.8418 7.51685L57.8985 7.1481L58.7495 7.063L58.5604 6.64224L58.8015 6.39641L59.1797 6.26876L59.4445 6.09857L59.1844 5.42725L59.5957 5.37051L59.9692 5.33742L60.0023 4.77011L60.2954 4.57155L60.7493 4.78902L61.1086 4.89775L61.2882 4.15552L61.6712 4.39663L62.0068 4.61882L62.333 4.53845L62.6971 4.33989L62.9145 4.86939L63.184 5.01594L63.7655 4.48172L64.0917 4.64719L64.3943 4.84575L64.1815 5.66363L64.3895 5.87164L64.9474 5.78655L64.7725 6.31604L65.0987 6.46732L65.3445 6.69425L65.2452 7.07246L65.6045 7.2852L65.9402 7.55467L65.5762 7.93761L66.1435 8.24963Z" fill="url(#paint6_radial_497_138)"/>
<path d="M76.9951 8.28284L76.9525 8.64214L76.4277 8.91161L76.4656 9.252L76.1346 9.4742L76.2055 9.84295L76.319 10.2826L76.0495 10.519L76.1157 11.0154L75.8557 11.2801L75.2269 11.1052L75.2837 11.7435L74.5887 11.2801L74.4563 11.7104L74.1443 11.8096L73.8843 12.1028L73.5533 12.202L73.1657 11.7576L72.8584 11.8853L72.4991 12.41L72.206 11.9846L71.823 12.1595L71.4259 12.2162L71.3597 11.4976L70.9957 11.5118L70.4473 11.7293L70.4284 11.1809L70.0502 11.091L69.7713 10.8783L69.4498 10.6703L69.7665 10.0699L69.6483 9.78149L69.5349 9.49311L68.8966 9.34655L69.3647 8.90215L69.5112 8.57595L68.7785 8.28284L69.1188 7.95663L68.6934 7.55006L68.7501 7.1813L69.6011 7.09621L69.412 6.67545L69.6531 6.42961L70.0265 6.30197L70.296 6.13177L70.036 5.46045L70.4426 5.40372L70.8208 5.37062L70.8539 4.80331L71.147 4.60475L71.6008 4.82222L71.9601 4.93096L72.1398 4.18872L72.5227 4.4251L72.8584 4.65203L73.1846 4.57166L73.5486 4.3731L73.7661 4.90259L74.0356 5.04915L74.6171 4.51493L74.9433 4.68039L75.2458 4.87895L75.0331 5.69683L75.2411 5.90485L75.799 5.81975L75.624 6.34924L75.9502 6.50053L76.1961 6.72745L76.0968 7.10566L76.4561 7.3184L76.7918 7.58788L76.4277 7.97081L76.9951 8.28284Z" fill="url(#paint7_radial_497_138)"/>
<path d="M87.5458 4.12707L87.508 4.48637L86.9785 4.75585L87.0211 5.09624L86.6854 5.31843L86.7563 5.68719L86.8698 6.12686L86.6003 6.36324L86.6665 6.85964L86.4065 7.12438L85.7777 6.94946L85.8344 7.58769L85.1395 7.12438L85.0071 7.5546L84.6951 7.65388L84.4351 7.94699L84.1041 8.04627L83.7165 7.60187L83.4092 7.72952L83.0499 8.25428L82.7568 7.8288L82.3738 8.00372L81.9767 8.06518L81.9105 7.34658L81.5465 7.35604L80.9981 7.57351L80.9792 7.0251L80.601 6.94001L80.322 6.72254L80.0006 6.51452L80.322 5.91411L80.1991 5.62573L80.0857 5.33735L79.4474 5.19079L79.9155 4.74639L80.062 4.42019L79.3292 4.12707L79.6696 3.80087L79.2441 3.39429L79.3009 3.02554L80.1518 2.94044L79.9627 2.51969L80.2038 2.27858L80.5821 2.1462L80.8468 1.97601L80.5868 1.30469L80.9981 1.24796L81.3716 1.21486L81.4047 0.647549L81.6978 0.448989L82.1516 0.66646L82.5109 0.775195L82.6906 0.032959L83.0735 0.274067L83.4092 0.500993L83.7354 0.415896L84.0994 0.217336L84.3169 0.746829L84.5863 0.893385L85.1678 0.363892L85.4941 0.524631L85.7966 0.723191L85.5839 1.54107L85.7919 1.74908L86.3497 1.66399L86.1748 2.19348L86.501 2.34476L86.7469 2.57169L86.6476 2.9499L87.0069 3.16264L87.3425 3.43684L86.9785 3.81505L87.5458 4.12707Z" fill="url(#paint8_radial_497_138)"/>
<path d="M89.5497 7.8241L89.5072 8.18339L88.9824 8.45287L89.0202 8.79326L88.6893 9.01546L88.7602 9.38421L88.8737 9.82388L88.6042 10.0603L88.6704 10.5567L88.4104 10.8214L87.7816 10.6465L87.8336 11.2847L87.1434 10.8214L87.011 11.2516L86.699 11.3509L86.439 11.644L86.1033 11.7433L85.7204 11.2989L85.4131 11.4265L85.0538 11.9513L84.7607 11.5258L84.373 11.7007L83.9806 11.7575L83.9144 11.0389L83.5504 11.0483L83.002 11.2705L82.9831 10.7221L82.6049 10.6323L82.3259 10.4196L82.0045 10.2115L82.3212 9.61114L82.203 9.32275L82.0896 9.03437L81.4513 8.88781L81.9194 8.44341L82.0659 8.11721L81.3284 7.8241L81.6735 7.49789L81.248 7.09132L81.3048 6.72256L82.151 6.63746L81.9666 6.21671L82.2078 5.97087L82.5812 5.84322L82.8507 5.67303L82.5907 5.00171L82.9973 4.94498L83.3755 4.91188L83.4038 4.34457L83.7017 4.14601L84.1555 4.36348L84.5148 4.47222L84.6898 3.72998L85.0774 3.96636L85.4131 4.19329L85.7393 4.11292L86.1033 3.91436L86.3208 4.44385L86.5903 4.59041L87.1717 4.05619L87.4932 4.22165L87.7958 4.42021L87.5878 5.23336L87.7958 5.4461L88.3537 5.36101L88.1787 5.8905L88.5049 6.04179L88.7508 6.26871L88.6515 6.64692L89.0108 6.85966L89.3465 7.12914L88.9824 7.51207L89.5497 7.8241Z" fill="url(#paint9_radial_497_138)"/>
<path d="M109.302 35.0941L109.259 35.4534L108.734 35.7229L108.772 36.0633L108.441 36.2855L108.512 36.6542L108.626 37.0939L108.356 37.3303L108.422 37.8267L108.162 38.0914L107.534 37.9165L107.586 38.5547L106.895 38.0914L106.763 38.5216L106.451 38.6209L106.191 38.914L105.855 39.0133L105.472 38.5689L105.165 38.6966L104.806 39.2213L104.513 38.7958L104.125 38.9708L103.733 39.0275L103.666 38.3089L103.302 38.3184L102.754 38.5405L102.735 37.9921L102.357 37.9023L102.078 37.6896L101.756 37.4816L102.073 36.8812L101.955 36.5928L101.842 36.3044L101.203 36.1578L101.671 35.7134L101.818 35.3872L101.08 35.0941L101.425 34.7679L101 34.3613L101.057 33.9926L101.903 33.9075L101.719 33.4867L101.96 33.2409L102.333 33.1132L102.603 32.9431L102.343 32.2717L102.749 32.215L103.127 32.1819L103.156 31.6146L103.454 31.416L103.907 31.6335L104.267 31.7422L104.442 31L104.829 31.2364L105.165 31.4633L105.491 31.3829L105.855 31.1844L106.073 31.7139L106.342 31.8604L106.924 31.3262L107.245 31.4917L107.548 31.6902L107.34 32.5034L107.548 32.7161L108.106 32.631L107.931 33.1605L108.257 33.3118L108.503 33.5387L108.403 33.9169L108.763 34.1297L109.098 34.3992L108.734 34.7821L109.302 35.0941Z" fill="url(#paint10_radial_497_138)"/>
<path d="M95.2197 18.4471L95.1818 18.8064L94.6571 19.0806L94.6949 19.4163L94.364 19.6432L94.4349 20.012L94.5483 20.4469L94.2789 20.6833L94.345 21.1797L94.085 21.4492L93.4563 21.2695L93.5083 21.9078L92.818 21.4445L92.6857 21.8747L92.3736 21.9739L92.1089 22.2671L91.778 22.3663L91.3903 21.9219L91.0877 22.0496L90.7284 22.5744L90.4353 22.1536L90.0476 22.3285L89.6553 22.3852L89.5891 21.6667L89.225 21.6761L88.6719 21.8936L88.6577 21.3452L88.2795 21.2601L87.9959 21.0426L87.6791 20.8393L87.9959 20.2342L87.8777 19.9458L87.7595 19.6621L87.126 19.5109L87.594 19.0665L87.7406 18.745L87.0031 18.4471L87.3482 18.1209L86.918 17.7144L86.9794 17.3456L87.8257 17.2605L87.6413 16.8398L87.8824 16.5986L88.2559 16.4663L88.5254 16.2961L88.2653 15.6248L88.6719 15.568L89.0501 15.5349L89.0785 14.9723L89.3716 14.7738L89.8254 14.9865L90.1895 15.1L90.3644 14.353L90.7521 14.5941L91.0877 14.8211L91.4139 14.736L91.778 14.5374L91.9954 15.0669L92.2649 15.2135L92.8464 14.684L93.1679 14.8447L93.4704 15.048L93.2624 15.8611L93.4704 16.0692L94.0283 15.9841L93.8534 16.5135L94.1796 16.6648L94.4254 16.8918L94.3214 17.27L94.6854 17.4827L95.0211 17.7569L94.6571 18.1351L95.2197 18.4471Z" fill="url(#paint11_radial_497_138)"/>
<path d="M102.202 27.7511L102.164 28.1104L101.635 28.3799L101.677 28.7203L101.342 28.9425L101.413 29.3112L101.526 29.7509L101.257 29.9873L101.323 30.4837L101.063 30.7484L100.434 30.5735L100.491 31.2117L99.7957 30.7484L99.6634 31.1786L99.3513 31.2779L99.0913 31.571L98.7604 31.6703L98.3727 31.2259L98.0654 31.3535L97.7061 31.8783L97.413 31.4528L97.0301 31.6277L96.633 31.6845L96.5668 30.9659L96.2027 30.9753L95.6543 31.1975L95.6354 30.6444L95.2572 30.5593L94.9783 30.3418L94.6568 30.1385L94.9783 29.5334L94.8554 29.2498L94.7419 28.9614L94.1037 28.8148L94.5717 28.3657L94.7183 28.0442L93.9855 27.7511L94.3259 27.4249L93.9004 27.0183L93.9571 26.6496L94.8081 26.5645L94.619 26.1437L94.8601 25.8979L95.2383 25.7702L95.5031 25.6L95.243 24.9287L95.6543 24.872L96.0278 24.8389L96.0609 24.2716L96.354 24.073L96.8079 24.2858L97.1672 24.3992L97.3468 23.657L97.7298 23.8934L98.0654 24.1203L98.3916 24.0399L98.7557 23.8414L98.9731 24.3709L99.2426 24.5174L99.8241 23.9832L100.15 24.1487L100.453 24.3472L100.24 25.1604L100.448 25.3731L101.006 25.2833L100.831 25.8175L101.157 25.9688L101.403 26.1957L101.304 26.5739L101.663 26.7867L101.999 27.0561L101.635 27.4391L102.202 27.7511Z" fill="url(#paint12_radial_497_138)"/>
<path d="M117.484 42.2793L117.447 42.6386L116.922 42.908L116.96 43.2437L116.629 43.4706L116.7 43.8394L116.813 44.279L116.544 44.5107L116.61 45.0118L116.35 45.2766L115.721 45.1016L115.773 45.7352L115.083 45.2766L114.95 45.7068L114.638 45.8061L114.374 46.0944L114.043 46.1985L113.655 45.7541L113.353 45.877L112.993 46.4065L112.7 45.981L112.312 46.1559L111.92 46.2126L111.854 45.494L111.49 45.5035L110.937 45.7257L110.923 45.1726L110.544 45.0875L110.261 44.87L109.944 44.6667L110.261 44.0616L110.142 43.7732L110.024 43.4895L109.391 43.3382L109.859 42.8939L110.005 42.5724L109.268 42.2793L109.613 41.9531L109.188 41.5418L109.244 41.1777L110.09 41.0926L109.906 40.6719L110.147 40.426L110.521 40.2937L110.79 40.1282L110.53 39.4569L110.937 39.4001L111.315 39.3623L111.343 38.7997L111.636 38.6012L112.09 38.8139L112.454 38.9274L112.629 38.1804L113.017 38.4215L113.353 38.6485L113.679 38.5634L114.043 38.3695L114.26 38.899L114.53 39.0456L115.111 38.5114L115.433 38.6768L115.735 38.8754L115.527 39.6885L115.735 39.8965L116.293 39.8114L116.118 40.3457L116.444 40.4922L116.69 40.7239L116.591 41.1021L116.95 41.3148L117.286 41.5843L116.922 41.9672L117.484 42.2793Z" fill="url(#paint13_radial_497_138)"/>
<path d="M126.175 48.0136L126.137 48.3728L125.607 48.6423L125.65 48.9827L125.314 49.2049L125.39 49.5737L125.503 50.0133L125.229 50.2497L125.295 50.7461L125.04 51.0109L124.407 50.8359L124.463 51.4742L123.768 51.0109L123.641 51.4411L123.324 51.5404L123.064 51.8335L122.733 51.9327L122.345 51.4883L122.043 51.616L121.679 52.1408L121.386 51.7153L121.003 51.8902L120.61 51.9469L120.539 51.2331L120.18 51.2425L119.627 51.46L119.613 50.9116L119.23 50.8265L118.951 50.609L118.629 50.401L118.951 49.8006L118.833 49.5122L118.715 49.2238L118.076 49.0773L118.544 48.6329L118.691 48.3067L117.958 48.0136L118.299 47.6873L117.873 47.2808L117.93 46.912L118.781 46.8269L118.596 46.4062L118.833 46.1603L119.211 46.0327L119.476 45.8625L119.216 45.1912L119.627 45.1344L120 45.1013L120.034 44.534L120.327 44.3355L120.781 44.5529L121.145 44.6617L121.319 43.9194L121.702 44.1605L122.043 44.3827L122.364 44.3024L122.733 44.1038L122.946 44.6333L123.22 44.7799L123.797 44.2456L124.123 44.4111L124.426 44.6097L124.213 45.4275L124.421 45.6356L124.979 45.5505L124.804 46.08L125.13 46.2312L125.38 46.4582L125.276 46.8364L125.641 47.0491L125.976 47.3186L125.612 47.7015L126.175 48.0136Z" fill="url(#paint14_radial_497_138)"/>
<path d="M134.831 52.59L134.788 52.9493L134.264 53.2187L134.301 53.5591L133.971 53.7813L134.041 54.1501L134.155 54.5897L133.885 54.8261L133.952 55.3225L133.692 55.5873L133.063 55.4124L133.115 56.0506L132.425 55.5873L132.292 56.0175L131.98 56.1168L131.72 56.4099L131.385 56.5092L131.002 56.0648L130.694 56.1924L130.335 56.7172L130.042 56.2917L129.654 56.4666L129.262 56.5233L129.196 55.8047L128.832 55.8142L128.283 56.0364L128.264 55.488L127.886 55.3982L127.607 55.1807L127.286 54.9774L127.602 54.377L127.484 54.0886L127.371 53.8002L126.733 53.6537L127.201 53.2093L127.347 52.8831L126.61 52.59L126.955 52.2638L126.529 51.8572L126.586 51.4884L127.432 51.4033L127.248 50.9826L127.489 50.7367L127.862 50.6091L128.132 50.4389L127.872 49.7676L128.279 49.7108L128.657 49.6778L128.685 49.1104L128.978 48.9119L129.437 49.1293L129.796 49.2381L129.971 48.4958L130.359 48.7322L130.694 48.9592L131.021 48.8788L131.385 48.6802L131.602 49.2097L131.871 49.3563L132.453 48.8221L132.774 48.9875L133.077 49.1861L132.869 49.9992L133.077 50.212L133.635 50.1269L133.46 50.6564L133.786 50.8077L134.032 51.0346L133.933 51.4128L134.292 51.6255L134.628 51.895L134.264 52.2779L134.831 52.59Z" fill="url(#paint15_radial_497_138)"/>
<path d="M26.3017 42.0941L26.2591 42.4534L25.7344 42.7229L25.7722 43.0633L25.4413 43.2855L25.5122 43.6542L25.6256 44.0939L25.3562 44.3303L25.4224 44.8267L25.1623 45.0914L24.5336 44.9165L24.5856 45.5547L23.8953 45.0914L23.763 45.5216L23.4509 45.6209L23.1909 45.914L22.8553 46.0133L22.4723 45.5689L22.165 45.6966L21.8057 46.2213L21.5126 45.7958L21.125 45.9708L20.7326 46.0275L20.6664 45.3089L20.3023 45.3184L19.7539 45.5405L19.735 44.9921L19.3568 44.9023L19.0779 44.6896L18.7564 44.4816L19.0732 43.8812L18.955 43.5928L18.8415 43.3044L18.2033 43.1578L18.6713 42.7134L18.8179 42.3872L18.0804 42.0941L18.4255 41.7679L18 41.3613L18.0567 40.9926L18.903 40.9075L18.7186 40.4867L18.9597 40.2409L19.3332 40.1132L19.6027 39.9431L19.3426 39.2717L19.7492 39.215L20.1274 39.1819L20.1558 38.6146L20.4536 38.416L20.9075 38.6335L21.2668 38.7422L21.4417 38L21.8294 38.2364L22.165 38.4633L22.4912 38.3829L22.8553 38.1844L23.0727 38.7139L23.3422 38.8604L23.9237 38.3262L24.2452 38.4917L24.5478 38.6902L24.3397 39.5034L24.5478 39.7161L25.1056 39.631L24.9307 40.1605L25.2569 40.3118L25.5027 40.5387L25.4034 40.9169L25.7627 41.1297L26.0984 41.3992L25.7344 41.7821L26.3017 42.0941Z" fill="url(#paint16_radial_497_138)"/>
<path d="M53.3017 8.09412L53.2591 8.45341L52.7344 8.72289L52.7722 9.06328L52.4413 9.28548L52.5122 9.65423L52.6256 10.0939L52.3562 10.3303L52.4224 10.8267L52.1623 11.0914L51.5336 10.9165L51.5856 11.5547L50.8953 11.0914L50.763 11.5216L50.4509 11.6209L50.1909 11.914L49.8553 12.0133L49.4723 11.5689L49.165 11.6966L48.8057 12.2213L48.5126 11.7958L48.125 11.9708L47.7326 12.0275L47.6664 11.3089L47.3023 11.3184L46.7539 11.5405L46.735 10.9921L46.3568 10.9023L46.0779 10.6896L45.7564 10.4816L46.0732 9.88116L45.955 9.59277L45.8415 9.30439L45.2033 9.15783L45.6713 8.71343L45.8179 8.38723L45.0804 8.09412L45.4255 7.76791L45 7.36134L45.0567 6.99258L45.903 6.90748L45.7186 6.48673L45.9597 6.24089L46.3332 6.11324L46.6027 5.94305L46.3426 5.27173L46.7492 5.215L47.1274 5.1819L47.1558 4.61459L47.4536 4.41603L47.9075 4.6335L48.2668 4.74224L48.4417 4L48.8294 4.23638L49.165 4.46331L49.4912 4.38294L49.8553 4.18438L50.0727 4.71387L50.3422 4.86043L50.9237 4.32621L51.2452 4.49167L51.5478 4.69023L51.3397 5.50338L51.5478 5.71612L52.1056 5.63103L51.9307 6.16052L52.2569 6.3118L52.5027 6.53873L52.4034 6.91694L52.7627 7.12968L53.0984 7.39916L52.7344 7.78209L53.3017 8.09412Z" fill="url(#paint17_radial_497_138)"/>
<defs>
<radialGradient id="paint0_radial_497_138" cx="0" cy="0" r="1" gradientUnits="userSpaceOnUse" gradientTransform="translate(12.977 48.0136) scale(4.13194)">
<stop stop-color="#FFF8D4"/>
<stop offset="0.09" stop-color="#FFF8CB" stop-opacity="0.86"/>
<stop offset="0.25" stop-color="#FFF8BC" stop-opacity="0.6"/>
<stop offset="0.41" stop-color="#FFF8B0" stop-opacity="0.39"/>
<stop offset="0.56" stop-color="#FFF8A6" stop-opacity="0.22"/>
<stop offset="0.69" stop-color="#FFF89F" stop-opacity="0.1"/>
<stop offset="0.8" stop-color="#FFF89B" stop-opacity="0.03"/>
<stop offset="0.88" stop-color="#FFF99A" stop-opacity="0"/>
<stop offset="1" stop-color="#FFF99A" stop-opacity="0"/>
</radialGradient>
<radialGradient id="paint1_radial_497_138" cx="0" cy="0" r="1" gradientUnits="userSpaceOnUse" gradientTransform="translate(4.15085 52.7934) scale(4.13194)">
<stop stop-color="#FFF8D4"/>
<stop offset="0.09" stop-color="#FFF8CB" stop-opacity="0.86"/>
<stop offset="0.25" stop-color="#FFF8BC" stop-opacity="0.6"/>
<stop offset="0.41" stop-color="#FFF8B0" stop-opacity="0.39"/>
<stop offset="0.56" stop-color="#FFF8A6" stop-opacity="0.22"/>
<stop offset="0.69" stop-color="#FFF89F" stop-opacity="0.1"/>
<stop offset="0.8" stop-color="#FFF89B" stop-opacity="0.03"/>
<stop offset="0.88" stop-color="#FFF99A" stop-opacity="0"/>
<stop offset="1" stop-color="#FFF99A" stop-opacity="0"/>
</radialGradient>
<radialGradient id="paint2_radial_497_138" cx="0" cy="0" r="1" gradientUnits="userSpaceOnUse" gradientTransform="translate(29.6098 35.4052) scale(4.13194)">
<stop stop-color="#FFF8D4"/>
<stop offset="0.09" stop-color="#FFF8CB" stop-opacity="0.86"/>
<stop offset="0.25" stop-color="#FFF8BC" stop-opacity="0.6"/>
<stop offset="0.41" stop-color="#FFF8B0" stop-opacity="0.39"/>
<stop offset="0.56" stop-color="#FFF8A6" stop-opacity="0.22"/>
<stop offset="0.69" stop-color="#FFF89F" stop-opacity="0.1"/>
<stop offset="0.8" stop-color="#FFF89B" stop-opacity="0.03"/>
<stop offset="0.88" stop-color="#FFF99A" stop-opacity="0"/>
<stop offset="1" stop-color="#FFF99A" stop-opacity="0"/>
</radialGradient>
<radialGradient id="paint3_radial_497_138" cx="0" cy="0" r="1" gradientUnits="userSpaceOnUse" gradientTransform="translate(36.8071 27.8218) scale(4.13194)">
<stop stop-color="#FFF8D4"/>
<stop offset="0.09" stop-color="#FFF8CB" stop-opacity="0.86"/>
<stop offset="0.25" stop-color="#FFF8BC" stop-opacity="0.6"/>
<stop offset="0.41" stop-color="#FFF8B0" stop-opacity="0.39"/>
<stop offset="0.56" stop-color="#FFF8A6" stop-opacity="0.22"/>
<stop offset="0.69" stop-color="#FFF89F" stop-opacity="0.1"/>
<stop offset="0.8" stop-color="#FFF89B" stop-opacity="0.03"/>
<stop offset="0.88" stop-color="#FFF99A" stop-opacity="0"/>
<stop offset="1" stop-color="#FFF99A" stop-opacity="0"/>
</radialGradient>
<radialGradient id="paint4_radial_497_138" cx="0" cy="0" r="1" gradientUnits="userSpaceOnUse" gradientTransform="translate(43.5258 18.4233) scale(4.13194 4.13194)">
<stop stop-color="#FFF8D4"/>
<stop offset="0.09" stop-color="#FFF8CB" stop-opacity="0.86"/>
<stop offset="0.25" stop-color="#FFF8BC" stop-opacity="0.6"/>
<stop offset="0.41" stop-color="#FFF8B0" stop-opacity="0.39"/>
<stop offset="0.56" stop-color="#FFF8A6" stop-opacity="0.22"/>
<stop offset="0.69" stop-color="#FFF89F" stop-opacity="0.1"/>
<stop offset="0.8" stop-color="#FFF89B" stop-opacity="0.03"/>
<stop offset="0.88" stop-color="#FFF99A" stop-opacity="0"/>
<stop offset="1" stop-color="#FFF99A" stop-opacity="0"/>
</radialGradient>
<radialGradient id="paint5_radial_497_138" cx="0" cy="0" r="1" gradientUnits="userSpaceOnUse" gradientTransform="translate(51.2094 4.1083) scale(4.13194)">
<stop stop-color="#FFF8D4"/>
<stop offset="0.09" stop-color="#FFF8CB" stop-opacity="0.86"/>
<stop offset="0.25" stop-color="#FFF8BC" stop-opacity="0.6"/>
<stop offset="0.41" stop-color="#FFF8B0" stop-opacity="0.39"/>
<stop offset="0.56" stop-color="#FFF8A6" stop-opacity="0.22"/>
<stop offset="0.69" stop-color="#FFF89F" stop-opacity="0.1"/>
<stop offset="0.8" stop-color="#FFF89B" stop-opacity="0.03"/>
<stop offset="0.88" stop-color="#FFF99A" stop-opacity="0"/>
<stop offset="1" stop-color="#FFF99A" stop-opacity="0"/>
</radialGradient>
<radialGradient id="paint6_radial_497_138" cx="0" cy="0" r="1" gradientUnits="userSpaceOnUse" gradientTransform="translate(61.9926 8.26382) scale(4.13194)">
<stop stop-color="#FFF8D4"/>
<stop offset="0.09" stop-color="#FFF8CB" stop-opacity="0.86"/>
<stop offset="0.25" stop-color="#FFF8BC" stop-opacity="0.6"/>
<stop offset="0.41" stop-color="#FFF8B0" stop-opacity="0.39"/>
<stop offset="0.56" stop-color="#FFF8A6" stop-opacity="0.22"/>
<stop offset="0.69" stop-color="#FFF89F" stop-opacity="0.1"/>
<stop offset="0.8" stop-color="#FFF89B" stop-opacity="0.03"/>
<stop offset="0.88" stop-color="#FFF99A" stop-opacity="0"/>
<stop offset="1" stop-color="#FFF99A" stop-opacity="0"/>
</radialGradient>
<radialGradient id="paint7_radial_497_138" cx="0" cy="0" r="1" gradientUnits="userSpaceOnUse" gradientTransform="translate(72.8442 8.29702) scale(4.13194)">
<stop stop-color="#FFF8D4"/>
<stop offset="0.09" stop-color="#FFF8CB" stop-opacity="0.86"/>
<stop offset="0.25" stop-color="#FFF8BC" stop-opacity="0.6"/>
<stop offset="0.41" stop-color="#FFF8B0" stop-opacity="0.39"/>
<stop offset="0.56" stop-color="#FFF8A6" stop-opacity="0.22"/>
<stop offset="0.69" stop-color="#FFF89F" stop-opacity="0.1"/>
<stop offset="0.8" stop-color="#FFF89B" stop-opacity="0.03"/>
<stop offset="0.88" stop-color="#FFF99A" stop-opacity="0"/>
<stop offset="1" stop-color="#FFF99A" stop-opacity="0"/>
</radialGradient>
<radialGradient id="paint8_radial_497_138" cx="0" cy="0" r="1" gradientUnits="userSpaceOnUse" gradientTransform="translate(83.395 4.14126) scale(4.13194)">
<stop stop-color="#FFF8D4"/>
<stop offset="0.09" stop-color="#FFF8CB" stop-opacity="0.86"/>
<stop offset="0.25" stop-color="#FFF8BC" stop-opacity="0.6"/>
<stop offset="0.41" stop-color="#FFF8B0" stop-opacity="0.39"/>
<stop offset="0.56" stop-color="#FFF8A6" stop-opacity="0.22"/>
<stop offset="0.69" stop-color="#FFF89F" stop-opacity="0.1"/>
<stop offset="0.8" stop-color="#FFF89B" stop-opacity="0.03"/>
<stop offset="0.88" stop-color="#FFF99A" stop-opacity="0"/>
<stop offset="1" stop-color="#FFF99A" stop-opacity="0"/>
</radialGradient>
<radialGradient id="paint9_radial_497_138" cx="0" cy="0" r="1" gradientUnits="userSpaceOnUse" gradientTransform="translate(85.3989 7.83828) scale(4.13194)">
<stop stop-color="#FFF8D4"/>
<stop offset="0.09" stop-color="#FFF8CB" stop-opacity="0.86"/>
<stop offset="0.25" stop-color="#FFF8BC" stop-opacity="0.6"/>
<stop offset="0.41" stop-color="#FFF8B0" stop-opacity="0.39"/>
<stop offset="0.56" stop-color="#FFF8A6" stop-opacity="0.22"/>
<stop offset="0.69" stop-color="#FFF89F" stop-opacity="0.1"/>
<stop offset="0.8" stop-color="#FFF89B" stop-opacity="0.03"/>
<stop offset="0.88" stop-color="#FFF99A" stop-opacity="0"/>
<stop offset="1" stop-color="#FFF99A" stop-opacity="0"/>
</radialGradient>
<radialGradient id="paint10_radial_497_138" cx="0" cy="0" r="1" gradientUnits="userSpaceOnUse" gradientTransform="translate(105.151 35.1083) scale(4.13194)">
<stop stop-color="#FFF8D4"/>
<stop offset="0.09" stop-color="#FFF8CB" stop-opacity="0.86"/>
<stop offset="0.25" stop-color="#FFF8BC" stop-opacity="0.6"/>
<stop offset="0.41" stop-color="#FFF8B0" stop-opacity="0.39"/>
<stop offset="0.56" stop-color="#FFF8A6" stop-opacity="0.22"/>
<stop offset="0.69" stop-color="#FFF89F" stop-opacity="0.1"/>
<stop offset="0.8" stop-color="#FFF89B" stop-opacity="0.03"/>
<stop offset="0.88" stop-color="#FFF99A" stop-opacity="0"/>
<stop offset="1" stop-color="#FFF99A" stop-opacity="0"/>
</radialGradient>
<radialGradient id="paint11_radial_497_138" cx="0" cy="0" r="1" gradientUnits="userSpaceOnUse" gradientTransform="translate(91.0688 18.4661) scale(4.13194)">
<stop stop-color="#FFF8D4"/>
<stop offset="0.09" stop-color="#FFF8CB" stop-opacity="0.86"/>
<stop offset="0.25" stop-color="#FFF8BC" stop-opacity="0.6"/>
<stop offset="0.41" stop-color="#FFF8B0" stop-opacity="0.39"/>
<stop offset="0.56" stop-color="#FFF8A6" stop-opacity="0.22"/>
<stop offset="0.69" stop-color="#FFF89F" stop-opacity="0.1"/>
<stop offset="0.8" stop-color="#FFF89B" stop-opacity="0.03"/>
<stop offset="0.88" stop-color="#FFF99A" stop-opacity="0"/>
<stop offset="1" stop-color="#FFF99A" stop-opacity="0"/>
</radialGradient>
<radialGradient id="paint12_radial_497_138" cx="0" cy="0" r="1" gradientUnits="userSpaceOnUse" gradientTransform="translate(98.0512 27.7653) scale(4.13194)">
<stop stop-color="#FFF8D4"/>
<stop offset="0.09" stop-color="#FFF8CB" stop-opacity="0.86"/>
<stop offset="0.25" stop-color="#FFF8BC" stop-opacity="0.6"/>
<stop offset="0.41" stop-color="#FFF8B0" stop-opacity="0.39"/>
<stop offset="0.56" stop-color="#FFF8A6" stop-opacity="0.22"/>
<stop offset="0.69" stop-color="#FFF89F" stop-opacity="0.1"/>
<stop offset="0.8" stop-color="#FFF89B" stop-opacity="0.03"/>
<stop offset="0.88" stop-color="#FFF99A" stop-opacity="0"/>
<stop offset="1" stop-color="#FFF99A" stop-opacity="0"/>
</radialGradient>
<radialGradient id="paint13_radial_497_138" cx="0" cy="0" r="1" gradientUnits="userSpaceOnUse" gradientTransform="translate(113.334 42.2934) scale(4.13193 4.13194)">
<stop stop-color="#FFF8D4"/>
<stop offset="0.09" stop-color="#FFF8CB" stop-opacity="0.86"/>
<stop offset="0.25" stop-color="#FFF8BC" stop-opacity="0.6"/>
<stop offset="0.41" stop-color="#FFF8B0" stop-opacity="0.39"/>
<stop offset="0.56" stop-color="#FFF8A6" stop-opacity="0.22"/>
<stop offset="0.69" stop-color="#FFF89F" stop-opacity="0.1"/>
<stop offset="0.8" stop-color="#FFF89B" stop-opacity="0.03"/>
<stop offset="0.88" stop-color="#FFF99A" stop-opacity="0"/>
<stop offset="1" stop-color="#FFF99A" stop-opacity="0"/>
</radialGradient>
<radialGradient id="paint14_radial_497_138" cx="0" cy="0" r="1" gradientUnits="userSpaceOnUse" gradientTransform="translate(122.024 48.0277) scale(4.13194 4.13194)">
<stop stop-color="#FFF8D4"/>
<stop offset="0.09" stop-color="#FFF8CB" stop-opacity="0.86"/>
<stop offset="0.25" stop-color="#FFF8BC" stop-opacity="0.6"/>
<stop offset="0.41" stop-color="#FFF8B0" stop-opacity="0.39"/>
<stop offset="0.56" stop-color="#FFF8A6" stop-opacity="0.22"/>
<stop offset="0.69" stop-color="#FFF89F" stop-opacity="0.1"/>
<stop offset="0.8" stop-color="#FFF89B" stop-opacity="0.03"/>
<stop offset="0.88" stop-color="#FFF99A" stop-opacity="0"/>
<stop offset="1" stop-color="#FFF99A" stop-opacity="0"/>
</radialGradient>
<radialGradient id="paint15_radial_497_138" cx="0" cy="0" r="1" gradientUnits="userSpaceOnUse" gradientTransform="translate(130.68 52.6041) scale(4.13194)">
<stop stop-color="#FFF8D4"/>
<stop offset="0.09" stop-color="#FFF8CB" stop-opacity="0.86"/>
<stop offset="0.25" stop-color="#FFF8BC" stop-opacity="0.6"/>
<stop offset="0.41" stop-color="#FFF8B0" stop-opacity="0.39"/>
<stop offset="0.56" stop-color="#FFF8A6" stop-opacity="0.22"/>
<stop offset="0.69" stop-color="#FFF89F" stop-opacity="0.1"/>
<stop offset="0.8" stop-color="#FFF89B" stop-opacity="0.03"/>
<stop offset="0.88" stop-color="#FFF99A" stop-opacity="0"/>
<stop offset="1" stop-color="#FFF99A" stop-opacity="0"/>
</radialGradient>
<radialGradient id="paint16_radial_497_138" cx="0" cy="0" r="1" gradientUnits="userSpaceOnUse" gradientTransform="translate(22.1508 42.1083) scale(4.13194)">
<stop stop-color="#FFF8D4"/>
<stop offset="0.09" stop-color="#FFF8CB" stop-opacity="0.86"/>
<stop offset="0.25" stop-color="#FFF8BC" stop-opacity="0.6"/>
<stop offset="0.41" stop-color="#FFF8B0" stop-opacity="0.39"/>
<stop offset="0.56" stop-color="#FFF8A6" stop-opacity="0.22"/>
<stop offset="0.69" stop-color="#FFF89F" stop-opacity="0.1"/>
<stop offset="0.8" stop-color="#FFF89B" stop-opacity="0.03"/>
<stop offset="0.88" stop-color="#FFF99A" stop-opacity="0"/>
<stop offset="1" stop-color="#FFF99A" stop-opacity="0"/>
</radialGradient>
<radialGradient id="paint17_radial_497_138" cx="0" cy="0" r="1" gradientUnits="userSpaceOnUse" gradientTransform="translate(49.1508 8.1083) scale(4.13194)">
<stop stop-color="#FFF8D4"/>
<stop offset="0.09" stop-color="#FFF8CB" stop-opacity="0.86"/>
<stop offset="0.25" stop-color="#FFF8BC" stop-opacity="0.6"/>
<stop offset="0.41" stop-color="#FFF8B0" stop-opacity="0.39"/>
<stop offset="0.56" stop-color="#FFF8A6" stop-opacity="0.22"/>
<stop offset="0.69" stop-color="#FFF89F" stop-opacity="0.1"/>
<stop offset="0.8" stop-color="#FFF89B" stop-opacity="0.03"/>
<stop offset="0.88" stop-color="#FFF99A" stop-opacity="0"/>
<stop offset="1" stop-color="#FFF99A" stop-opacity="0"/>
</radialGradient>
</defs>
</svg>
