<svg width="216" height="87" viewBox="0 0 216 87" fill="none" xmlns="http://www.w3.org/2000/svg">
<path d="M1.87852 0.079925L213.823 0C214.861 0 215.701 0.742097 215.701 1.65543L216 63.3397C216 64.2645 215.16 65.0065 214.121 65.0065L133.274 65.075C132.776 65.075 132.293 65.2463 131.951 65.5659L109.537 85.5451C108.811 86.1958 107.616 86.1958 106.876 85.5451L84.3052 65.4974C83.9494 65.1892 83.4798 65.0065 82.9817 65.0065H2.04928C1.01041 65.0065 0.17081 64.2644 0.17081 63.3511L0 1.73536C0 0.810606 0.839647 0.0684972 1.87852 0.0684972V0.079925Z" fill="white"/>
<path d="M27.7217 41.2983C27.7217 39.3794 27.2456 37.8047 26.2935 36.5742C25.3413 35.3291 24.0742 34.7065 22.4922 34.7065C22.0674 34.7065 21.5913 34.7725 21.064 34.9043C20.5366 35.0361 20.2363 35.1021 20.1631 35.1021L19.9873 35.0581C19.8408 34.9849 19.709 34.7725 19.5918 34.4209C19.2549 33.2783 18.6543 32.3628 17.79 31.6743C14.9775 29.4038 13.5713 26.3862 13.5713 22.6216C13.5713 19.5894 14.5601 17.2529 16.5376 15.6123C18.5298 13.9717 21.2837 13.1514 24.7993 13.1514C26.3374 13.1514 27.6851 13.4443 28.8423 14.0303C30.0142 14.6162 30.915 15.1875 31.5449 15.7441C32.9658 17.0186 33.6763 18.6738 33.6763 20.71C33.6763 21.3838 33.5005 22.2847 33.1489 23.4126C32.7974 24.5405 32.6216 25.2217 32.6216 25.4561C32.6216 26.335 32.9878 27.1772 33.7202 27.9829C33.4565 27.895 33.083 27.8511 32.5996 27.8511C32.1162 27.8511 31.6548 27.7266 31.2153 27.4775C30.7905 27.2285 30.4536 26.9209 30.2046 26.5547C29.7212 25.8662 29.3623 25.0825 29.1279 24.2036C29.0254 24.3647 28.6519 24.5332 28.0073 24.709C27.3628 24.8701 26.8135 24.9507 26.3594 24.9507C25.9199 24.9507 25.5317 24.8921 25.1948 24.7749C24.8579 24.6431 24.6089 24.5112 24.4478 24.3794C24.3013 24.2329 24.1914 24.0498 24.1182 23.8301C24.0156 23.5811 23.9644 23.3613 23.9644 23.1709C24.8726 23.127 25.6636 22.8926 26.3374 22.4678C27.0259 22.043 27.3701 21.3618 27.3701 20.4243C27.3701 19.4722 27.0845 18.7324 26.5132 18.2051C25.9565 17.6777 25.3267 17.4141 24.6235 17.4141C22.3237 17.4141 21.1738 18.791 21.1738 21.5449C21.1738 23.874 21.7671 25.6099 22.9536 26.7524C23.5688 27.353 24.1987 27.6533 24.8433 27.6533C25.4878 27.6533 26.1616 27.5581 26.8647 27.3677C27.5679 27.1626 27.9707 27.0601 28.0732 27.0601C28.1904 27.0601 28.3149 27.2505 28.4468 27.6313C28.9009 28.9351 29.4648 29.814 30.1387 30.2681C31.7354 31.3228 33.0024 32.6777 33.9399 34.333C34.8774 35.9883 35.3462 37.7534 35.3462 39.6284C35.3462 41.5034 35.0166 43.0928 34.3574 44.3965C33.6982 45.7002 32.8267 46.7549 31.7427 47.5605C29.5161 49.2158 26.938 50.0435 24.0083 50.0435C21.2983 50.0435 18.9766 49.3257 17.043 47.8901C16.1055 47.187 15.3511 46.2788 14.7798 45.1655C14.2231 44.0376 13.9448 42.9683 13.9448 41.9575C13.9448 40.9468 14.1353 39.8921 14.5161 38.7935C14.9116 37.6802 15.1094 36.8232 15.1094 36.2227C15.1094 35.6074 14.8604 34.9629 14.3623 34.2891C14.5674 34.1426 14.8384 34.0693 15.1753 34.0693C16.0835 34.0693 16.8818 34.5234 17.5703 35.4316C18.2734 36.3252 18.6323 37.2407 18.647 38.1782C19.6138 37.6655 20.4561 37.4092 21.1738 37.4092C21.8916 37.4092 22.4263 37.4824 22.7778 37.6289C23.1294 37.7607 23.3784 37.9365 23.5249 38.1562C23.7739 38.5078 23.8984 38.8301 23.8984 39.123V39.2988C23.0488 39.4014 22.3018 39.7603 21.6572 40.3755C21.0273 40.9761 20.7124 41.7451 20.7124 42.6826C20.7124 43.6201 21.0127 44.3159 21.6133 44.77C22.2139 45.2241 22.9683 45.4512 23.8765 45.4512C24.7993 45.4512 25.6709 45.0923 26.4912 44.3745C27.3115 43.6421 27.7217 42.6167 27.7217 41.2983ZM46.1567 47.9561C46.479 51.1494 47.3726 53.8887 48.8374 56.1738C48.8374 56.6865 48.4272 57.0674 47.6069 57.3164C47.2993 57.4189 46.8672 57.4702 46.3105 57.4702C45.7686 57.4702 45.1973 57.2725 44.5967 56.877C43.9961 56.4961 43.5566 56.1152 43.2783 55.7344L42.8828 55.1631C42.8096 55.3096 42.6265 55.5439 42.3335 55.8662C42.0552 56.2031 41.7842 56.4668 41.5205 56.6572C40.8027 57.1992 40.1436 57.4702 39.543 57.4702C38.9424 57.4702 38.481 57.4263 38.1587 57.3384C37.8511 57.2505 37.624 57.1406 37.4775 57.0088C37.1846 56.7598 37.0088 56.4814 36.9502 56.1738C37.9463 54.958 38.6348 53.6104 39.0156 52.1309C39.4111 50.666 39.6089 48.6006 39.6089 45.9346V40.3535C39.6089 38.7129 39.4551 37.5776 39.1475 36.9478C38.8545 36.3032 38.5981 35.8491 38.3784 35.5854C38.1587 35.3071 37.9609 35.1094 37.7852 34.9922C37.3604 34.7139 37.1479 34.5454 37.1479 34.4868C37.1479 34.4282 37.2285 34.3477 37.3896 34.2451C37.5508 34.1426 37.7485 33.9814 37.9829 33.7617C38.2173 33.542 38.4517 33.249 38.686 32.8828C39.2427 32.0332 39.5503 30.7222 39.6089 28.9497C39.5942 26.7964 39.3892 25.1191 38.9937 23.918C38.6128 22.7021 37.9316 21.5815 36.9502 20.5562C36.9502 20.0288 37.3604 19.6406 38.1807 19.3916C38.4883 19.2891 38.8472 19.2378 39.2573 19.2378C40.7808 19.2378 42.187 20.3438 43.4761 22.5557C44.4282 21.4717 45.5195 20.644 46.75 20.0728C47.9805 19.4868 49.1816 19.1938 50.3535 19.1938C51.5254 19.1938 52.5874 19.3916 53.5396 19.7871C54.5063 20.168 55.3779 20.7319 56.1543 21.479C57.8096 23.0903 58.6372 25.4561 58.6372 28.5762C58.6372 31.1689 59.106 32.9121 60.0435 33.8057C60.1753 33.9229 60.3291 34.0547 60.5049 34.2012C60.6953 34.3477 60.8052 34.4355 60.8345 34.4648C60.8345 34.5234 60.7539 34.6113 60.5928 34.7285C60.4463 34.8311 60.2632 34.9995 60.0435 35.2339C59.8384 35.4536 59.626 35.7539 59.4062 36.1348C58.8936 37.043 58.6372 38.354 58.6372 40.0679C58.6372 41.7671 58.4175 43.2173 57.978 44.4185C57.5532 45.6196 56.9746 46.5791 56.2422 47.2969C54.7334 48.791 53.0195 49.5381 51.1006 49.5381C49.1816 49.5381 47.5337 49.0107 46.1567 47.9561ZM46.3105 28.5762C46.3105 31.2861 46.8672 33.1611 47.9805 34.2012C48.1123 34.333 48.1782 34.4282 48.1782 34.4868C48.1782 34.5454 48.0757 34.6699 47.8706 34.8604C47.6802 35.0361 47.4678 35.2705 47.2334 35.5635C46.999 35.8418 46.7793 36.3984 46.5742 37.2334C46.3838 38.0684 46.2886 39.1084 46.2886 40.3535C46.2886 43.8252 47.2334 45.561 49.123 45.561C51.0273 45.561 51.9795 43.8252 51.9795 40.3535C51.9795 37.4971 51.4082 35.6221 50.2656 34.7285C50.1338 34.626 50.0679 34.5527 50.0679 34.5088C50.0825 34.4502 50.1851 34.3403 50.3755 34.1792C50.5806 34.0034 50.7563 33.813 50.9028 33.6079C51.0493 33.3882 51.2178 33.0879 51.4082 32.707C51.7891 31.8721 51.9795 30.5684 51.9795 28.7959C51.9795 25.0312 51.0127 23.1489 49.0791 23.1489C47.2334 23.1489 46.3105 24.958 46.3105 28.5762ZM71.689 39.98C71.689 43.686 72.6045 45.5391 74.4355 45.5391C76.3838 45.5391 77.3579 43.6128 77.3579 39.7603C77.3579 38.6763 77.27 37.7681 77.0942 37.0356C76.9185 36.3032 76.7354 35.8198 76.5449 35.5854C76.3545 35.3364 76.1274 35.1167 75.8638 34.9263C75.6147 34.7212 75.4756 34.5967 75.4463 34.5527C75.4463 34.4648 75.5415 34.333 75.7319 34.1572C75.937 33.9668 76.1567 33.7251 76.3911 33.4321C76.6401 33.1245 76.8599 32.5386 77.0503 31.6743C77.2554 30.7954 77.3579 29.7114 77.3579 28.4224C77.3579 24.9067 76.4058 23.1489 74.5015 23.1489C72.6118 23.1489 71.667 24.9067 71.667 28.4224C71.667 29.7114 71.7622 30.7954 71.9526 31.6743C72.1577 32.5386 72.3774 33.1245 72.6118 33.4321C72.8462 33.7251 73.0586 33.9668 73.249 34.1572C73.4541 34.333 73.5566 34.4575 73.5566 34.5308C73.5566 34.5894 73.4907 34.6626 73.3589 34.7505C73.2271 34.8384 73.0732 34.9849 72.8975 35.1899C72.7217 35.395 72.5459 35.666 72.3701 36.0029C71.916 36.8525 71.689 38.1782 71.689 39.98ZM84.6528 36.3325C84.4478 36.728 84.2866 37.2554 84.1694 37.9146C84.0669 38.5737 84.0156 39.4966 84.0156 40.6831C84.0156 41.855 83.7446 43.0488 83.2026 44.2646C82.6606 45.4658 81.9355 46.4399 81.0273 47.187C80.1191 47.9341 79.1084 48.5054 77.9951 48.9009C76.8818 49.2964 75.7173 49.4941 74.5015 49.4941C73.2856 49.4941 72.1138 49.2964 70.9858 48.9009C69.8726 48.5054 68.8618 47.9341 67.9536 47.187C67.0601 46.4399 66.3423 45.4658 65.8003 44.2646C65.2583 43.0488 64.9873 41.8403 64.9873 40.6392C64.9873 39.4233 64.8994 38.4639 64.7236 37.7607C64.5625 37.043 64.3574 36.501 64.1084 36.1348C63.874 35.7686 63.6323 35.4756 63.3833 35.2559C63.1489 35.0215 62.9438 34.853 62.7681 34.7505C62.6069 34.6479 62.5264 34.5747 62.5264 34.5308C62.5264 34.4868 62.6069 34.4136 62.7681 34.311C62.9438 34.1938 63.1489 34.0254 63.3833 33.8057C63.6323 33.5859 63.874 33.293 64.1084 32.9268C64.6943 32.0479 64.9873 30.7368 64.9873 28.9937C64.9873 27.2505 65.2583 25.7637 65.8003 24.5332C66.3423 23.3027 67.0601 22.3066 67.9536 21.5449C68.8618 20.7832 69.8726 20.2046 70.9858 19.8091C72.1138 19.3989 73.2856 19.1938 74.5015 19.1938C75.7173 19.1938 76.8818 19.3989 77.9951 19.8091C79.1084 20.2046 80.1191 20.7832 81.0273 21.5449C81.9355 22.3066 82.6606 23.3027 83.2026 24.5332C83.7446 25.7637 84.0156 27.0015 84.0156 28.2466C84.0156 29.4917 84.0889 30.4878 84.2354 31.2349C84.3965 31.9673 84.5796 32.5239 84.7847 32.9048C85.0044 33.271 85.2168 33.5713 85.4219 33.8057C85.6416 34.0254 85.8247 34.1938 85.9712 34.311C86.1323 34.4136 86.2129 34.4941 86.2129 34.5527C86.1982 34.5674 86.0664 34.6699 85.8174 34.8604C85.583 35.0361 85.3853 35.2266 85.2241 35.4316C85.063 35.6367 84.8726 35.937 84.6528 36.3325ZM95.5513 22.9731C97.9097 20.439 100.297 19.1719 102.714 19.1719C105.131 19.1719 107.087 19.9775 108.581 21.5889C110.075 23.1855 110.822 25.4414 110.822 28.3564C110.822 29.7188 110.917 30.8613 111.108 31.7842C111.313 32.707 111.533 33.3223 111.767 33.6299C112.001 33.9375 112.214 34.1938 112.404 34.3989C112.609 34.5894 112.712 34.7212 112.712 34.7944C112.712 34.853 112.646 34.9336 112.514 35.0361C112.382 35.124 112.221 35.2852 112.031 35.5195C111.855 35.7393 111.672 36.0322 111.481 36.3984C111.042 37.292 110.822 38.6763 110.822 40.5513C110.822 42.4116 111.02 43.8691 111.416 44.9238C111.811 45.9785 112.529 46.9819 113.569 47.9341C113.173 48.7251 112.309 49.1206 110.976 49.1206C109.643 49.1206 108.369 48.3369 107.153 46.7695C105.981 48.3369 104.846 49.1206 103.747 49.1206C102.663 49.1206 102.019 48.7251 101.813 47.9341C102.678 46.9526 103.293 45.9053 103.659 44.792C104.025 43.6641 104.208 42.4043 104.208 41.0127C104.208 39.6064 104.135 38.5518 103.989 37.8486C103.842 37.1455 103.659 36.6108 103.439 36.2446C103.234 35.8638 103.022 35.5562 102.802 35.3218C102.597 35.0874 102.421 34.9189 102.275 34.8164C102.128 34.6992 102.055 34.6187 102.055 34.5747C102.055 34.5161 102.165 34.3623 102.385 34.1133C102.619 33.8643 102.868 33.564 103.132 33.2124C103.396 32.8462 103.637 32.231 103.857 31.3667C104.091 30.5024 104.208 29.499 104.208 28.3564C104.208 24.6357 103.344 22.7754 101.616 22.7754C100.517 22.7754 99.6089 23.2734 98.8911 24.2695C98.1733 25.2656 97.8145 26.7598 97.8145 28.752C97.8145 29.8945 97.9097 30.876 98.1001 31.6963C98.3052 32.5166 98.5249 33.0879 98.7593 33.4102C99.0083 33.7178 99.228 33.9741 99.4185 34.1792C99.6235 34.3843 99.7261 34.5161 99.7261 34.5747C99.7261 34.6333 99.6602 34.7212 99.5283 34.8384C99.3965 34.9556 99.2354 35.146 99.0449 35.4097C98.8691 35.6587 98.6934 35.9736 98.5176 36.3545C98.0781 37.3359 97.8584 38.7495 97.8584 40.5952C97.8584 42.4263 98.0562 43.8691 98.4517 44.9238C98.8472 45.9785 99.5649 46.9819 100.605 47.9341C100.502 48.2271 100.246 48.498 99.8359 48.7471C99.4404 48.9961 98.9937 49.1206 98.4956 49.1206C97.0308 49.1206 95.6538 48.3369 94.3647 46.7695C93.1929 48.3369 91.9917 49.1206 90.7612 49.1206C90.1753 49.1206 89.6919 49.0327 89.311 48.8569C88.813 48.6226 88.5054 48.3149 88.3882 47.9341C89.4136 46.9819 90.1313 45.9712 90.5415 44.9019C90.9517 43.8325 91.1567 42.6021 91.1567 41.2104C91.1567 39.8042 91.0981 38.7642 90.981 38.0903C90.8784 37.4019 90.7173 36.8525 90.4976 36.4424C90.2925 36.0322 90.1094 35.7246 89.9482 35.5195C89.8018 35.2998 89.604 35.0947 89.355 34.9043C89.106 34.7139 88.9741 34.6113 88.9595 34.5967C88.9595 34.5527 89.0327 34.4795 89.1792 34.377C89.3403 34.2598 89.5234 34.084 89.7285 33.8496C89.9482 33.6152 90.168 33.3076 90.3877 32.9268C90.9004 32.0186 91.1567 30.605 91.1567 28.686C91.1567 26.7671 90.937 25.2363 90.4976 24.0938C90.0581 22.9512 89.2671 21.8599 88.1245 20.8198C88.5054 20.0581 89.5161 19.6772 91.1567 19.6772C92.812 19.6772 94.2769 20.7759 95.5513 22.9731ZM116.623 42.1113L116.865 39.5186C116.865 38.5957 116.557 37.79 115.942 37.1016C116.162 36.8965 116.411 36.7939 116.689 36.7939C116.967 36.7939 117.253 36.8379 117.546 36.9258C117.854 36.999 118.183 37.1675 118.535 37.4312C118.886 37.6948 119.165 37.9658 119.37 38.2441C119.575 38.5225 119.743 38.8081 119.875 39.1011C120.124 39.6138 120.249 39.958 120.249 40.1338C121.113 39.4453 121.853 39.1011 122.468 39.1011C123.098 39.1011 123.559 39.1597 123.852 39.2769C124.145 39.394 124.35 39.5479 124.467 39.7383C124.672 40.0459 124.775 40.2949 124.775 40.4854V40.5513C124.145 40.6831 123.603 40.9614 123.149 41.3862C122.695 41.7964 122.468 42.397 122.468 43.188C122.468 43.9644 122.746 44.5723 123.303 45.0117C123.874 45.4365 124.533 45.6489 125.28 45.6489C126.027 45.6489 126.628 45.5464 127.082 45.3413C127.551 45.1216 127.902 44.8433 128.137 44.5063C128.591 43.8472 128.818 43.2026 128.818 42.5728C128.818 41.0054 128.393 39.7603 127.543 38.8374C126.708 37.8999 125.742 37.4312 124.643 37.4312C124.262 37.4312 123.83 37.4897 123.347 37.6069C122.863 37.7241 122.592 37.7827 122.534 37.7827C122.49 37.7827 122.417 37.7607 122.314 37.7168C122.226 37.6582 122.131 37.4678 122.028 37.1455C121.706 36.1201 121.157 35.2925 120.38 34.6626C117.905 32.9048 116.667 30.6343 116.667 27.8511C116.667 25.0532 117.495 22.9146 119.15 21.4351C120.82 19.9409 123.076 19.1938 125.917 19.1938C127.353 19.1938 128.613 19.4282 129.697 19.897C130.781 20.3511 131.63 20.8271 132.246 21.3252C133.652 22.4678 134.355 24.0278 134.355 26.0054L133.85 28.8398C133.85 29.6309 134.165 30.3486 134.794 30.9932C134.589 31.1836 134.282 31.2788 133.872 31.2788C133.461 31.2788 133.066 31.1763 132.685 30.9712C132.304 30.7515 131.989 30.4951 131.74 30.2021C131.491 29.9092 131.271 29.6016 131.081 29.2793C130.729 28.708 130.554 28.3345 130.554 28.1587C129.631 28.7739 128.884 29.0815 128.312 29.0815C127.741 29.0815 127.316 29.0303 127.038 28.9277C126.774 28.8105 126.584 28.6641 126.467 28.4883C126.291 28.1953 126.203 27.9316 126.203 27.6973C127.038 27.5947 127.734 27.3384 128.291 26.9282C128.862 26.5181 129.147 25.9614 129.147 25.2583C129.147 24.5552 128.876 24.0352 128.334 23.6982C127.807 23.3613 127.141 23.1929 126.335 23.1929C124.387 23.1929 123.413 24.2988 123.413 26.5107C123.413 28.7227 124.24 30.1948 125.896 30.9272C126.057 31.0005 126.298 31.0371 126.621 31.0371C126.958 31.0371 127.441 30.9785 128.071 30.8613C128.701 30.7441 129.06 30.6855 129.147 30.6855C129.25 30.6855 129.353 30.8613 129.455 31.2129C129.836 32.3555 130.341 33.1099 130.971 33.4761C132.348 34.4868 133.396 35.6807 134.113 37.0576C134.846 38.4346 135.212 39.7603 135.212 41.0347C135.212 42.2944 135 43.415 134.575 44.3965C134.165 45.3779 133.557 46.2568 132.751 47.0332C131.022 48.7031 128.547 49.5381 125.324 49.5381C123.361 49.5381 121.457 48.9082 119.611 47.6484C118.747 47.0625 118.029 46.2861 117.458 45.3193C116.901 44.3379 116.623 43.2686 116.623 42.1113ZM146.44 39.98C146.44 43.686 147.355 45.5391 149.187 45.5391C151.135 45.5391 152.109 43.6128 152.109 39.7603C152.109 38.6763 152.021 37.7681 151.845 37.0356C151.669 36.3032 151.486 35.8198 151.296 35.5854C151.105 35.3364 150.878 35.1167 150.615 34.9263C150.366 34.7212 150.227 34.5967 150.197 34.5527C150.197 34.4648 150.292 34.333 150.483 34.1572C150.688 33.9668 150.908 33.7251 151.142 33.4321C151.391 33.1245 151.611 32.5386 151.801 31.6743C152.006 30.7954 152.109 29.7114 152.109 28.4224C152.109 24.9067 151.157 23.1489 149.252 23.1489C147.363 23.1489 146.418 24.9067 146.418 28.4224C146.418 29.7114 146.513 30.7954 146.704 31.6743C146.909 32.5386 147.128 33.1245 147.363 33.4321C147.597 33.7251 147.81 33.9668 148 34.1572C148.205 34.333 148.308 34.4575 148.308 34.5308C148.308 34.5894 148.242 34.6626 148.11 34.7505C147.978 34.8384 147.824 34.9849 147.648 35.1899C147.473 35.395 147.297 35.666 147.121 36.0029C146.667 36.8525 146.44 38.1782 146.44 39.98ZM159.404 36.3325C159.199 36.728 159.038 37.2554 158.92 37.9146C158.818 38.5737 158.767 39.4966 158.767 40.6831C158.767 41.855 158.496 43.0488 157.954 44.2646C157.412 45.4658 156.687 46.4399 155.778 47.187C154.87 47.9341 153.859 48.5054 152.746 48.9009C151.633 49.2964 150.468 49.4941 149.252 49.4941C148.037 49.4941 146.865 49.2964 145.737 48.9009C144.624 48.5054 143.613 47.9341 142.705 47.187C141.811 46.4399 141.093 45.4658 140.551 44.2646C140.009 43.0488 139.738 41.8403 139.738 40.6392C139.738 39.4233 139.65 38.4639 139.475 37.7607C139.313 37.043 139.108 36.501 138.859 36.1348C138.625 35.7686 138.383 35.4756 138.134 35.2559C137.9 35.0215 137.695 34.853 137.519 34.7505C137.358 34.6479 137.277 34.5747 137.277 34.5308C137.277 34.4868 137.358 34.4136 137.519 34.311C137.695 34.1938 137.9 34.0254 138.134 33.8057C138.383 33.5859 138.625 33.293 138.859 32.9268C139.445 32.0479 139.738 30.7368 139.738 28.9937C139.738 27.2505 140.009 25.7637 140.551 24.5332C141.093 23.3027 141.811 22.3066 142.705 21.5449C143.613 20.7832 144.624 20.2046 145.737 19.8091C146.865 19.3989 148.037 19.1938 149.252 19.1938C150.468 19.1938 151.633 19.3989 152.746 19.8091C153.859 20.2046 154.87 20.7832 155.778 21.5449C156.687 22.3066 157.412 23.3027 157.954 24.5332C158.496 25.7637 158.767 27.0015 158.767 28.2466C158.767 29.4917 158.84 30.4878 158.986 31.2349C159.147 31.9673 159.331 32.5239 159.536 32.9048C159.755 33.271 159.968 33.5713 160.173 33.8057C160.393 34.0254 160.576 34.1938 160.722 34.311C160.883 34.4136 160.964 34.4941 160.964 34.5527C160.949 34.5674 160.817 34.6699 160.568 34.8604C160.334 35.0361 160.136 35.2266 159.975 35.4316C159.814 35.6367 159.624 35.937 159.404 36.3325ZM181.618 31.5205L181.025 31.7183C179.824 31.7183 178.959 31.0811 178.432 29.8066C178.212 29.2939 178.103 28.9277 178.103 28.708V28.686C177.546 28.9937 177.011 29.1475 176.499 29.1475C176 29.1475 175.59 29.0815 175.268 28.9497C174.96 28.8179 174.733 28.6641 174.587 28.4883C174.279 28.0928 174.089 27.6826 174.016 27.2578C174.089 27.2725 174.206 27.2798 174.367 27.2798C175.202 27.2798 175.891 26.9648 176.433 26.335C176.989 25.7051 177.268 25.1265 177.268 24.5991C177.268 24.0571 177.209 23.6396 177.092 23.3467C176.989 23.0537 176.843 22.8047 176.652 22.5996C176.257 22.1602 175.839 21.9404 175.4 21.9404C174.96 21.9404 174.587 22.043 174.279 22.248C173.972 22.4531 173.679 22.7607 173.4 23.1709C172.814 24.0938 172.521 25.5366 172.521 27.4995C172.521 29.0522 172.697 30.3047 173.049 31.2568C173.415 32.1943 173.715 32.8828 173.95 33.3223C174.404 34.2012 174.719 34.6406 174.895 34.6406L174.455 35.0361C174.177 35.2998 173.913 35.6001 173.664 35.937C173.415 36.2593 173.173 36.8306 172.939 37.6509C172.719 38.4565 172.609 39.6064 172.609 41.1006C172.609 42.5947 172.807 43.8691 173.203 44.9238C173.598 45.9785 174.316 46.9819 175.356 47.9341C175.253 48.2271 174.997 48.498 174.587 48.7471C174.191 48.9961 173.745 49.1206 173.247 49.1206C171.782 49.1206 170.405 48.3369 169.116 46.7695C167.944 48.3369 166.743 49.1206 165.512 49.1206C164.926 49.1206 164.443 49.0327 164.062 48.8569C163.564 48.6226 163.256 48.3149 163.139 47.9341C164.165 46.9819 164.882 45.9712 165.292 44.9019C165.703 43.8325 165.908 42.6021 165.908 41.2104C165.908 39.8042 165.849 38.7642 165.732 38.0903C165.629 37.4019 165.468 36.8525 165.249 36.4424C165.043 36.0322 164.86 35.7246 164.699 35.5195C164.553 35.2998 164.355 35.0947 164.106 34.9043C163.857 34.7139 163.725 34.6113 163.71 34.5967C163.71 34.5527 163.784 34.4795 163.93 34.377C164.091 34.2598 164.274 34.084 164.479 33.8496C164.699 33.6152 164.919 33.3076 165.139 32.9268C165.651 32.0186 165.908 30.605 165.908 28.686C165.908 26.7671 165.688 25.2363 165.249 24.0938C164.809 22.9512 164.018 21.8599 162.875 20.8198C163.256 20.0581 164.187 19.6772 165.666 19.6772C167.16 19.6772 168.574 20.8052 169.907 23.061C171.855 20.4976 174.089 19.2158 176.608 19.2158C179.655 19.2158 181.523 20.3438 182.211 22.5996C182.402 23.2148 182.497 23.896 182.497 24.6431C182.497 26.2837 181.962 27.9609 180.893 29.6748C180.849 29.7627 180.827 29.8579 180.827 29.9604C180.827 30.063 180.842 30.1582 180.871 30.2461C180.9 30.334 180.944 30.4365 181.003 30.5537C181.062 30.6562 181.113 30.7515 181.157 30.8394C181.215 30.9126 181.296 31.0298 181.398 31.1909C181.501 31.3374 181.574 31.4473 181.618 31.5205ZM183.815 42.1113L184.057 39.5186C184.057 38.5957 183.75 37.79 183.134 37.1016C183.354 36.8965 183.603 36.7939 183.881 36.7939C184.16 36.7939 184.445 36.8379 184.738 36.9258C185.046 36.999 185.375 37.1675 185.727 37.4312C186.079 37.6948 186.357 37.9658 186.562 38.2441C186.767 38.5225 186.936 38.8081 187.067 39.1011C187.316 39.6138 187.441 39.958 187.441 40.1338C188.305 39.4453 189.045 39.1011 189.66 39.1011C190.29 39.1011 190.751 39.1597 191.044 39.2769C191.337 39.394 191.542 39.5479 191.66 39.7383C191.865 40.0459 191.967 40.2949 191.967 40.4854V40.5513C191.337 40.6831 190.795 40.9614 190.341 41.3862C189.887 41.7964 189.66 42.397 189.66 43.188C189.66 43.9644 189.938 44.5723 190.495 45.0117C191.066 45.4365 191.726 45.6489 192.473 45.6489C193.22 45.6489 193.82 45.5464 194.274 45.3413C194.743 45.1216 195.095 44.8433 195.329 44.5063C195.783 43.8472 196.01 43.2026 196.01 42.5728C196.01 41.0054 195.585 39.7603 194.736 38.8374C193.901 37.8999 192.934 37.4312 191.835 37.4312C191.455 37.4312 191.022 37.4897 190.539 37.6069C190.056 37.7241 189.785 37.7827 189.726 37.7827C189.682 37.7827 189.609 37.7607 189.506 37.7168C189.418 37.6582 189.323 37.4678 189.221 37.1455C188.898 36.1201 188.349 35.2925 187.573 34.6626C185.097 32.9048 183.859 30.6343 183.859 27.8511C183.859 25.0532 184.687 22.9146 186.342 21.4351C188.012 19.9409 190.268 19.1938 193.11 19.1938C194.545 19.1938 195.805 19.4282 196.889 19.897C197.973 20.3511 198.823 20.8271 199.438 21.3252C200.844 22.4678 201.547 24.0278 201.547 26.0054L201.042 28.8398C201.042 29.6309 201.357 30.3486 201.987 30.9932C201.782 31.1836 201.474 31.2788 201.064 31.2788C200.654 31.2788 200.258 31.1763 199.877 30.9712C199.497 30.7515 199.182 30.4951 198.933 30.2021C198.684 29.9092 198.464 29.6016 198.273 29.2793C197.922 28.708 197.746 28.3345 197.746 28.1587C196.823 28.7739 196.076 29.0815 195.505 29.0815C194.934 29.0815 194.509 29.0303 194.23 28.9277C193.967 28.8105 193.776 28.6641 193.659 28.4883C193.483 28.1953 193.396 27.9316 193.396 27.6973C194.23 27.5947 194.926 27.3384 195.483 26.9282C196.054 26.5181 196.34 25.9614 196.34 25.2583C196.34 24.5552 196.069 24.0352 195.527 23.6982C195 23.3613 194.333 23.1929 193.527 23.1929C191.579 23.1929 190.605 24.2988 190.605 26.5107C190.605 28.7227 191.433 30.1948 193.088 30.9272C193.249 31.0005 193.491 31.0371 193.813 31.0371C194.15 31.0371 194.633 30.9785 195.263 30.8613C195.893 30.7441 196.252 30.6855 196.34 30.6855C196.442 30.6855 196.545 30.8613 196.647 31.2129C197.028 32.3555 197.534 33.1099 198.164 33.4761C199.541 34.4868 200.588 35.6807 201.306 37.0576C202.038 38.4346 202.404 39.7603 202.404 41.0347C202.404 42.2944 202.192 43.415 201.767 44.3965C201.357 45.3779 200.749 46.2568 199.943 47.0332C198.215 48.7031 195.739 49.5381 192.517 49.5381C190.554 49.5381 188.649 48.9082 186.804 47.6484C185.939 47.0625 185.222 46.2861 184.65 45.3193C184.094 44.3379 183.815 43.2686 183.815 42.1113Z" fill="#E22301"/>
</svg>
