<?xml version="1.0" encoding="utf-8"?>
<!-- Generator: Adobe Illustrator 16.0.0, SVG Export Plug-In . SVG Version: 6.00 Build 0)  -->
<!DOCTYPE svg PUBLIC "-//W3C//DTD SVG 1.1//EN" "http://www.w3.org/Graphics/SVG/1.1/DTD/svg11.dtd">
<svg version="1.1" id="Layer_1" xmlns="http://www.w3.org/2000/svg" xmlns:xlink="http://www.w3.org/1999/xlink" x="0px" y="0px"
	 width="768px" height="120px" viewBox="0 0 768 120" enable-background="new 0 0 768 120" xml:space="preserve">
<g>
	<g>
		<path fill="#010101" d="M439.49,67.449c-1.723-9.473-5.455-17.51-16.938-17.51c-6.027,0-11.195,2.871-11.195,9.186
			c0,4.306,1.723,6.603,5.168,8.612c1.723,0.861,3.732,1.723,6.027,2.584c2.297,0.861,4.307,1.722,6.891,2.296
			c7.463,2.297,18.371,8.038,18.371,21.817c0,13.778-12.631,20.381-24.688,20.381c-8.037,0-14.352-1.436-22.104-4.019v-21.53h4.02
			c0.861,10.335,5.166,22.678,18.371,22.678c6.891,0,14.641-4.019,14.641-11.769c0-6.89-6.029-10.048-11.482-12.344
			c-10.334-4.307-24.688-7.177-24.688-21.53c0-13.204,10.047-20.094,21.529-20.094c6.891,0,12.918,2.009,19.521,4.306v17.511h-3.445
			V67.449z M126.594,87.831v-8.325c-12.343,0.287-24.4,4.019-24.4,16.937c0,7.751,4.88,10.908,10.047,10.908
			c4.306,0,7.464-2.296,8.899-3.731C126.02,99.026,126.307,95.868,126.594,87.831L126.594,87.831z M93.582,10.898l1.435,26.697
			h-4.019C87.841,22.381,75.784,7.741,57.412,7.741h-0.861c-21.243,0-37.318,21.243-37.318,54.254
			c0,17.224,7.75,47.365,39.901,47.365c12.344,0,22.391-4.88,28.419-11.77c0.574-9.186,7.75-14.353,17.511-17.511
			c6.889-2.01,14.64-3.444,21.529-3.444V63.431c-0.287-4.593-0.574-12.057-11.195-12.057c-7.176,0-12.917,4.306-12.917,6.603
			c0,2.009,3.158,4.019,3.158,7.464c0,3.444-2.871,6.889-7.177,6.889c-4.306,0-6.89-3.444-6.89-7.463
			c0-7.751,10.047-17.224,25.835-17.224c7.464,0,15.214,3.158,19.233,6.89c4.306,4.593,4.306,9.76,4.306,15.789v30.428
			c0,5.455,0,9.187,3.732,9.187c0.861,0,0.861,0,1.148,0c0.287,0,0.574-0.287,1.148-0.574v3.157
			c-1.722,1.148-2.871,1.723-7.176,1.723c-3.445,0-6.603-1.148-9.186-2.87c-3.732-2.871-4.019-6.603-4.306-9.761
			c-3.444,6.89-10.334,12.918-20.955,12.918c-8.612,0-15.501-4.306-17.224-11.77c-6.028,6.603-16.937,12.631-35.596,12.631
			C20.094,115.389,0,91.275,0,59.986c0-24.4,17.511-55.403,55.116-55.403c23.539,0.287,27.845,6.89,31.577,6.89
			c2.583,0,3.732-2.583,6.028-2.583C92.721,9.176,93.582,9.463,93.582,10.898L93.582,10.898z M256.345,65.153
			c0,0.287,0,0.287,0.287,1.147c-17.511,8.612-28.132,15.789-41.05,24.688c2.583,9.473,8.325,16.649,19.233,16.649
			c7.75,0,17.797-7.75,20.955-13.491l0.287-0.287c0.574,0,2.01,0.287,2.01,0.574c0,1.435-2.871,6.314-4.019,7.75
			c-6.315,8.325-13.779,12.344-25.261,12.344c-17.798,0-29.28-16.075-29.28-33.873c0-18.372,14.353-33.012,31.577-33.012
			c9.76,0,18.946,4.306,23.539,13.493C255.484,62.569,256.058,63.718,256.345,65.153L256.345,65.153z M214.435,86.683
			c6.889-5.741,16.937-13.492,28.706-20.095c-0.574-8.898-4.306-14.927-12.631-14.927c-8.038,0-12.63,6.603-15.214,16.362
			c-0.287,0.861-0.574,2.871-0.861,5.741c-0.287,1.723-0.287,4.019-0.287,5.741C213.86,81.803,214.147,84.386,214.435,86.683
			L214.435,86.683z M332.704,110.222h8.898v3.444h-33.299v-3.444h9.473V55.393c0,0,10.621-3.158,14.927-3.445V110.222
			L332.704,110.222z M174.246,65.153c0.861-2.297,1.722-4.593,4.019-8.038c3.732-5.167,8.612-8.612,14.64-8.612
			c5.741,0,10.334,3.732,10.334,9.186c0,4.593-3.445,8.038-8.038,8.038c-4.306,0-6.889-2.584-7.463-6.89
			c-0.287-3.445-0.287-4.019-2.009-4.019c-0.287,0-3.445,0.287-6.603,8.038c-4.306,10.621-4.593,18.372-4.593,28.706v18.946h8.899
			v3.157h-33.586v-3.157h9.473V55.68l-8.899,0.861v-4.019c0,0,10.334-2.297,24.113-3.445L174.246,65.153L174.246,65.153z
			 M370.308,63.718c0.861-2.296,1.723-4.88,4.019-8.038c3.732-5.167,8.612-8.612,14.64-8.612c5.742,0,10.334,3.731,10.334,9.473
			c0,4.594-3.443,8.325-8.324,8.325c-4.307,0-6.889-2.584-7.463-7.177c-0.287-3.445-0.287-4.019-2.009-4.019
			c-0.287,0-3.445,0.287-6.603,8.038c-4.306,10.621-4.593,18.372-4.88,28.993v20.095h8.899v3.444h-33.012v-3.444h9.473V53.958
			l-8.899,0.861v-4.306c0,0,9.76-2.296,24.113-3.731L370.308,63.718L370.308,63.718z M283.903,110.222h13.492v3.444h-44.782v-3.444
			h13.492V4.87h-13.492V1.426h76.071l2.009,24.974h-3.731c-1.723-9.473-5.455-14.64-8.899-17.511
			c-4.88-4.019-11.482-4.306-22.965-4.306h-11.196v44.782c69.469-25.548,130.039-27.845,170.8-24.4
			c1.436-1.148,3.445-2.583,4.594-4.019c6.029-7.464,6.889-11.77,7.75-14.927h2.297v20.668c25.836,3.158,40.477,8.038,40.477,8.038
			v7.463c-14.066-3.158-27.559-5.454-40.477-7.176v63.728c0,4.88-0.287,11.482,7.752,11.482c8.037,0,9.186-6.603,9.473-8.899h3.443
			c-0.861,3.732-3.156,14.066-17.797,14.066c-7.75,0-14.066-3.158-16.363-9.473c-1.146-2.871-1.146-6.603-1.146-14.641V33.289
			c-68.895-6.315-125.159,6.603-170.802,22.965V110.222L283.903,110.222z"/>
	</g>
	<path fill="#0B94CF" d="M718.514,119.694c22.391-12.344,35.881-31.863,42.771-53.394c7.176-22.39,6.027-48.8-2.297-65.162
		c-12.631,6.315-25.549,9.76-40.475,9.76c-14.928,0-27.559-3.158-40.477-9.76c-8.324,16.362-9.473,42.772-2.297,65.162
		C682.918,87.831,696.408,107.351,718.514,119.694L718.514,119.694z"/>
	<polygon fill="#0B94CF" points="622.922,118.546 622.922,86.396 655.072,86.396 655.072,34.725 622.922,34.725 622.922,2.574 
		571.537,2.574 571.537,34.725 539.1,34.725 539.1,86.396 571.537,86.396 571.537,118.546 	"/>
	<path fill="#FFFFFF" d="M597.086,60.56"/>
	<path fill="#FFFFFF" d="M597.086,60.56"/>
	<path fill="#FFFFFF" d="M567.52,49.365l21.242,2.009c4.018,0.574,4.592,4.306,3.445,6.89l-14.641,27.558l0,0
		c-7.465-5.741-12.057-14.927-12.057-24.974C565.223,56.541,566.084,52.81,567.52,49.365L567.52,49.365z"/>
	<path fill="#FFFFFF" d="M597.373,32.715c-3.732,0-4.879,4.306-3.158,6.602c1.436,2.01,1.723,2.583,1.723,4.306
		c0,1.435-1.436,3.445-4.592,3.445h-22.678c5.166-10.909,16.074-18.372,28.992-18.372"/>
	<path fill="#0B94CF" d="M570.676,53.958l16.076,1.436c1.148,0,1.148,0.574,0.861,1.148L576.418,78.07
		c-4.02-4.88-6.604-10.908-6.604-17.797C569.814,58.264,570.102,56.254,570.676,53.958z"/>
	<path fill="#0B94CF" d="M589.623,34.15c-1.723,2.583-0.287,6.315,1.148,7.75c0.287,0.287,0,0.574,0,0.574h-14.354
		C579.863,38.743,584.455,35.873,589.623,34.15z"/>
	<path fill="#FFFFFF" d="M597.086,60.56"/>
	<path fill="#FFFFFF" d="M597.086,60.56"/>
	<path fill="#FFFFFF" d="M626.939,49.365l-21.242,2.009c-4.018,0.574-4.592,4.306-3.443,6.89l14.639,27.558l0,0
		c7.465-5.741,12.057-14.927,12.057-24.974C628.949,56.541,628.375,52.81,626.939,49.365L626.939,49.365z"/>
	<path fill="#FFFFFF" d="M597.086,32.715c3.732,0,4.881,4.306,3.158,6.602c-1.436,2.01-1.723,2.583-1.723,4.306
		c0,1.435,1.436,3.445,4.594,3.445h22.678c-5.168-10.909-16.076-18.372-28.707-18.372"/>
	<path fill="#0B94CF" d="M623.783,53.958l-16.076,1.436c-1.148,0-1.148,0.574-0.861,1.148l11.195,21.529
		c4.02-4.88,6.604-10.908,6.604-17.797C624.645,58.264,624.357,56.254,623.783,53.958z"/>
	<path fill="#0B94CF" d="M604.836,34.15c1.723,2.583,0.287,6.315-1.146,7.75c-0.287,0.287,0,0.574,0,0.574h14.352
		C614.598,38.743,610.004,35.873,604.836,34.15z"/>
	<path fill="#FFFFFF" d="M597.086,92.424c6.604,0,12.344-2.01,17.512-5.167l0,0l-15.502-23.252c-1.148-1.436-2.871-1.723-4.02,0
		l-15.5,23.252l0,0C584.742,90.414,590.771,92.424,597.086,92.424"/>
	<path fill="#FFFFFF" d="M718.514,109.935c18.371-11.482,28.131-27.558,34.447-45.93c5.453-16.363,6.889-35.309,0.859-50.236
		c-9.186,3.158-14.639,4.019-19.52,4.88c-4.592,0.861-8.898,1.148-15.502,1.148l0,0c-6.889,0-10.908-0.574-15.5-1.148
		c-4.881-0.861-10.334-1.723-19.52-4.88c-6.029,14.927-4.881,33.873,0.859,50.236C690.668,82.09,700.428,98.452,718.514,109.935
		L718.514,109.935z"/>
	<path fill="#0B94CF" d="M718.514,105.342c12.342-7.751,26.408-25.549,32.15-48.801c2.869-12.343,3.73-26.123,0-37.318
		c-5.455,1.436-10.621,2.583-16.076,3.445c-5.453,0.574-10.621,1.148-15.789,1.148l0,0c-5.166,0-10.621-0.574-15.787-1.148
		c-5.455-0.861-10.621-2.009-16.076-3.445c-4.018,10.908-3.156,24.975,0,37.318C692.104,79.793,706.17,97.591,718.514,105.342
		L718.514,105.342z"/>
	<path fill="#FFFFFF" d="M705.883,32.428c-4.307,2.296-5.742,7.176-3.732,11.482c1.723,3.445,4.881,6.028,8.611,7.176
		c2.01,0.574,3.732,0.574,5.742,0.861c2.295,0,4.592,0.287,6.889,0.861c0.574,0,1.148,0.287,1.148,0.861
		c0.574,1.148,0,2.296-1.148,2.871c0,2.01-0.287,6.028-0.287,6.028s9.76-0.861,8.037-9.76c-0.287-2.01-2.008-4.306-4.018-5.167
		c-4.881-2.583-10.334-1.435-15.215-3.158c-1.723-0.574-4.02-1.435-4.594-3.157c-0.287-0.861,0-2.297,0.861-2.584
		c1.148-0.287,2.584,0.574,4.594,1.148c1.148,0.287,2.297,0.287,3.158,0c0.287,0,0.861-0.287,1.148-0.574
		c0-0.287-0.574-0.287-0.861-0.574c-0.574-0.287-1.148-0.287-1.723-0.574c-1.148-0.287-2.01-0.861-3.158-1.436
		c0.861-0.287,2.584-0.287,3.445,0c0.861,0,3.158,0,3.73,0c0.287,0,0.574-0.287,0.287-0.574c-0.287-0.574-0.859-0.574-1.146-1.148
		c-0.574-0.861-1.148-2.01-2.297-2.296C712.771,30.993,709.039,30.706,705.883,32.428z"/>
	<path fill="#FFFFFF" d="M722.244,63.431V53.097c0,0-1.436-0.287-3.158-0.287c-2.295-0.287-3.443,0-3.443,0v0.861
		c0,0-1.148,0.574-1.436,0.861c0,0-0.287,0.574-0.287,0.861c0.861,2.583,2.297,4.88,2.584,7.75
		C718.514,63.144,719.947,63.144,722.244,63.431z"/>
	<path fill="#FFFFFF" d="M709.9,61.995c-0.574,4.019,2.297,6.028,5.168,6.89c2.297,0.574,4.592,0.574,6.889,0.861
		c0.287,0,0.861,0,1.436,0.287c0.287,0.287,0.574,0.574,0.861,0.574c0,0.287,0,0.574-0.287,0.861s-0.861,0.573-0.861,0.573v4.881
		c0,0,2.01,0,3.445-1.148c1.436-0.861,2.297-2.01,2.871-3.445c0.287-1.722,0-3.157-1.148-4.88c-0.861-1.148-2.01-1.722-3.445-2.296
		c-2.871-0.861-6.029-0.861-8.898-1.148c-0.574,0-0.861-0.287-0.861-0.861c0-0.861,0.574-1.148,0.574-1.148
		s-0.287-1.148-0.861-2.296c-0.287-0.861-0.861-2.009-1.148-2.583C711.623,57.977,710.188,59.986,709.9,61.995z"/>
	<path fill="#FFFFFF" d="M721.957,70.895v8.611l-2.297-0.861l-2.008-0.861v-7.176C719.373,70.607,720.234,70.607,721.957,70.895z"/>
	<path fill="#FFFFFF" d="M712.197,75.487c-1.148,2.87,0.287,5.454,2.584,6.603c1.148,0.574,2.871,1.148,4.305,1.722
		c1.436,0.574,3.732,2.01,3.732,2.584s-0.287,0.861-0.287,0.861v3.444c0,0,1.436-0.287,2.584-1.148
		c0.861-0.86,1.723-1.722,1.723-3.444s-0.861-3.157-3.445-4.88c-2.01-1.148-4.594-2.297-6.314-2.871
		c-0.287,0-0.574-0.574-0.287-0.861c0-0.286,0.287-0.573,0.287-0.573v-4.02c0,0-1.436,0.287-2.297,0.574
		C713.633,74.052,712.771,74.626,712.197,75.487z"/>
	<path fill="#FFFFFF" d="M721.67,86.97c0-0.287,0-0.287-0.287-0.574c-0.574-0.574-1.436-1.148-1.723-1.148
		c-0.574-0.287-2.008-0.861-2.008-0.861s0,8.899,0.287,13.492c0,1.148,0.574,1.436,1.721,1.436c1.148,0,1.436-0.574,1.723-1.148
		C721.383,96.729,721.383,90.414,721.67,86.97z"/>
	<path fill="#FFFFFF" d="M722.531,30.132c0.574,0.287,0.574,0.287,0.574,0.861c0.287,1.436,0,3.732,0.287,4.593
		c0,0.287,0.574,0.287,0.574,0.287c2.01-1.148,3.158-2.871,5.168-3.732c0.861-0.287,3.443,0.861,2.869,2.871
		c-0.287,0.861-0.574,1.148-1.148,1.722c-1.146,1.148-2.869,2.296-4.305,4.019c-0.861,1.148-2.01,1.722-2.871,2.871
		c-0.287,0.287-0.574,0.861-0.574,0.861c-2.871-0.574-5.453-0.574-7.75-0.861v-3.158c0,0,2.297-0.287,2.584-1.436
		c0,0,0-0.574-0.287-0.574c-0.287-0.287-1.148-0.574-1.148-0.574c2.297,0.287,3.443,0.574,5.74,1.722c0-0.287,0-0.861,0-0.861
		c-0.287-0.287-0.574-0.574-1.148-0.574c-1.436-0.287-4.879-0.861-4.879-0.861s1.723,0,2.871-0.287c0.572,0,1.146-0.287,1.434-0.574
		s0-0.861-0.574-1.435c-0.287-0.287-0.572-0.574-0.859-1.148s-0.861-1.148-1.436-1.722s-1.723-1.148-1.723-1.148
		s-0.287-1.722,0-2.296s0.861-0.861,1.148-0.574C718.799,28.983,720.521,29.845,722.531,30.132z"/>
	<path fill="#0B94CF" d="M715.643,33.576c-0.287,0.287-0.574,0.574-1.148,0.574c-0.861,0.287-0.861-0.574-1.436-1.148
		c-0.287-0.287-0.861,0-1.148-0.574c1.436,0,3.158,0,4.02,0.861L715.643,33.576z"/>
	<path fill="#0B94CF" d="M596.799,69.172c0.287-0.287,0.574-0.287,0.861,0l10.621,16.362c-3.445,1.436-7.176,2.297-11.195,2.297
		s-7.75-0.861-11.195-2.297L596.799,69.172c0.287-0.287,0.574-0.287,0.861,0"/>
	<path fill="#FFFFFF" d="M715.643,90.414c-0.574,0.574-1.436,1.723-1.436,3.445c0,1.722,0.287,2.009,0.574,2.87
		c0.287,0.574,1.148,0.574,1.436,0s0-1.148,0-2.296c0.287-0.861,0.861-1.436,0.861-1.436v-4.02
		C717.078,89.266,716.504,89.553,715.643,90.414z"/>
	<path fill="#0B94CF" d="M739.469,113.092c0-2.87,2.01-4.88,4.879-4.88c2.584,0,4.881,2.01,4.881,4.88c0,2.871-2.01,4.88-4.881,4.88
		C741.479,117.972,739.469,115.963,739.469,113.092z M744.061,119.12c3.158,0,6.029-2.583,6.029-5.741
		c0-3.444-2.584-5.741-6.029-5.741c-3.156,0-6.027,2.584-6.027,5.741C738.32,116.537,740.904,119.12,744.061,119.12z
		 M742.912,113.666h1.148l1.723,2.871h1.148l-2.01-2.871c0.861,0,1.723-0.574,1.723-1.723c0-1.435-0.861-2.009-2.297-2.009h-2.584
		v6.603h1.148V113.666z M742.912,112.805v-2.009h1.436c0.574,0,1.436,0.287,1.436,0.861c0,1.147-0.861,1.147-1.723,1.147H742.912z"
		/>
	<path fill="#0B94CF" d="M629.236,113.092c0-2.87,2.01-4.88,4.881-4.88c2.584,0,4.879,2.01,4.879,4.88
		c0,2.871-2.008,4.88-4.879,4.88S629.236,115.963,629.236,113.092z M634.117,119.12c3.158,0,6.027-2.583,6.027-5.741
		c0-3.444-2.582-5.741-6.027-5.741c-3.158,0-6.029,2.584-6.029,5.741C628.088,116.537,630.672,119.12,634.117,119.12z
		 M632.682,113.666h1.148l1.723,2.871h1.148l-2.01-2.871c0.861,0,1.723-0.574,1.723-1.723c0-1.435-0.861-2.009-2.297-2.009h-2.584
		v6.603h1.148V113.666z M632.682,112.805v-2.009h1.436c0.574,0,1.436,0.287,1.436,0.861c0,1.147-0.861,1.147-1.723,1.147H632.682z"
		/>
	<path fill="#010101" d="M494.031,113.379c0-2.87,2.01-4.88,4.881-4.88c2.582,0,4.879,2.01,4.879,4.88c0,2.871-2.01,4.88-4.879,4.88
		C496.041,118.259,494.031,115.963,494.031,113.379z M498.625,119.12c3.156,0,6.027-2.583,6.027-5.741
		c0-3.444-2.584-5.741-6.027-5.741c-3.158,0-6.029,2.584-6.029,5.741C492.883,116.537,495.467,119.12,498.625,119.12z
		 M497.477,113.666h1.148l1.723,2.871h1.146l-2.008-2.871c0.861,0,1.721-0.574,1.721-1.723c0-1.435-0.859-2.009-2.295-2.009h-2.584
		v6.603h1.148V113.666z M497.477,112.805v-2.009h1.436c0.574,0,1.436,0.287,1.436,0.861c0,1.147-0.861,1.147-1.723,1.147H497.477z"
		/>
	<path fill="#010101" d="M514.986,101.896l-2.01,9.761h-3.73l2.01-9.761H514.986z"/>
</g>
</svg>
